<svg 
 xmlns="http://www.w3.org/2000/svg"
 xmlns:xlink="http://www.w3.org/1999/xlink"
 width="100%" height="394px" viewBox="0 0 1907 391">
<path fill-rule="evenodd"  fill="rgb(255, 255, 255)"
 d="M1896.909,377.308 L1878.184,347.383 C1874.072,340.821 1870.134,334.083 1867.160,327.696 L1866.897,327.784 C1867.335,335.221 1867.510,342.308 1867.510,352.108 L1867.510,377.308 L1860.335,377.308 L1860.335,318.334 L1868.647,318.334 L1887.547,348.171 C1891.922,355.083 1895.334,361.295 1898.134,367.333 L1898.309,367.245 C1897.609,359.370 1897.434,352.196 1897.434,343.008 L1897.434,318.334 L1904.609,318.334 L1904.609,377.308 L1896.909,377.308 ZM1798.997,378.270 C1783.423,378.270 1772.485,366.195 1772.485,348.346 C1772.485,329.621 1784.123,317.371 1799.872,317.371 C1815.972,317.371 1826.384,329.709 1826.384,347.208 C1826.384,367.508 1814.047,378.270 1798.997,378.270 ZM1799.522,323.584 C1786.922,323.584 1780.623,335.221 1780.623,348.171 C1780.623,360.770 1787.447,372.058 1799.435,372.058 C1811.509,372.058 1818.334,360.945 1818.334,347.558 C1818.334,335.833 1812.209,323.584 1799.522,323.584 ZM1731.010,318.334 L1738.623,318.334 L1738.623,377.308 L1731.010,377.308 L1731.010,318.334 ZM1682.361,377.308 L1674.661,377.308 L1674.661,324.809 L1656.723,324.809 L1656.723,318.334 L1700.385,318.334 L1700.385,324.809 L1682.361,324.809 L1682.361,377.308 ZM1616.298,358.758 L1595.386,358.758 L1589.261,377.308 L1581.386,377.308 L1601.423,318.334 L1610.610,318.334 L1630.735,377.308 L1622.598,377.308 L1616.298,358.758 ZM1608.948,335.833 C1607.635,331.983 1606.760,328.484 1605.886,325.071 L1605.710,325.071 C1604.835,328.571 1603.873,332.158 1602.736,335.746 L1596.961,352.808 L1614.723,352.808 L1608.948,335.833 ZM1548.573,361.120 C1550.498,369.345 1551.898,375.033 1553.123,377.308 L1545.248,377.308 C1544.286,375.645 1542.973,370.570 1541.311,363.220 C1539.561,355.083 1536.411,352.021 1529.498,351.758 L1522.324,351.758 L1522.324,377.308 L1514.711,377.308 L1514.711,319.121 C1518.561,318.334 1524.074,317.896 1529.324,317.896 C1537.461,317.896 1542.711,319.384 1546.386,322.709 C1549.361,325.334 1551.023,329.359 1551.023,333.908 C1551.023,341.696 1546.123,346.858 1539.911,348.958 L1539.911,349.221 C1544.461,350.796 1547.173,354.996 1548.573,361.120 ZM1543.411,334.783 C1543.411,327.171 1537.898,323.846 1529.849,323.759 C1526.174,323.759 1523.549,324.109 1522.324,324.459 L1522.324,345.983 L1530.111,345.983 C1538.248,345.983 1543.411,341.521 1543.411,334.783 ZM1453.374,378.270 C1437.799,378.270 1426.862,366.195 1426.862,348.346 C1426.862,329.621 1438.499,317.371 1454.249,317.371 C1470.348,317.371 1480.761,329.709 1480.761,347.208 C1480.761,367.508 1468.423,378.270 1453.374,378.270 ZM1453.899,323.584 C1441.299,323.584 1434.999,335.221 1434.999,348.171 C1434.999,360.770 1441.824,372.058 1453.811,372.058 C1465.886,372.058 1472.711,360.945 1472.711,347.558 C1472.711,335.833 1466.586,323.584 1453.899,323.584 ZM1373.487,354.208 C1371.212,354.208 1369.112,354.121 1367.362,353.683 L1367.362,377.308 L1359.749,377.308 L1359.749,319.034 C1363.424,318.421 1368.237,317.896 1374.362,317.896 C1381.887,317.896 1387.399,319.646 1390.899,322.796 C1394.136,325.596 1396.061,329.884 1396.061,335.133 C1396.061,340.471 1394.486,344.671 1391.511,347.733 C1387.486,352.021 1380.924,354.208 1373.487,354.208 ZM1374.537,323.934 C1371.212,323.934 1368.674,324.196 1367.362,324.546 L1367.362,347.471 C1369.024,347.908 1371.124,348.083 1373.662,348.083 C1382.849,348.083 1388.449,343.621 1388.449,335.483 C1388.449,327.696 1382.936,323.934 1374.537,323.934 ZM1322.474,361.120 C1324.399,369.345 1325.799,375.033 1327.024,377.308 L1319.149,377.308 C1318.187,375.645 1316.874,370.570 1315.212,363.220 C1313.462,355.083 1310.312,352.021 1303.400,351.758 L1296.225,351.758 L1296.225,377.308 L1288.613,377.308 L1288.613,319.121 C1292.462,318.334 1297.975,317.896 1303.225,317.896 C1311.362,317.896 1316.612,319.384 1320.287,322.709 C1323.262,325.334 1324.924,329.359 1324.924,333.908 C1324.924,341.696 1320.024,346.858 1313.812,348.958 L1313.812,349.221 C1318.362,350.796 1321.074,354.996 1322.474,361.120 ZM1317.312,334.783 C1317.312,327.171 1311.799,323.846 1303.750,323.759 C1300.075,323.759 1297.450,324.109 1296.225,324.459 L1296.225,345.983 L1304.012,345.983 C1312.150,345.983 1317.312,341.521 1317.312,334.783 ZM1227.275,378.270 C1211.700,378.270 1200.763,366.195 1200.763,348.346 C1200.763,329.621 1212.400,317.371 1228.150,317.371 C1244.250,317.371 1254.662,329.709 1254.662,347.208 C1254.662,367.508 1242.325,378.270 1227.275,378.270 ZM1227.800,323.584 C1215.200,323.584 1208.900,335.221 1208.900,348.171 C1208.900,360.770 1215.725,372.058 1227.712,372.058 C1239.787,372.058 1246.612,360.945 1246.612,347.558 C1246.612,335.833 1240.487,323.584 1227.800,323.584 ZM1157.014,323.759 C1143.189,323.759 1134.001,332.596 1134.001,348.083 C1134.001,362.520 1142.314,371.795 1156.664,371.795 C1161.301,371.795 1166.026,370.833 1169.088,369.345 L1170.663,375.383 C1167.863,376.783 1162.263,378.183 1155.089,378.183 C1138.464,378.183 1125.952,367.683 1125.952,348.346 C1125.952,329.884 1138.464,317.371 1156.751,317.371 C1164.101,317.371 1168.738,318.946 1170.751,319.996 L1168.913,326.209 C1166.026,324.809 1161.913,323.759 1157.014,323.759 ZM1052.365,361.208 C1052.365,370.308 1045.627,378.183 1031.715,378.183 C1026.028,378.183 1019.815,376.520 1016.665,374.420 L1018.590,368.033 C1022.003,370.133 1026.990,371.883 1032.240,371.883 C1040.027,371.883 1044.577,367.770 1044.577,361.820 C1044.577,356.308 1041.427,353.158 1033.465,350.096 C1023.840,346.683 1017.890,341.696 1017.890,333.383 C1017.890,324.196 1025.503,317.371 1036.965,317.371 C1043.002,317.371 1047.377,318.771 1050.002,320.259 L1047.902,326.471 C1045.977,325.421 1042.040,323.671 1036.702,323.671 C1028.653,323.671 1025.590,328.484 1025.590,332.508 C1025.590,338.021 1029.178,340.733 1037.315,343.883 C1047.290,347.733 1052.365,352.546 1052.365,361.208 ZM952.529,318.334 L984.378,318.334 L984.378,324.721 L960.141,324.721 L960.141,343.358 L983.066,343.358 L983.066,349.658 L960.141,349.658 L960.141,370.920 L985.691,370.920 L985.691,377.308 L952.529,377.308 L952.529,318.334 ZM888.742,347.383 C884.629,340.821 880.692,334.083 877.717,327.696 L877.455,327.784 C877.892,335.221 878.067,342.308 878.067,352.108 L878.067,377.308 L870.892,377.308 L870.892,318.334 L879.205,318.334 L898.104,348.171 C902.479,355.083 905.891,361.295 908.691,367.333 L908.866,367.245 C908.166,359.370 907.991,352.196 907.991,343.008 L907.991,318.334 L915.166,318.334 L915.166,377.308 L907.466,377.308 L888.742,347.383 ZM825.917,318.334 L833.530,318.334 L833.530,377.308 L825.917,377.308 L825.917,318.334 ZM769.042,354.208 C766.767,354.208 764.667,354.121 762.917,353.683 L762.917,377.308 L755.305,377.308 L755.305,319.034 C758.980,318.421 763.792,317.896 769.917,317.896 C777.442,317.896 782.954,319.646 786.454,322.796 C789.692,325.596 791.617,329.884 791.617,335.133 C791.617,340.471 790.042,344.671 787.067,347.733 C783.042,352.021 776.480,354.208 769.042,354.208 ZM770.092,323.934 C766.767,323.934 764.230,324.196 762.917,324.546 L762.917,347.471 C764.580,347.908 766.680,348.083 769.217,348.083 C778.405,348.083 784.004,343.621 784.004,335.483 C784.004,327.696 778.492,323.934 770.092,323.934 ZM698.430,354.208 C696.155,354.208 694.055,354.121 692.305,353.683 L692.305,377.308 L684.693,377.308 L684.693,319.034 C688.368,318.421 693.180,317.896 699.305,317.896 C706.830,317.896 712.342,319.646 715.842,322.796 C719.079,325.596 721.004,329.884 721.004,335.133 C721.004,340.471 719.429,344.671 716.455,347.733 C712.430,352.021 705.867,354.208 698.430,354.208 ZM699.480,323.934 C696.155,323.934 693.618,324.196 692.305,324.546 L692.305,347.471 C693.968,347.908 696.067,348.083 698.605,348.083 C707.792,348.083 713.392,343.621 713.392,335.483 C713.392,327.696 707.880,323.934 699.480,323.934 ZM639.718,318.334 L647.330,318.334 L647.330,377.308 L639.718,377.308 L639.718,318.334 ZM574.357,318.334 L581.969,318.334 L581.969,370.920 L607.169,370.920 L607.169,377.308 L574.357,377.308 L574.357,318.334 ZM529.382,318.334 L536.994,318.334 L536.994,377.308 L529.382,377.308 L529.382,318.334 ZM484.407,349.658 L455.882,349.658 L455.882,377.308 L448.270,377.308 L448.270,318.334 L455.882,318.334 L455.882,343.008 L484.407,343.008 L484.407,318.334 L492.107,318.334 L492.107,377.308 L484.407,377.308 L484.407,349.658 ZM391.395,354.208 C389.120,354.208 387.020,354.121 385.270,353.683 L385.270,377.308 L377.658,377.308 L377.658,319.034 C381.333,318.421 386.145,317.896 392.270,317.896 C399.795,317.896 405.307,319.646 408.807,322.796 C412.044,325.596 413.969,329.884 413.969,335.133 C413.969,340.471 412.394,344.671 409.420,347.733 C405.395,352.021 398.832,354.208 391.395,354.208 ZM392.445,323.934 C389.120,323.934 386.582,324.196 385.270,324.546 L385.270,347.471 C386.932,347.908 389.032,348.083 391.570,348.083 C400.757,348.083 406.357,343.621 406.357,335.483 C406.357,327.696 400.845,323.934 392.445,323.934 Z"/>
<path fill-rule="evenodd"  fill="rgb(255, 255, 255)"
 d="M1881.269,175.623 C1868.178,175.623 1863.198,183.449 1863.198,189.994 C1863.198,198.958 1869.032,203.369 1882.265,208.491 C1898.486,214.752 1906.738,222.578 1906.738,236.664 C1906.738,251.462 1895.782,264.268 1873.159,264.268 C1863.910,264.268 1853.807,261.565 1848.685,258.150 L1851.815,247.763 C1857.364,251.178 1865.475,254.024 1874.012,254.024 C1886.676,254.024 1894.075,247.336 1894.075,237.660 C1894.075,228.696 1888.952,223.574 1876.004,218.594 C1860.353,213.045 1850.677,204.934 1850.677,191.417 C1850.677,176.477 1863.056,165.378 1881.696,165.378 C1891.514,165.378 1898.628,167.655 1902.897,170.074 L1899.482,180.176 C1896.351,178.469 1889.948,175.623 1881.269,175.623 ZM1832.035,236.522 C1835.166,249.897 1837.442,259.146 1839.434,262.845 L1826.628,262.845 C1825.063,260.142 1822.929,251.889 1820.225,239.937 C1817.380,226.704 1812.257,221.724 1801.017,221.297 L1789.349,221.297 L1789.349,262.845 L1776.970,262.845 L1776.970,168.224 C1783.231,166.943 1792.195,166.232 1800.732,166.232 C1813.965,166.232 1822.502,168.651 1828.478,174.058 C1833.316,178.326 1836.019,184.872 1836.019,192.271 C1836.019,204.934 1828.051,213.329 1817.949,216.744 L1817.949,217.171 C1825.348,219.732 1829.759,226.562 1832.035,236.522 ZM1823.640,193.693 C1823.640,181.314 1814.676,175.907 1801.586,175.765 C1795.610,175.765 1791.341,176.334 1789.349,176.903 L1789.349,211.906 L1802.013,211.906 C1815.245,211.906 1823.640,204.650 1823.640,193.693 ZM1706.963,166.943 L1758.756,166.943 L1758.756,177.330 L1719.342,177.330 L1719.342,207.638 L1756.622,207.638 L1756.622,217.882 L1719.342,217.882 L1719.342,252.458 L1760.891,252.458 L1760.891,262.845 L1706.963,262.845 L1706.963,166.943 ZM1642.363,214.183 C1635.675,203.511 1629.272,192.555 1624.435,182.168 L1624.008,182.310 C1624.719,194.405 1625.004,205.930 1625.004,221.866 L1625.004,262.845 L1613.336,262.845 L1613.336,166.943 L1626.854,166.943 L1657.588,215.463 C1664.702,226.704 1670.251,236.807 1674.805,246.625 L1675.089,246.482 C1673.951,233.676 1673.666,222.009 1673.666,207.068 L1673.666,166.943 L1685.334,166.943 L1685.334,262.845 L1672.813,262.845 L1642.363,214.183 ZM1573.352,262.845 L1560.830,262.845 L1560.830,177.473 L1531.661,177.473 L1531.661,166.943 L1602.663,166.943 L1602.663,177.473 L1573.352,177.473 L1573.352,262.845 ZM1521.130,236.522 C1524.260,249.897 1526.537,259.146 1528.529,262.845 L1515.723,262.845 C1514.158,260.142 1512.024,251.889 1509.320,239.937 C1506.474,226.704 1501.352,221.724 1490.111,221.297 L1478.444,221.297 L1478.444,262.845 L1466.065,262.845 L1466.065,168.224 C1472.325,166.943 1481.289,166.232 1489.827,166.232 C1503.060,166.232 1511.597,168.651 1517.573,174.058 C1522.411,178.326 1525.114,184.872 1525.114,192.271 C1525.114,204.934 1517.146,213.329 1507.044,216.744 L1507.044,217.171 C1514.443,219.732 1518.853,226.562 1521.130,236.522 ZM1512.735,193.693 C1512.735,181.314 1503.771,175.907 1490.680,175.765 C1484.704,175.765 1480.436,176.334 1478.444,176.903 L1478.444,211.906 L1491.107,211.906 C1504.340,211.906 1512.735,204.650 1512.735,193.693 ZM1428.498,232.680 L1394.491,232.680 L1384.531,262.845 L1371.725,262.845 L1404.309,166.943 L1419.249,166.943 L1451.975,262.845 L1438.742,262.845 L1428.498,232.680 ZM1416.546,195.401 C1414.411,189.140 1412.988,183.449 1411.565,177.899 L1411.281,177.899 C1409.858,183.591 1408.293,189.425 1406.443,195.259 L1397.052,223.005 L1425.937,223.005 L1416.546,195.401 ZM1325.621,225.281 C1321.922,225.281 1318.507,225.139 1315.661,224.428 L1315.661,262.845 L1303.282,262.845 L1303.282,168.082 C1309.258,167.086 1317.084,166.232 1327.044,166.232 C1339.281,166.232 1348.245,169.078 1353.937,174.200 C1359.201,178.753 1362.332,185.725 1362.332,194.263 C1362.332,202.942 1359.770,209.772 1354.933,214.752 C1348.387,221.724 1337.716,225.281 1325.621,225.281 ZM1327.329,176.050 C1321.922,176.050 1317.795,176.477 1315.661,177.046 L1315.661,214.325 C1318.365,215.037 1321.779,215.321 1325.906,215.321 C1340.846,215.321 1349.953,208.065 1349.953,194.832 C1349.953,182.168 1340.988,176.050 1327.329,176.050 ZM1233.133,262.845 L1220.611,262.845 L1220.611,177.473 L1191.442,177.473 L1191.442,166.943 L1262.444,166.943 L1262.444,177.473 L1233.133,177.473 L1233.133,262.845 ZM1137.798,214.183 C1131.110,203.511 1124.708,192.555 1119.870,182.168 L1119.443,182.310 C1120.154,194.405 1120.439,205.930 1120.439,221.866 L1120.439,262.845 L1108.771,262.845 L1108.771,166.943 L1122.289,166.943 L1153.023,215.463 C1160.137,226.704 1165.687,236.807 1170.240,246.625 L1170.524,246.482 C1169.386,233.676 1169.101,222.009 1169.101,207.068 L1169.101,166.943 L1180.769,166.943 L1180.769,262.845 L1168.248,262.845 L1137.798,214.183 ZM1038.765,166.943 L1090.558,166.943 L1090.558,177.330 L1051.144,177.330 L1051.144,207.638 L1088.423,207.638 L1088.423,217.882 L1051.144,217.882 L1051.144,252.458 L1092.692,252.458 L1092.692,262.845 L1038.765,262.845 L1038.765,166.943 ZM1005.183,220.728 C1004.471,207.353 1003.618,191.275 1003.760,179.322 L1003.333,179.322 C1000.061,190.563 996.076,202.515 991.239,215.748 L974.306,262.276 L964.915,262.276 L949.406,216.602 C944.853,203.084 941.011,190.705 938.308,179.322 L938.023,179.322 C937.738,191.275 937.027,207.353 936.173,221.724 L933.612,262.845 L921.802,262.845 L928.490,166.943 L944.284,166.943 L960.647,213.329 C964.631,225.139 967.903,235.668 970.322,245.629 L970.749,245.629 C973.168,235.953 976.583,225.424 980.852,213.329 L997.926,166.943 L1013.720,166.943 L1019.696,262.845 L1007.602,262.845 L1005.183,220.728 ZM854.357,166.943 L906.150,166.943 L906.150,177.330 L866.736,177.330 L866.736,207.638 L904.015,207.638 L904.015,217.882 L866.736,217.882 L866.736,252.458 L908.284,252.458 L908.284,262.845 L854.357,262.845 L854.357,166.943 ZM805.976,263.841 C791.463,263.841 779.511,260.142 770.120,251.178 C761.867,243.210 756.745,230.404 756.745,215.463 C756.887,186.864 776.523,165.947 808.680,165.947 C819.778,165.947 828.458,168.366 832.584,170.358 L829.596,180.461 C824.474,178.184 818.071,176.334 808.395,176.334 C785.060,176.334 769.835,190.848 769.835,214.894 C769.835,239.226 784.491,253.597 806.830,253.597 C814.940,253.597 820.490,252.458 823.335,251.035 L823.335,222.436 L803.842,222.436 L803.842,212.475 L835.430,212.475 L835.430,258.577 C829.881,260.569 818.925,263.841 805.976,263.841 ZM724.869,232.680 L690.862,232.680 L680.902,262.845 L668.096,262.845 L700.680,166.943 L715.621,166.943 L748.347,262.845 L735.114,262.845 L724.869,232.680 ZM712.917,195.401 C710.783,189.140 709.360,183.449 707.937,177.899 L707.652,177.899 C706.230,183.591 704.664,189.425 702.815,195.259 L693.424,223.005 L722.308,223.005 L712.917,195.401 ZM610.753,214.183 C604.065,203.511 597.662,192.555 592.824,182.168 L592.397,182.310 C593.109,194.405 593.393,205.930 593.393,221.866 L593.393,262.845 L581.726,262.845 L581.726,166.943 L595.243,166.943 L625.977,215.463 C633.092,226.704 638.641,236.807 643.194,246.625 L643.479,246.482 C642.340,233.676 642.056,222.009 642.056,207.068 L642.056,166.943 L653.724,166.943 L653.724,262.845 L641.202,262.845 L610.753,214.183 ZM544.159,232.680 L510.152,232.680 L500.192,262.845 L487.386,262.845 L519.970,166.943 L534.910,166.943 L567.636,262.845 L554.404,262.845 L544.159,232.680 ZM532.207,195.401 C530.072,189.140 528.649,183.449 527.227,177.899 L526.942,177.899 C525.519,183.591 523.954,189.425 522.104,195.259 L512.713,223.005 L541.598,223.005 L532.207,195.401 ZM461.061,220.728 C460.349,207.353 459.496,191.275 459.638,179.322 L459.211,179.322 C455.938,190.563 451.954,202.515 447.117,215.748 L430.184,262.276 L420.793,262.276 L405.284,216.602 C400.731,203.084 396.889,190.705 394.185,179.322 L393.901,179.322 C393.616,191.275 392.905,207.353 392.051,221.724 L389.490,262.845 L377.680,262.845 L384.368,166.943 L400.162,166.943 L416.525,213.329 C420.509,225.139 423.781,235.668 426.200,245.629 L426.627,245.629 C429.046,235.953 432.461,225.424 436.730,213.329 L453.804,166.943 L469.598,166.943 L475.574,262.845 L463.480,262.845 L461.061,220.728 Z"/>
<path fill-rule="evenodd"  fill="rgb(149, 6, 6)"
 d="M0.514,94.718 L13.056,94.718 C13.056,35.004 53.034,8.582 117.313,8.582 L117.313,0.127 L0.514,0.127 L0.514,94.718 ZM98.500,390.115 L275.659,390.115 L275.659,381.660 L232.545,381.660 L232.545,0.127 L141.614,0.127 L141.614,381.660 L98.500,381.660 L98.500,390.115 ZM361.103,94.718 L373.645,94.718 L373.645,0.127 L256.846,0.127 L256.846,8.582 C321.125,8.582 361.103,35.004 361.103,94.718 Z"/>
</svg>