<svg width="200" height="77" viewBox="0 0 200 77" fill="none" xmlns="http://www.w3.org/2000/svg">
<path d="M37.8378 77C32.9577 77 28.1807 76.0921 23.5069 74.2762C18.9017 72.3905 14.7433 69.5619 11.0317 65.7905C7.45759 62.0889 4.70824 57.9333 2.78371 53.3238C0.927902 48.6444 0 43.7206 0 38.5524C0 33.3143 0.927902 28.3905 2.78371 23.781C4.70824 19.1016 7.45759 14.946 11.0317 11.3143C14.7433 7.54286 18.9361 4.71429 23.61 2.82857C28.2838 0.942857 33.0265 0 37.8378 0C42.7179 0 47.4605 0.942857 52.0656 2.82857C56.7395 4.71429 60.9323 7.54286 64.6439 11.3143L52.3749 23.781C50.3817 21.7556 48.1135 20.254 45.5703 19.2762C43.0272 18.2286 40.4497 17.7048 37.8378 17.7048C35.2259 17.7048 32.6484 18.2286 30.1053 19.2762C27.6309 20.254 25.397 21.7556 23.4038 23.781C21.4792 25.8064 20.0014 28.0762 18.9704 30.5905C17.9394 33.1048 17.4239 35.7587 17.4239 38.5524C17.4239 41.346 17.9394 44 18.9704 46.5143C20.0014 48.9587 21.4792 51.1937 23.4038 53.219C25.397 55.2444 27.6309 56.7809 30.1053 57.8286C32.6484 58.8063 35.2259 59.2952 37.8378 59.2952C40.4497 59.2952 43.0272 58.8063 45.5703 57.8286C48.1135 56.7809 50.3817 55.2444 52.3749 53.219L64.6439 65.7905C60.9323 69.5619 56.7739 72.3905 52.1687 74.2762C47.5636 76.0921 42.7866 77 37.8378 77Z" fill="white"/>
<path d="M94.2288 77C89.3487 77 84.5717 76.0921 79.8979 74.2762C75.2927 72.3905 71.1343 69.5619 67.4227 65.7905C63.8486 62.0889 61.0992 57.9333 59.1747 53.3238C57.3189 48.6444 56.391 43.7206 56.391 38.5524C56.391 33.3143 57.3189 28.3905 59.1747 23.781C61.0992 19.1016 63.8486 14.946 67.4227 11.3143C71.1343 7.54286 75.3271 4.71429 80.001 2.82857C84.6748 0.942857 89.4175 0 94.2288 0C99.1089 0 103.851 0.942857 108.457 2.82857C113.131 4.71429 117.323 7.54286 121.035 11.3143L108.766 23.781C106.773 21.7556 104.504 20.254 101.961 19.2762C99.4182 18.2286 96.8407 17.7048 94.2288 17.7048C91.6169 17.7048 89.0394 18.2286 86.4963 19.2762C84.0219 20.254 81.788 21.7556 79.7948 23.781C77.8702 25.8064 76.3925 28.0762 75.3615 30.5905C74.3304 33.1048 73.8149 35.7587 73.8149 38.5524C73.8149 41.346 74.3304 44 75.3615 46.5143C76.3925 48.9587 77.8702 51.1937 79.7948 53.219C81.788 55.2444 84.0219 56.7809 86.4963 57.8286C89.0394 58.8063 91.6169 59.2952 94.2288 59.2952C96.8407 59.2952 99.4182 58.8063 101.961 57.8286C104.504 56.7809 106.773 55.2444 108.766 53.219L121.035 65.7905C117.323 69.5619 113.165 72.3905 108.56 74.2762C103.955 76.0921 99.1776 77 94.2288 77Z" fill="white"/>
<path d="M150.62 77C145.74 77 140.963 76.0921 136.289 74.2762C131.684 72.3905 127.525 69.5619 123.814 65.7905C120.24 62.0889 117.49 57.9333 115.566 53.3238C113.71 48.6444 112.782 43.7206 112.782 38.5524C112.782 33.3143 113.71 28.3905 115.566 23.781C117.49 19.1016 120.24 14.946 123.814 11.3143C127.525 7.54286 131.718 4.71429 136.392 2.82857C141.066 0.942857 145.808 0 150.62 0C155.5 0 160.242 0.942857 164.848 2.82857C169.522 4.71429 173.714 7.54286 177.426 11.3143L165.157 23.781C163.164 21.7556 160.895 20.254 158.352 19.2762C155.809 18.2286 153.232 17.7048 150.62 17.7048C148.008 17.7048 145.43 18.2286 142.887 19.2762C140.413 20.254 138.179 21.7556 136.186 23.781C134.261 25.8064 132.783 28.0762 131.752 30.5905C130.721 33.1048 130.206 35.7587 130.206 38.5524C130.206 41.346 130.721 44 131.752 46.5143C132.783 48.9587 134.261 51.1937 136.186 53.219C138.179 55.2444 140.413 56.7809 142.887 57.8286C145.43 58.8063 148.008 59.2952 150.62 59.2952C153.232 59.2952 155.809 58.8063 158.352 57.8286C160.895 56.7809 163.164 55.2444 165.157 53.219L177.426 65.7905C173.714 69.5619 169.556 72.3905 164.951 74.2762C160.346 76.0921 155.569 77 150.62 77Z" fill="white"/>
<path d="M200 74.9222H182.576V2.28731H200V74.9222Z" fill="white"/>
</svg>
