<svg width="40" height="26" viewBox="0 0 40 26" fill="none" xmlns="http://www.w3.org/2000/svg">
<path fill-rule="evenodd" clip-rule="evenodd" d="M0.625 12.6572C0.625 12.2843 0.773148 11.9266 1.03685 11.6629C1.30056 11.3992 1.65822 11.251 2.03116 11.251H35.1968L26.3464 2.40349C26.0824 2.13946 25.9341 1.78134 25.9341 1.40793C25.9341 1.03453 26.0824 0.676413 26.3464 0.412374C26.6105 0.148335 26.9686 8.79778e-09 27.342 0C27.7154 -8.79778e-09 28.0735 0.148335 28.3376 0.412374L39.5868 11.6616C39.7178 11.7923 39.8217 11.9474 39.8926 12.1183C39.9634 12.2891 39.9999 12.4722 39.9999 12.6572C39.9999 12.8422 39.9634 13.0253 39.8926 13.1961C39.8217 13.367 39.7178 13.5221 39.5868 13.6528L28.3376 24.902C28.0735 25.1661 27.7154 25.3144 27.342 25.3144C26.9686 25.3144 26.6105 25.1661 26.3464 24.902C26.0824 24.638 25.9341 24.2799 25.9341 23.9065C25.9341 23.5331 26.0824 23.1749 26.3464 22.9109L35.1968 14.0634H2.03116C1.65822 14.0634 1.30056 13.9152 1.03685 13.6515C0.773148 13.3878 0.625 13.0301 0.625 12.6572Z" fill="#1756c0"/>
</svg>
