<svg width="14" height="14" viewBox="0 0 14 14" fill="none" xmlns="http://www.w3.org/2000/svg">
<path d="M12.4153 10.9322C12.1206 10.2341 11.6928 9.59989 11.1559 9.06504C10.6207 8.52865 9.98662 8.10099 9.28876 7.80567C9.28251 7.80254 9.27626 7.80098 9.27001 7.79785C10.2434 7.09473 10.8763 5.94942 10.8763 4.65723C10.8763 2.5166 9.14188 0.782227 7.00126 0.782227C4.86063 0.782227 3.12626 2.5166 3.12626 4.65723C3.12626 5.94942 3.75907 7.09473 4.73251 7.79942C4.72626 7.80254 4.72001 7.8041 4.71376 7.80723C4.01376 8.10254 3.38563 8.52598 2.84657 9.0666C2.31018 9.60186 1.88252 10.2359 1.5872 10.9338C1.29708 11.617 1.14061 12.3495 1.12626 13.0916C1.12584 13.1083 1.12877 13.1249 1.13486 13.1404C1.14096 13.1559 1.1501 13.1701 1.16175 13.182C1.1734 13.194 1.18732 13.2034 1.20269 13.2099C1.21806 13.2164 1.23458 13.2197 1.25126 13.2197H2.18876C2.25751 13.2197 2.3122 13.165 2.31376 13.0979C2.34501 11.8916 2.82938 10.7619 3.68563 9.90567C4.57157 9.01973 5.74813 8.53223 7.00126 8.53223C8.25438 8.53223 9.43095 9.01973 10.3169 9.90567C11.1731 10.7619 11.6575 11.8916 11.6888 13.0979C11.6903 13.1666 11.745 13.2197 11.8138 13.2197H12.7513C12.7679 13.2197 12.7845 13.2164 12.7998 13.2099C12.8152 13.2034 12.8291 13.194 12.8408 13.182C12.8524 13.1701 12.8616 13.1559 12.8677 13.1404C12.8738 13.1249 12.8767 13.1083 12.8763 13.0916C12.8606 12.3447 12.7059 11.6182 12.4153 10.9322ZM7.00126 7.34473C6.28407 7.34473 5.60907 7.06504 5.10126 6.55723C4.59345 6.04942 4.31376 5.37442 4.31376 4.65723C4.31376 3.94004 4.59345 3.26504 5.10126 2.75723C5.60907 2.24941 6.28407 1.96973 7.00126 1.96973C7.71845 1.96973 8.39345 2.24941 8.90126 2.75723C9.40907 3.26504 9.68876 3.94004 9.68876 4.65723C9.68876 5.37442 9.40907 6.04942 8.90126 6.55723C8.39345 7.06504 7.71845 7.34473 7.00126 7.34473Z" fill="black" fill-opacity="0.25"/>
</svg>
