<svg width="14" height="14" viewBox="0 0 14 14" fill="none" xmlns="http://www.w3.org/2000/svg">
<path d="M12.0018 6.25488H10.9393V2.75488C10.9393 1.6502 10.044 0.754883 8.93933 0.754883H5.06433C3.95964 0.754883 3.06433 1.6502 3.06433 2.75488V6.25488H2.00183C1.72527 6.25488 1.50183 6.47832 1.50183 6.75488V12.7549C1.50183 13.0314 1.72527 13.2549 2.00183 13.2549H12.0018C12.2784 13.2549 12.5018 13.0314 12.5018 12.7549V6.75488C12.5018 6.47832 12.2784 6.25488 12.0018 6.25488ZM4.18933 2.75488C4.18933 2.27207 4.58152 1.87988 5.06433 1.87988H8.93933C9.42214 1.87988 9.81433 2.27207 9.81433 2.75488V6.25488H4.18933V2.75488ZM11.3768 12.1299H2.62683V7.37988H11.3768V12.1299ZM6.56433 9.95801V10.7861C6.56433 10.8549 6.62058 10.9111 6.68933 10.9111H7.31433C7.38308 10.9111 7.43933 10.8549 7.43933 10.7861V9.95801C7.56831 9.86541 7.66458 9.73427 7.71429 9.58347C7.76399 9.43267 7.76456 9.26999 7.71592 9.11884C7.66728 8.9677 7.57194 8.83588 7.44362 8.74237C7.31529 8.64887 7.16061 8.59848 7.00183 8.59848C6.84305 8.59848 6.68837 8.64887 6.56005 8.74237C6.43172 8.83588 6.33638 8.9677 6.28774 9.11884C6.2391 9.26999 6.23967 9.43267 6.28938 9.58347C6.33908 9.73427 6.43535 9.86541 6.56433 9.95801V9.95801Z" fill="black" fill-opacity="0.25"/>
</svg>
