<svg width="432" height="166" viewBox="0 0 432 166" fill="none" xmlns="http://www.w3.org/2000/svg">
<path fill-rule="evenodd" clip-rule="evenodd" d="M97.517 147.741C59.6221 147.741 28.9022 117.021 28.9022 79.1265C28.9022 41.2316 59.6221 10.5117 97.517 10.5117C135.412 10.5117 166.132 41.2316 166.132 79.1265C166.132 97.2456 159.109 113.724 147.636 125.989L165.473 165.555L130.301 139.418C120.56 144.725 109.391 147.741 97.517 147.741Z" fill="#0ABAB5"/>
<path fill-rule="evenodd" clip-rule="evenodd" d="M68.6148 137.23C106.51 137.23 137.23 106.51 137.23 68.6148C137.23 30.7199 106.51 0 68.6148 0C30.7199 0 0 30.7199 0 68.6148C0 86.7352 7.02411 103.215 18.4981 115.48L0.661998 155.044L35.8333 128.907C45.5734 134.214 56.7419 137.23 68.6148 137.23Z" fill="url(#paint0_linear_20_8511)"/>
<path d="M50.7998 59.0485C50.7998 59.0485 52.7791 45.5234 65.3145 45.5234C77.8499 45.5234 79.8292 59.0485 79.8292 59.0485" stroke="white" stroke-width="5.04055" stroke-linecap="round"/>
<path d="M97.6436 57.3994C97.6436 57.3994 99.0831 46.8433 108.2 46.8433C117.316 46.8433 118.756 57.3994 118.756 57.3994" stroke="white" stroke-width="5.04055" stroke-linecap="round"/>
<ellipse cx="34.974" cy="20.3992" rx="21.1123" ry="10.1162" transform="rotate(-35.015 34.974 20.3992)" fill="white"/>
<line x1="36.083" y1="66.2298" x2="30.3105" y2="76.2281" stroke="white" stroke-opacity="0.4" stroke-width="3.34613" stroke-linecap="round"/>
<line x1="42.2138" y1="66.2298" x2="36.4413" y2="76.2281" stroke="white" stroke-opacity="0.4" stroke-width="3.34613" stroke-linecap="round"/>
<line x1="46.5942" y1="69.2645" x2="44.3255" y2="73.194" stroke="white" stroke-opacity="0.4" stroke-width="3.34613" stroke-linecap="round"/>
<line x1="28.2" y1="69.2645" x2="25.9313" y2="73.194" stroke="white" stroke-opacity="0.4" stroke-width="3.34613" stroke-linecap="round"/>
<line x1="126.584" y1="63.8864" x2="122.306" y2="71.295" stroke="white" stroke-opacity="0.4" stroke-width="2.47945" stroke-linecap="round"/>
<line x1="131.128" y1="63.8864" x2="126.851" y2="71.295" stroke="white" stroke-opacity="0.4" stroke-width="2.47945" stroke-linecap="round"/>
<line x1="134.373" y1="66.1349" x2="132.692" y2="69.0466" stroke="white" stroke-opacity="0.4" stroke-width="2.47945" stroke-linecap="round"/>
<line x1="120.744" y1="66.1349" x2="119.063" y2="69.0466" stroke="white" stroke-opacity="0.4" stroke-width="2.47945" stroke-linecap="round"/>
<g filter="url(#filter0_d_20_8511)">
<path fill-rule="evenodd" clip-rule="evenodd" d="M325.703 93.1361C325.564 87.172 325.425 81.2335 325.286 75.2942L325.56 75.2464C325.578 75.2962 325.596 75.346 325.615 75.3959L325.664 75.53C325.758 75.7834 325.852 76.0375 325.935 76.2938C326.347 77.5987 326.76 78.9026 327.173 80.2062L327.174 80.2116L327.175 80.2152L327.181 80.233C328.623 84.7869 330.064 89.3361 331.47 93.9011C331.775 94.866 332.228 95.1789 333.212 95.0225C334.985 94.7356 336.775 94.5096 338.565 94.3314C338.904 94.3281 339.231 94.2076 339.491 93.9905C339.751 93.7733 339.927 93.4729 339.989 93.1405C340.496 91.4989 341.025 89.8596 341.553 88.2214L341.554 88.2187L341.555 88.2159C342.065 86.6332 342.575 85.0515 343.064 83.4698C343.767 81.2007 344.437 78.9057 345.107 76.6122L345.107 76.6117L345.108 76.6111C345.388 75.6496 345.669 74.6884 345.952 73.7295L346.248 73.7556C346.368 78.1963 346.486 82.637 346.605 87.0801L346.606 87.1274L346.607 87.1449C346.898 98.0531 347.189 108.976 347.498 119.949C347.762 119.865 348.013 119.786 348.257 119.71L348.26 119.71L348.261 119.709C348.645 119.59 349.011 119.476 349.375 119.354C354.524 117.577 359.673 115.82 364.824 114.081C365.438 113.873 365.865 113.655 365.822 112.851C365.707 110.785 365.622 108.722 365.537 106.654C365.48 105.26 365.422 103.864 365.355 102.464C364.717 88.4391 364.052 74.4133 363.361 60.386C363.09 55.0788 362.793 49.7736 362.495 44.469C362.347 41.8279 362.199 39.187 362.054 36.5461C362.015 35.855 361.823 35.4855 361.026 35.4203C355.811 34.9886 350.599 34.525 345.39 34.0295C344.571 33.9513 344.206 34.1295 343.922 34.9683C342.206 40.0493 340.434 45.1085 338.639 50.159C338.203 51.3839 337.709 52.5923 337.216 53.7956C336.996 54.3342 336.776 54.8718 336.562 55.4094L336.274 55.379C334.184 48.0452 332.09 40.7143 329.994 33.3862C329.842 33.4139 329.703 33.4402 329.573 33.4648L329.573 33.4648L329.572 33.4649C329.315 33.5136 329.091 33.5559 328.866 33.5905C323.11 34.4644 317.458 35.9207 311.997 37.9369C311.022 38.3064 310.634 38.7931 310.634 39.8884C310.582 46.8209 310.46 53.7578 310.329 60.6903C310.033 76.8328 309.712 92.9724 309.366 109.109C309.327 109.399 309.389 109.694 309.541 109.943C309.693 110.193 309.927 110.384 310.203 110.483C310.959 110.836 311.706 111.21 312.454 111.583C313.894 112.303 315.333 113.022 316.827 113.595C318.921 114.401 321.061 115.089 323.271 115.8C324.252 116.115 325.246 116.435 326.257 116.772C326.07 108.832 325.887 100.994 325.705 93.2008L325.703 93.1361ZM237.178 123.683C232.691 121.944 228.144 120.458 223.14 120.11V91.1498C222.69 91.2373 222.252 91.3181 221.823 91.3971L221.823 91.3972C220.634 91.6164 219.52 91.8219 218.432 92.119C218.105 92.2059 217.739 92.897 217.731 93.3186C217.659 96.9546 217.621 100.593 217.583 104.23L217.583 104.231L217.583 104.232L217.583 104.232L217.583 104.233L217.583 104.234C217.567 105.691 217.552 107.148 217.535 108.605C217.535 110.317 217.535 112.034 217.391 113.738C217.363 113.988 217.28 114.228 217.148 114.442C217.017 114.656 216.839 114.839 216.629 114.977C212.66 116.907 208.481 118.375 204.176 119.354V44.213L217.622 45.6126V77.3413L223.284 76.698C223.291 76.5322 223.301 76.369 223.312 76.2075V76.2074C223.33 75.9033 223.349 75.6052 223.349 75.3072C223.349 67.3011 223.349 59.2907 223.319 51.2846C223.319 50.285 223.571 49.7938 224.521 49.3853C227.203 48.2335 229.862 47.029 232.52 45.8249C233.603 45.3342 234.686 44.8435 235.771 44.3565C236.03 44.2406 236.295 44.1369 236.65 43.9981L236.65 43.998L236.65 43.9979L236.65 43.9979C236.814 43.9338 236.998 43.8622 237.208 43.7784L237.178 123.683ZM200.967 45.4908C200.679 52.5189 200.396 59.3471 200.096 66.1492C200.044 66.1688 199.999 66.1906 199.959 66.2095L199.959 66.2095L199.959 66.2096L199.959 66.2096L199.958 66.2097L199.958 66.2097C199.884 66.2451 199.831 66.2705 199.799 66.2535C196.158 64.4324 193.232 66.0406 190.575 68.3615C187.8 70.7868 186.393 74.0771 185.348 77.489C183.491 83.5347 182.942 89.9051 183.737 96.1785C183.995 98.1258 184.524 100.028 185.309 101.829C186.289 104.102 188.218 104.897 190.692 104.606C194.268 104.172 197.295 102.607 200.165 100.295C200.223 100.558 200.26 100.825 200.279 101.094C200.267 102.72 200.253 104.345 200.239 105.971L200.239 105.973L200.239 105.975L200.239 105.977L200.239 105.98L200.239 105.982L200.239 105.983V105.983V105.983V105.983V105.983C200.206 109.787 200.173 113.591 200.17 117.398C200.215 117.772 200.134 118.152 199.939 118.475C199.745 118.799 199.447 119.048 199.094 119.184C195.57 120.857 191.999 122.27 187.975 121.827C182.426 121.24 178.575 118.15 175.923 113.416C173.271 108.683 171.99 103.559 171.411 98.2604C170.183 86.6251 171.367 75.2636 175.936 64.3846C177.831 59.7267 180.536 55.4402 183.928 51.7235C187.526 47.8639 191.768 45.343 197.195 45.2648C198.017 45.2531 198.846 45.3224 199.703 45.3941C200.116 45.4287 200.537 45.4639 200.967 45.4908ZM254.388 115.792L254.388 115.792L254.388 115.792C255.15 115.924 255.926 116.058 256.721 116.207C256.961 92.8536 256.538 69.7785 255.876 46.5775C251.129 47.7453 246.529 49.4408 242.161 51.6323C241.832 51.7609 241.556 51.9963 241.377 52.3007C241.198 52.6051 241.128 52.9607 241.177 53.3101L241.195 54.1452C241.346 60.8428 241.497 67.5406 241.551 74.2423C241.647 86.447 241.695 98.6488 241.695 110.848C241.695 111.93 241.982 112.495 243.002 112.799C243.846 113.052 244.685 113.332 245.524 113.611L245.524 113.611L245.524 113.611L245.524 113.611L245.524 113.611L245.525 113.611C246.845 114.051 248.164 114.49 249.496 114.825C251.083 115.22 252.7 115.5 254.388 115.792ZM282.795 98.1079L305.121 97.3342V116.654L260.147 117.832C260.098 117.502 260.066 117.17 260.051 116.837C260.057 115.364 260.067 113.892 260.076 112.419C260.098 109.054 260.12 105.689 260.107 102.324C260.079 101.014 260.545 99.742 261.414 98.7599C266.488 92.5575 271.471 86.2857 276.418 79.9878C278.708 77.0746 280.941 74.1221 283.174 71.169L283.175 71.1687L283.177 71.166L283.177 71.165L283.178 71.1641C284.096 69.9508 285.013 68.7374 285.935 67.5267C286.042 67.3882 286.133 67.2384 286.224 67.0904L286.224 67.0902C286.258 67.0338 286.292 66.9777 286.327 66.9225L286.218 66.4879L261.114 68.6176V49.7108C275.922 47.4767 290.831 46.1772 305.926 45.2514V50.1976C305.916 51.0048 305.907 51.8121 305.897 52.6195C305.849 56.6466 305.8 60.6762 305.691 64.7058C305.659 65.4936 305.407 66.2568 304.964 66.9095C297.931 76.8569 290.87 86.7768 283.779 96.6692C283.733 96.7362 283.688 96.8034 283.641 96.8716L283.545 97.0139C283.335 97.3234 283.104 97.6644 282.795 98.1079ZM386.282 37.4977C387.563 63.2849 388.638 88.5809 388.839 114.151C388.253 114.076 387.679 114.017 387.116 113.96C385.921 113.839 384.775 113.723 383.665 113.46C381.011 112.827 378.376 112.128 375.739 111.43L375.739 111.43C374.411 111.078 373.083 110.726 371.752 110.382C370.916 110.165 370.668 109.691 370.65 108.818C370.634 107.828 370.618 106.839 370.601 105.849L370.601 105.848C370.463 97.4661 370.324 89.0822 370.067 80.7052C369.727 69.5828 369.348 58.4604 368.76 47.3467C368.625 44.7953 369.292 43.461 371.691 42.6612C375.004 41.5542 378.295 40.3685 381.672 39.1513L381.673 39.1508C383.189 38.6047 384.722 38.0522 386.282 37.4977ZM414.228 65.1078C415.16 58.2839 421.07 52.199 427.534 51.3297V50.556C427.478 50.4647 427.421 50.374 427.363 50.2832C427.218 50.0545 427.073 49.8251 426.954 49.5824C426.69 49.0413 426.426 48.5002 426.162 47.9591C424.305 44.1538 422.447 40.3485 420.613 36.5433C420.299 35.9 420.051 35.4784 419.18 35.787C414.502 37.469 410.042 39.5944 406.297 42.9107C396.584 51.5209 394.036 62.4999 395.983 74.8567C396.659 79.1473 398.215 83.1759 399.77 87.2014C400.157 88.204 400.544 89.2064 400.918 90.2125C402.838 95.3761 404.371 100.609 404.114 106.203C403.818 112.666 400.774 117.299 394.837 119.968C393.892 120.392 392.913 120.737 391.918 121.088C391.455 121.251 390.989 121.415 390.521 121.589C390.543 121.652 390.564 121.715 390.584 121.777C390.629 121.915 390.673 122.052 390.73 122.18C392.911 127.106 395.089 132.032 397.263 136.958L397.28 136.996C398.3 139.31 398.327 139.37 400.822 138.597C408.736 136.128 415.086 131.634 418.81 124.062C423.792 113.926 423.797 103.413 420.591 92.8117C419.898 90.5234 419.025 88.278 418.15 86.0296C417.501 84.3619 416.852 82.6924 416.275 81.0025C414.524 75.8564 413.483 70.5842 414.228 65.1078Z" fill="url(#paint1_linear_20_8511)"/>
</g>
<g filter="url(#filter1_d_20_8511)">
<path d="M238.472 36.5424C238.472 36.5424 239.679 28.1602 247.32 28.1602C254.962 28.1602 256.168 36.5424 256.168 36.5424" stroke="#FFD600" stroke-width="7.11559" stroke-linecap="round"/>
</g>
<g filter="url(#filter2_d_20_8511)">
<path d="M368.863 27.2289C368.863 27.2289 370.069 18.8467 377.711 18.8467C385.352 18.8467 386.559 27.2289 386.559 27.2289" stroke="#FFD600" stroke-width="7.11559" stroke-linecap="round"/>
</g>
<path d="M191.17 134.012C191.482 134.168 191.662 134.414 191.71 134.75C191.77 135.086 191.686 135.392 191.458 135.668C191.302 135.884 191.098 136.004 190.846 136.028C190.606 136.052 190.36 136.004 190.108 135.884C189.82 135.752 189.514 135.65 189.19 135.578C188.878 135.506 188.548 135.47 188.2 135.47C187.552 135.47 186.97 135.572 186.454 135.776C185.95 135.98 185.518 136.274 185.158 136.658C184.798 137.03 184.522 137.474 184.33 137.99C184.15 138.506 184.06 139.076 184.06 139.7C184.06 140.432 184.162 141.068 184.366 141.608C184.582 142.148 184.876 142.598 185.248 142.958C185.62 143.318 186.058 143.588 186.562 143.768C187.066 143.936 187.612 144.02 188.2 144.02C188.524 144.02 188.848 143.99 189.172 143.93C189.496 143.87 189.808 143.762 190.108 143.606C190.36 143.486 190.606 143.444 190.846 143.48C191.098 143.516 191.308 143.642 191.476 143.858C191.716 144.158 191.8 144.47 191.728 144.794C191.668 145.106 191.488 145.334 191.188 145.478C190.876 145.634 190.552 145.766 190.216 145.874C189.892 145.97 189.562 146.042 189.226 146.09C188.89 146.15 188.548 146.18 188.2 146.18C187.336 146.18 186.514 146.042 185.734 145.766C184.966 145.49 184.276 145.082 183.664 144.542C183.064 144.002 182.59 143.33 182.242 142.526C181.894 141.71 181.72 140.768 181.72 139.7C181.72 138.776 181.876 137.924 182.188 137.144C182.512 136.364 182.962 135.692 183.538 135.128C184.126 134.552 184.816 134.108 185.608 133.796C186.4 133.472 187.264 133.31 188.2 133.31C188.728 133.31 189.244 133.37 189.748 133.49C190.252 133.61 190.726 133.784 191.17 134.012ZM202.797 141.194C202.797 142.178 202.575 143.048 202.131 143.804C201.699 144.548 201.111 145.13 200.367 145.55C199.635 145.97 198.813 146.18 197.901 146.18C196.989 146.18 196.161 145.97 195.417 145.55C194.685 145.13 194.097 144.548 193.653 143.804C193.221 143.048 193.005 142.178 193.005 141.194C193.005 140.21 193.221 139.346 193.653 138.602C194.097 137.846 194.685 137.258 195.417 136.838C196.161 136.406 196.989 136.19 197.901 136.19C198.813 136.19 199.635 136.406 200.367 136.838C201.111 137.258 201.699 137.846 202.131 138.602C202.575 139.346 202.797 140.21 202.797 141.194ZM200.637 141.194C200.637 140.582 200.511 140.054 200.259 139.61C200.019 139.154 199.689 138.8 199.269 138.548C198.861 138.296 198.405 138.17 197.901 138.17C197.397 138.17 196.935 138.296 196.515 138.548C196.107 138.8 195.777 139.154 195.525 139.61C195.285 140.054 195.165 140.582 195.165 141.194C195.165 141.794 195.285 142.322 195.525 142.778C195.777 143.222 196.107 143.57 196.515 143.822C196.935 144.074 197.397 144.2 197.901 144.2C198.405 144.2 198.861 144.074 199.269 143.822C199.689 143.57 200.019 143.222 200.259 142.778C200.511 142.322 200.637 141.794 200.637 141.194ZM209.836 136.19C210.724 136.19 211.396 136.376 211.852 136.748C212.32 137.12 212.638 137.618 212.806 138.242C212.986 138.854 213.076 139.538 213.076 140.294V144.902C213.076 145.214 212.974 145.478 212.77 145.694C212.566 145.898 212.308 146 211.996 146C211.684 146 211.426 145.898 211.222 145.694C211.018 145.478 210.916 145.214 210.916 144.902V140.294C210.916 139.898 210.862 139.544 210.754 139.232C210.658 138.908 210.478 138.65 210.214 138.458C209.95 138.266 209.572 138.17 209.08 138.17C208.6 138.17 208.192 138.266 207.856 138.458C207.532 138.65 207.28 138.908 207.1 139.232C206.932 139.544 206.848 139.898 206.848 140.294V144.902C206.848 145.214 206.746 145.478 206.542 145.694C206.338 145.898 206.08 146 205.768 146C205.456 146 205.198 145.898 204.994 145.694C204.79 145.478 204.688 145.214 204.688 144.902V137.468C204.688 137.156 204.79 136.898 204.994 136.694C205.198 136.478 205.456 136.37 205.768 136.37C206.08 136.37 206.338 136.478 206.542 136.694C206.746 136.898 206.848 137.156 206.848 137.468V138.242L206.578 138.188C206.686 137.984 206.842 137.768 207.046 137.54C207.25 137.3 207.49 137.078 207.766 136.874C208.042 136.67 208.354 136.508 208.702 136.388C209.05 136.256 209.428 136.19 209.836 136.19ZM220.558 136.19C221.446 136.19 222.118 136.376 222.574 136.748C223.042 137.12 223.36 137.618 223.528 138.242C223.708 138.854 223.798 139.538 223.798 140.294V144.902C223.798 145.214 223.696 145.478 223.492 145.694C223.288 145.898 223.03 146 222.718 146C222.406 146 222.148 145.898 221.944 145.694C221.74 145.478 221.638 145.214 221.638 144.902V140.294C221.638 139.898 221.584 139.544 221.476 139.232C221.38 138.908 221.2 138.65 220.936 138.458C220.672 138.266 220.294 138.17 219.802 138.17C219.322 138.17 218.914 138.266 218.578 138.458C218.254 138.65 218.002 138.908 217.822 139.232C217.654 139.544 217.57 139.898 217.57 140.294V144.902C217.57 145.214 217.468 145.478 217.264 145.694C217.06 145.898 216.802 146 216.49 146C216.178 146 215.92 145.898 215.716 145.694C215.512 145.478 215.41 145.214 215.41 144.902V137.468C215.41 137.156 215.512 136.898 215.716 136.694C215.92 136.478 216.178 136.37 216.49 136.37C216.802 136.37 217.06 136.478 217.264 136.694C217.468 136.898 217.57 137.156 217.57 137.468V138.242L217.3 138.188C217.408 137.984 217.564 137.768 217.768 137.54C217.972 137.3 218.212 137.078 218.488 136.874C218.764 136.67 219.076 136.508 219.424 136.388C219.772 136.256 220.15 136.19 220.558 136.19ZM230.669 146.18C229.649 146.18 228.761 145.97 228.005 145.55C227.261 145.118 226.685 144.536 226.277 143.804C225.881 143.072 225.683 142.244 225.683 141.32C225.683 140.24 225.899 139.322 226.331 138.566C226.775 137.798 227.351 137.21 228.059 136.802C228.767 136.394 229.517 136.19 230.309 136.19C230.921 136.19 231.497 136.316 232.037 136.568C232.589 136.82 233.075 137.168 233.495 137.612C233.915 138.044 234.245 138.548 234.485 139.124C234.737 139.7 234.863 140.312 234.863 140.96C234.851 141.248 234.737 141.482 234.521 141.662C234.305 141.842 234.053 141.932 233.765 141.932H226.889L226.349 140.132H232.955L232.559 140.492V140.006C232.535 139.658 232.409 139.346 232.181 139.07C231.965 138.794 231.689 138.578 231.353 138.422C231.029 138.254 230.681 138.17 230.309 138.17C229.949 138.17 229.613 138.218 229.301 138.314C228.989 138.41 228.719 138.572 228.491 138.8C228.263 139.028 228.083 139.334 227.951 139.718C227.819 140.102 227.753 140.588 227.753 141.176C227.753 141.824 227.885 142.376 228.149 142.832C228.425 143.276 228.773 143.618 229.193 143.858C229.625 144.086 230.081 144.2 230.561 144.2C231.005 144.2 231.359 144.164 231.623 144.092C231.887 144.02 232.097 143.936 232.253 143.84C232.421 143.732 232.571 143.642 232.703 143.57C232.919 143.462 233.123 143.408 233.315 143.408C233.579 143.408 233.795 143.498 233.963 143.678C234.143 143.858 234.233 144.068 234.233 144.308C234.233 144.632 234.065 144.926 233.729 145.19C233.417 145.454 232.979 145.688 232.415 145.892C231.851 146.084 231.269 146.18 230.669 146.18ZM241.034 136.19C241.718 136.19 242.312 136.262 242.816 136.406C243.332 136.55 243.728 136.754 244.004 137.018C244.292 137.27 244.436 137.576 244.436 137.936C244.436 138.176 244.364 138.404 244.22 138.62C244.076 138.824 243.866 138.926 243.59 138.926C243.398 138.926 243.236 138.902 243.104 138.854C242.984 138.794 242.876 138.722 242.78 138.638C242.684 138.554 242.57 138.476 242.438 138.404C242.318 138.332 242.132 138.278 241.88 138.242C241.64 138.194 241.46 138.17 241.34 138.17C240.728 138.17 240.206 138.302 239.774 138.566C239.354 138.83 239.03 139.19 238.802 139.646C238.574 140.09 238.46 140.606 238.46 141.194C238.46 141.77 238.574 142.286 238.802 142.742C239.042 143.186 239.366 143.54 239.774 143.804C240.194 144.068 240.674 144.2 241.214 144.2C241.514 144.2 241.772 144.182 241.988 144.146C242.204 144.11 242.384 144.056 242.528 143.984C242.696 143.888 242.846 143.786 242.978 143.678C243.11 143.57 243.308 143.516 243.572 143.516C243.884 143.516 244.124 143.618 244.292 143.822C244.46 144.014 244.544 144.254 244.544 144.542C244.544 144.842 244.376 145.118 244.04 145.37C243.704 145.61 243.26 145.808 242.708 145.964C242.168 146.108 241.58 146.18 240.944 146.18C239.996 146.18 239.174 145.964 238.478 145.532C237.782 145.088 237.242 144.488 236.858 143.732C236.486 142.976 236.3 142.13 236.3 141.194C236.3 140.21 236.498 139.346 236.894 138.602C237.302 137.846 237.86 137.258 238.568 136.838C239.288 136.406 240.11 136.19 241.034 136.19ZM246.21 136.55H250.476C250.764 136.55 251.004 136.646 251.196 136.838C251.388 137.03 251.484 137.27 251.484 137.558C251.484 137.834 251.388 138.068 251.196 138.26C251.004 138.44 250.764 138.53 250.476 138.53H246.21C245.922 138.53 245.682 138.434 245.49 138.242C245.298 138.05 245.202 137.81 245.202 137.522C245.202 137.246 245.298 137.018 245.49 136.838C245.682 136.646 245.922 136.55 246.21 136.55ZM248.136 134.3C248.448 134.3 248.7 134.408 248.892 134.624C249.096 134.828 249.198 135.086 249.198 135.398V143.408C249.198 143.576 249.228 143.714 249.288 143.822C249.36 143.93 249.45 144.008 249.558 144.056C249.678 144.104 249.804 144.128 249.936 144.128C250.08 144.128 250.212 144.104 250.332 144.056C250.452 143.996 250.59 143.966 250.746 143.966C250.914 143.966 251.064 144.044 251.196 144.2C251.34 144.356 251.412 144.572 251.412 144.848C251.412 145.184 251.226 145.46 250.854 145.676C250.494 145.892 250.104 146 249.684 146C249.432 146 249.15 145.982 248.838 145.946C248.538 145.898 248.25 145.796 247.974 145.64C247.71 145.472 247.488 145.22 247.308 144.884C247.128 144.548 247.038 144.086 247.038 143.498V135.398C247.038 135.086 247.14 134.828 247.344 134.624C247.56 134.408 247.824 134.3 248.136 134.3ZM256.203 145.856C256.203 146.252 256.089 146.648 255.861 147.044C255.645 147.452 255.357 147.788 254.997 148.052C254.649 148.328 254.277 148.466 253.881 148.466C253.749 148.466 253.605 148.412 253.449 148.304C253.305 148.196 253.233 148.01 253.233 147.746C253.233 147.47 253.317 147.302 253.485 147.242C253.665 147.194 253.815 147.14 253.935 147.08C254.091 146.996 254.211 146.894 254.295 146.774C254.391 146.666 254.439 146.528 254.439 146.36C254.439 146.228 254.373 146.108 254.241 146C254.121 145.904 253.959 145.856 253.755 145.856C253.683 145.856 253.599 145.868 253.503 145.892C253.407 145.904 253.323 145.934 253.251 145.982C253.131 145.922 253.023 145.85 252.927 145.766C252.843 145.67 252.801 145.52 252.801 145.316C252.801 144.944 252.969 144.626 253.305 144.362C253.653 144.086 254.055 143.948 254.511 143.948C255.027 143.948 255.435 144.122 255.735 144.47C256.047 144.818 256.203 145.28 256.203 145.856ZM267.699 146.18C266.859 146.18 266.103 146.078 265.431 145.874C264.759 145.658 264.117 145.286 263.505 144.758C263.349 144.626 263.229 144.476 263.145 144.308C263.061 144.14 263.019 143.972 263.019 143.804C263.019 143.528 263.115 143.288 263.307 143.084C263.511 142.868 263.763 142.76 264.063 142.76C264.291 142.76 264.495 142.832 264.675 142.976C265.131 143.348 265.581 143.63 266.025 143.822C266.481 144.014 267.039 144.11 267.699 144.11C268.143 144.11 268.551 144.044 268.923 143.912C269.295 143.768 269.595 143.582 269.823 143.354C270.051 143.114 270.165 142.844 270.165 142.544C270.165 142.184 270.057 141.878 269.841 141.626C269.625 141.374 269.295 141.164 268.851 140.996C268.407 140.816 267.843 140.678 267.159 140.582C266.511 140.486 265.941 140.342 265.449 140.15C264.957 139.946 264.543 139.694 264.207 139.394C263.883 139.082 263.637 138.722 263.469 138.314C263.301 137.894 263.217 137.426 263.217 136.91C263.217 136.13 263.415 135.464 263.811 134.912C264.219 134.36 264.765 133.94 265.449 133.652C266.133 133.364 266.889 133.22 267.717 133.22C268.497 133.22 269.217 133.34 269.877 133.58C270.549 133.808 271.095 134.102 271.515 134.462C271.863 134.738 272.037 135.056 272.037 135.416C272.037 135.68 271.935 135.92 271.731 136.136C271.527 136.352 271.287 136.46 271.011 136.46C270.831 136.46 270.669 136.406 270.525 136.298C270.333 136.13 270.075 135.974 269.751 135.83C269.427 135.674 269.085 135.548 268.725 135.452C268.365 135.344 268.029 135.29 267.717 135.29C267.201 135.29 266.763 135.356 266.403 135.488C266.055 135.62 265.791 135.8 265.611 136.028C265.431 136.256 265.341 136.52 265.341 136.82C265.341 137.18 265.443 137.48 265.647 137.72C265.863 137.948 266.169 138.134 266.565 138.278C266.961 138.41 267.435 138.53 267.987 138.638C268.707 138.77 269.337 138.926 269.877 139.106C270.429 139.286 270.885 139.52 271.245 139.808C271.605 140.084 271.875 140.438 272.055 140.87C272.235 141.29 272.325 141.806 272.325 142.418C272.325 143.198 272.109 143.87 271.677 144.434C271.245 144.998 270.675 145.43 269.967 145.73C269.271 146.03 268.515 146.18 267.699 146.18ZM283.551 141.194C283.551 142.178 283.329 143.048 282.885 143.804C282.453 144.548 281.865 145.13 281.121 145.55C280.389 145.97 279.567 146.18 278.655 146.18C277.743 146.18 276.915 145.97 276.171 145.55C275.439 145.13 274.851 144.548 274.407 143.804C273.975 143.048 273.759 142.178 273.759 141.194C273.759 140.21 273.975 139.346 274.407 138.602C274.851 137.846 275.439 137.258 276.171 136.838C276.915 136.406 277.743 136.19 278.655 136.19C279.567 136.19 280.389 136.406 281.121 136.838C281.865 137.258 282.453 137.846 282.885 138.602C283.329 139.346 283.551 140.21 283.551 141.194ZM281.391 141.194C281.391 140.582 281.265 140.054 281.013 139.61C280.773 139.154 280.443 138.8 280.023 138.548C279.615 138.296 279.159 138.17 278.655 138.17C278.151 138.17 277.689 138.296 277.269 138.548C276.861 138.8 276.531 139.154 276.279 139.61C276.039 140.054 275.919 140.582 275.919 141.194C275.919 141.794 276.039 142.322 276.279 142.778C276.531 143.222 276.861 143.57 277.269 143.822C277.689 144.074 278.151 144.2 278.655 144.2C279.159 144.2 279.615 144.074 280.023 143.822C280.443 143.57 280.773 143.222 281.013 142.778C281.265 142.322 281.391 141.794 281.391 141.194ZM289.725 136.19C290.409 136.19 291.003 136.262 291.507 136.406C292.023 136.55 292.419 136.754 292.695 137.018C292.983 137.27 293.127 137.576 293.127 137.936C293.127 138.176 293.055 138.404 292.911 138.62C292.767 138.824 292.557 138.926 292.281 138.926C292.089 138.926 291.927 138.902 291.795 138.854C291.675 138.794 291.567 138.722 291.471 138.638C291.375 138.554 291.261 138.476 291.129 138.404C291.009 138.332 290.823 138.278 290.571 138.242C290.331 138.194 290.151 138.17 290.031 138.17C289.419 138.17 288.897 138.302 288.465 138.566C288.045 138.83 287.721 139.19 287.493 139.646C287.265 140.09 287.151 140.606 287.151 141.194C287.151 141.77 287.265 142.286 287.493 142.742C287.733 143.186 288.057 143.54 288.465 143.804C288.885 144.068 289.365 144.2 289.905 144.2C290.205 144.2 290.463 144.182 290.679 144.146C290.895 144.11 291.075 144.056 291.219 143.984C291.387 143.888 291.537 143.786 291.669 143.678C291.801 143.57 291.999 143.516 292.263 143.516C292.575 143.516 292.815 143.618 292.983 143.822C293.151 144.014 293.235 144.254 293.235 144.542C293.235 144.842 293.067 145.118 292.731 145.37C292.395 145.61 291.951 145.808 291.399 145.964C290.859 146.108 290.271 146.18 289.635 146.18C288.687 146.18 287.865 145.964 287.169 145.532C286.473 145.088 285.933 144.488 285.549 143.732C285.177 142.976 284.991 142.13 284.991 141.194C284.991 140.21 285.189 139.346 285.585 138.602C285.993 137.846 286.551 137.258 287.259 136.838C287.979 136.406 288.801 136.19 289.725 136.19ZM296.827 144.902C296.827 145.214 296.725 145.478 296.521 145.694C296.317 145.898 296.059 146 295.747 146C295.435 146 295.177 145.898 294.973 145.694C294.769 145.478 294.667 145.214 294.667 144.902V137.468C294.667 137.156 294.769 136.898 294.973 136.694C295.177 136.478 295.435 136.37 295.747 136.37C296.059 136.37 296.317 136.478 296.521 136.694C296.725 136.898 296.827 137.156 296.827 137.468V144.902ZM295.729 135.2C295.321 135.2 295.033 135.134 294.865 135.002C294.697 134.87 294.613 134.636 294.613 134.3V133.958C294.613 133.61 294.703 133.376 294.883 133.256C295.075 133.124 295.363 133.058 295.747 133.058C296.167 133.058 296.461 133.124 296.629 133.256C296.797 133.388 296.881 133.622 296.881 133.958V134.3C296.881 134.648 296.791 134.888 296.611 135.02C296.431 135.14 296.137 135.2 295.729 135.2ZM306.931 136.19C307.243 136.19 307.501 136.292 307.705 136.496C307.909 136.7 308.011 136.964 308.011 137.288V144.902C308.011 145.214 307.909 145.478 307.705 145.694C307.501 145.898 307.243 146 306.931 146C306.619 146 306.361 145.898 306.157 145.694C305.953 145.478 305.851 145.214 305.851 144.902V144.02L306.247 144.182C306.247 144.338 306.163 144.53 305.995 144.758C305.827 144.974 305.599 145.19 305.311 145.406C305.023 145.622 304.681 145.808 304.285 145.964C303.901 146.108 303.481 146.18 303.025 146.18C302.197 146.18 301.447 145.97 300.775 145.55C300.103 145.118 299.569 144.53 299.173 143.786C298.789 143.03 298.597 142.166 298.597 141.194C298.597 140.21 298.789 139.346 299.173 138.602C299.569 137.846 300.097 137.258 300.757 136.838C301.417 136.406 302.149 136.19 302.953 136.19C303.469 136.19 303.943 136.268 304.375 136.424C304.807 136.58 305.179 136.778 305.491 137.018C305.815 137.258 306.061 137.504 306.229 137.756C306.409 137.996 306.499 138.2 306.499 138.368L305.851 138.602V137.288C305.851 136.976 305.953 136.718 306.157 136.514C306.361 136.298 306.619 136.19 306.931 136.19ZM303.295 144.2C303.823 144.2 304.285 144.068 304.681 143.804C305.077 143.54 305.383 143.18 305.599 142.724C305.827 142.268 305.941 141.758 305.941 141.194C305.941 140.618 305.827 140.102 305.599 139.646C305.383 139.19 305.077 138.83 304.681 138.566C304.285 138.302 303.823 138.17 303.295 138.17C302.779 138.17 302.323 138.302 301.927 138.566C301.531 138.83 301.219 139.19 300.991 139.646C300.775 140.102 300.667 140.618 300.667 141.194C300.667 141.758 300.775 142.268 300.991 142.724C301.219 143.18 301.531 143.54 301.927 143.804C302.323 144.068 302.779 144.2 303.295 144.2ZM312.69 144.902C312.69 145.214 312.582 145.478 312.366 145.694C312.162 145.898 311.904 146 311.592 146C311.292 146 311.04 145.898 310.836 145.694C310.632 145.478 310.53 145.214 310.53 144.902V133.778C310.53 133.466 310.632 133.208 310.836 133.004C311.052 132.788 311.316 132.68 311.628 132.68C311.94 132.68 312.192 132.788 312.384 133.004C312.588 133.208 312.69 133.466 312.69 133.778V144.902ZM317.235 144.902C317.235 145.214 317.133 145.478 316.929 145.694C316.725 145.898 316.467 146 316.155 146C315.843 146 315.585 145.898 315.381 145.694C315.177 145.478 315.075 145.214 315.075 144.902V137.468C315.075 137.156 315.177 136.898 315.381 136.694C315.585 136.478 315.843 136.37 316.155 136.37C316.467 136.37 316.725 136.478 316.929 136.694C317.133 136.898 317.235 137.156 317.235 137.468V144.902ZM316.137 135.2C315.729 135.2 315.441 135.134 315.273 135.002C315.105 134.87 315.021 134.636 315.021 134.3V133.958C315.021 133.61 315.111 133.376 315.291 133.256C315.483 133.124 315.771 133.058 316.155 133.058C316.575 133.058 316.869 133.124 317.037 133.256C317.205 133.388 317.289 133.622 317.289 133.958V134.3C317.289 134.648 317.199 134.888 317.019 135.02C316.839 135.14 316.545 135.2 316.137 135.2ZM325.593 144.02C325.881 144.02 326.121 144.116 326.313 144.308C326.505 144.488 326.601 144.722 326.601 145.01C326.601 145.286 326.505 145.52 326.313 145.712C326.121 145.904 325.881 146 325.593 146H319.797C319.497 146 319.257 145.892 319.077 145.676C318.897 145.46 318.813 145.244 318.825 145.028C318.837 144.848 318.861 144.692 318.897 144.56C318.933 144.416 319.023 144.254 319.167 144.074L323.649 138.278L323.613 138.53H319.959C319.671 138.53 319.431 138.434 319.239 138.242C319.047 138.05 318.951 137.81 318.951 137.522C318.951 137.246 319.047 137.018 319.239 136.838C319.431 136.646 319.671 136.55 319.959 136.55H325.503C325.779 136.55 326.013 136.652 326.205 136.856C326.397 137.06 326.481 137.318 326.457 137.63C326.445 137.75 326.421 137.87 326.385 137.99C326.361 138.11 326.283 138.254 326.151 138.422L321.741 144.128V144.02H325.593ZM332.534 146.18C331.514 146.18 330.626 145.97 329.87 145.55C329.126 145.118 328.55 144.536 328.142 143.804C327.746 143.072 327.548 142.244 327.548 141.32C327.548 140.24 327.764 139.322 328.196 138.566C328.64 137.798 329.216 137.21 329.924 136.802C330.632 136.394 331.382 136.19 332.174 136.19C332.786 136.19 333.362 136.316 333.902 136.568C334.454 136.82 334.94 137.168 335.36 137.612C335.78 138.044 336.11 138.548 336.35 139.124C336.602 139.7 336.728 140.312 336.728 140.96C336.716 141.248 336.602 141.482 336.386 141.662C336.17 141.842 335.918 141.932 335.63 141.932H328.754L328.214 140.132H334.82L334.424 140.492V140.006C334.4 139.658 334.274 139.346 334.046 139.07C333.83 138.794 333.554 138.578 333.218 138.422C332.894 138.254 332.546 138.17 332.174 138.17C331.814 138.17 331.478 138.218 331.166 138.314C330.854 138.41 330.584 138.572 330.356 138.8C330.128 139.028 329.948 139.334 329.816 139.718C329.684 140.102 329.618 140.588 329.618 141.176C329.618 141.824 329.75 142.376 330.014 142.832C330.29 143.276 330.638 143.618 331.058 143.858C331.49 144.086 331.946 144.2 332.426 144.2C332.87 144.2 333.224 144.164 333.488 144.092C333.752 144.02 333.962 143.936 334.118 143.84C334.286 143.732 334.436 143.642 334.568 143.57C334.784 143.462 334.988 143.408 335.18 143.408C335.444 143.408 335.66 143.498 335.828 143.678C336.008 143.858 336.098 144.068 336.098 144.308C336.098 144.632 335.93 144.926 335.594 145.19C335.282 145.454 334.844 145.688 334.28 145.892C333.716 146.084 333.134 146.18 332.534 146.18ZM341.351 145.856C341.351 146.252 341.237 146.648 341.009 147.044C340.793 147.452 340.505 147.788 340.145 148.052C339.797 148.328 339.425 148.466 339.029 148.466C338.897 148.466 338.753 148.412 338.597 148.304C338.453 148.196 338.381 148.01 338.381 147.746C338.381 147.47 338.465 147.302 338.633 147.242C338.813 147.194 338.963 147.14 339.083 147.08C339.239 146.996 339.359 146.894 339.443 146.774C339.539 146.666 339.587 146.528 339.587 146.36C339.587 146.228 339.521 146.108 339.389 146C339.269 145.904 339.107 145.856 338.903 145.856C338.831 145.856 338.747 145.868 338.651 145.892C338.555 145.904 338.471 145.934 338.399 145.982C338.279 145.922 338.171 145.85 338.075 145.766C337.991 145.67 337.949 145.52 337.949 145.316C337.949 144.944 338.117 144.626 338.453 144.362C338.801 144.086 339.203 143.948 339.659 143.948C340.175 143.948 340.583 144.122 340.883 144.47C341.195 144.818 341.351 145.28 341.351 145.856ZM352.847 146.18C352.007 146.18 351.251 146.078 350.579 145.874C349.907 145.658 349.265 145.286 348.653 144.758C348.497 144.626 348.377 144.476 348.293 144.308C348.209 144.14 348.167 143.972 348.167 143.804C348.167 143.528 348.263 143.288 348.455 143.084C348.659 142.868 348.911 142.76 349.211 142.76C349.439 142.76 349.643 142.832 349.823 142.976C350.279 143.348 350.729 143.63 351.173 143.822C351.629 144.014 352.187 144.11 352.847 144.11C353.291 144.11 353.699 144.044 354.071 143.912C354.443 143.768 354.743 143.582 354.971 143.354C355.199 143.114 355.313 142.844 355.313 142.544C355.313 142.184 355.205 141.878 354.989 141.626C354.773 141.374 354.443 141.164 353.999 140.996C353.555 140.816 352.991 140.678 352.307 140.582C351.659 140.486 351.089 140.342 350.597 140.15C350.105 139.946 349.691 139.694 349.355 139.394C349.031 139.082 348.785 138.722 348.617 138.314C348.449 137.894 348.365 137.426 348.365 136.91C348.365 136.13 348.563 135.464 348.959 134.912C349.367 134.36 349.913 133.94 350.597 133.652C351.281 133.364 352.037 133.22 352.865 133.22C353.645 133.22 354.365 133.34 355.025 133.58C355.697 133.808 356.243 134.102 356.663 134.462C357.011 134.738 357.185 135.056 357.185 135.416C357.185 135.68 357.083 135.92 356.879 136.136C356.675 136.352 356.435 136.46 356.159 136.46C355.979 136.46 355.817 136.406 355.673 136.298C355.481 136.13 355.223 135.974 354.899 135.83C354.575 135.674 354.233 135.548 353.873 135.452C353.513 135.344 353.177 135.29 352.865 135.29C352.349 135.29 351.911 135.356 351.551 135.488C351.203 135.62 350.939 135.8 350.759 136.028C350.579 136.256 350.489 136.52 350.489 136.82C350.489 137.18 350.591 137.48 350.795 137.72C351.011 137.948 351.317 138.134 351.713 138.278C352.109 138.41 352.583 138.53 353.135 138.638C353.855 138.77 354.485 138.926 355.025 139.106C355.577 139.286 356.033 139.52 356.393 139.808C356.753 140.084 357.023 140.438 357.203 140.87C357.383 141.29 357.473 141.806 357.473 142.418C357.473 143.198 357.257 143.87 356.825 144.434C356.393 144.998 355.823 145.43 355.115 145.73C354.419 146.03 353.663 146.18 352.847 146.18ZM364.416 136.19C365.28 136.19 365.934 136.376 366.378 136.748C366.834 137.12 367.146 137.618 367.314 138.242C367.482 138.854 367.566 139.538 367.566 140.294V144.902C367.566 145.214 367.464 145.478 367.26 145.694C367.056 145.898 366.798 146 366.486 146C366.174 146 365.916 145.898 365.712 145.694C365.508 145.478 365.406 145.214 365.406 144.902V140.294C365.406 139.898 365.358 139.544 365.262 139.232C365.166 138.908 364.992 138.65 364.74 138.458C364.488 138.266 364.128 138.17 363.66 138.17C363.204 138.17 362.814 138.266 362.49 138.458C362.166 138.65 361.92 138.908 361.752 139.232C361.596 139.544 361.518 139.898 361.518 140.294V144.902C361.518 145.214 361.416 145.478 361.212 145.694C361.008 145.898 360.75 146 360.438 146C360.126 146 359.868 145.898 359.664 145.694C359.46 145.478 359.358 145.214 359.358 144.902V133.778C359.358 133.466 359.46 133.208 359.664 133.004C359.868 132.788 360.126 132.68 360.438 132.68C360.75 132.68 361.008 132.788 361.212 133.004C361.416 133.208 361.518 133.466 361.518 133.778V138.242L361.248 138.188C361.356 137.984 361.506 137.768 361.698 137.54C361.89 137.3 362.124 137.078 362.4 136.874C362.676 136.67 362.982 136.508 363.318 136.388C363.654 136.256 364.02 136.19 364.416 136.19ZM379.246 141.194C379.246 142.178 379.024 143.048 378.58 143.804C378.148 144.548 377.56 145.13 376.816 145.55C376.084 145.97 375.262 146.18 374.35 146.18C373.438 146.18 372.61 145.97 371.866 145.55C371.134 145.13 370.546 144.548 370.102 143.804C369.67 143.048 369.454 142.178 369.454 141.194C369.454 140.21 369.67 139.346 370.102 138.602C370.546 137.846 371.134 137.258 371.866 136.838C372.61 136.406 373.438 136.19 374.35 136.19C375.262 136.19 376.084 136.406 376.816 136.838C377.56 137.258 378.148 137.846 378.58 138.602C379.024 139.346 379.246 140.21 379.246 141.194ZM377.086 141.194C377.086 140.582 376.96 140.054 376.708 139.61C376.468 139.154 376.138 138.8 375.718 138.548C375.31 138.296 374.854 138.17 374.35 138.17C373.846 138.17 373.384 138.296 372.964 138.548C372.556 138.8 372.226 139.154 371.974 139.61C371.734 140.054 371.614 140.582 371.614 141.194C371.614 141.794 371.734 142.322 371.974 142.778C372.226 143.222 372.556 143.57 372.964 143.822C373.384 144.074 373.846 144.2 374.35 144.2C374.854 144.2 375.31 144.074 375.718 143.822C376.138 143.57 376.468 143.222 376.708 142.778C376.96 142.322 377.086 141.794 377.086 141.194ZM386.123 136.19C386.963 136.19 387.713 136.406 388.373 136.838C389.045 137.258 389.573 137.84 389.957 138.584C390.353 139.328 390.551 140.192 390.551 141.176C390.551 142.16 390.353 143.03 389.957 143.786C389.573 144.53 389.051 145.118 388.391 145.55C387.743 145.97 387.011 146.18 386.195 146.18C385.715 146.18 385.265 146.102 384.845 145.946C384.425 145.79 384.053 145.592 383.729 145.352C383.417 145.112 383.171 144.872 382.991 144.632C382.823 144.38 382.739 144.17 382.739 144.002L383.297 143.768V148.502C383.297 148.814 383.195 149.072 382.991 149.276C382.787 149.492 382.529 149.6 382.217 149.6C381.905 149.6 381.647 149.498 381.443 149.294C381.239 149.09 381.137 148.826 381.137 148.502V137.468C381.137 137.156 381.239 136.898 381.443 136.694C381.647 136.478 381.905 136.37 382.217 136.37C382.529 136.37 382.787 136.478 382.991 136.694C383.195 136.898 383.297 137.156 383.297 137.468V138.35L382.991 138.188C382.991 138.032 383.075 137.846 383.243 137.63C383.411 137.402 383.639 137.18 383.927 136.964C384.215 136.736 384.545 136.55 384.917 136.406C385.301 136.262 385.703 136.19 386.123 136.19ZM385.853 138.17C385.325 138.17 384.863 138.302 384.467 138.566C384.071 138.83 383.759 139.19 383.531 139.646C383.315 140.09 383.207 140.6 383.207 141.176C383.207 141.74 383.315 142.256 383.531 142.724C383.759 143.18 384.071 143.54 384.467 143.804C384.863 144.068 385.325 144.2 385.853 144.2C386.381 144.2 386.837 144.068 387.221 143.804C387.617 143.54 387.923 143.18 388.139 142.724C388.367 142.256 388.481 141.74 388.481 141.176C388.481 140.6 388.367 140.09 388.139 139.646C387.923 139.19 387.617 138.83 387.221 138.566C386.837 138.302 386.381 138.17 385.853 138.17Z" fill="#1C1E21"/>
<defs>
<filter id="filter0_d_20_8511" x="170.957" y="33.3862" width="260.135" height="109.214" filterUnits="userSpaceOnUse" color-interpolation-filters="sRGB">
<feFlood flood-opacity="0" result="BackgroundImageFix"/>
<feColorMatrix in="SourceAlpha" type="matrix" values="0 0 0 0 0 0 0 0 0 0 0 0 0 0 0 0 0 0 127 0" result="hardAlpha"/>
<feOffset dx="3.5578" dy="3.5578"/>
<feComposite in2="hardAlpha" operator="out"/>
<feColorMatrix type="matrix" values="0 0 0 0 0.964706 0 0 0 0 0.463059 0 0 0 0 0 0 0 0 1 0"/>
<feBlend mode="normal" in2="BackgroundImageFix" result="effect1_dropShadow_20_8511"/>
<feBlend mode="normal" in="SourceGraphic" in2="effect1_dropShadow_20_8511" result="shape"/>
</filter>
<filter id="filter1_d_20_8511" x="234.914" y="24.6025" width="28.3701" height="19.0558" filterUnits="userSpaceOnUse" color-interpolation-filters="sRGB">
<feFlood flood-opacity="0" result="BackgroundImageFix"/>
<feColorMatrix in="SourceAlpha" type="matrix" values="0 0 0 0 0 0 0 0 0 0 0 0 0 0 0 0 0 0 127 0" result="hardAlpha"/>
<feOffset dx="3.5578" dy="3.5578"/>
<feComposite in2="hardAlpha" operator="out"/>
<feColorMatrix type="matrix" values="0 0 0 0 0.964706 0 0 0 0 0.463059 0 0 0 0 0 0 0 0 1 0"/>
<feBlend mode="normal" in2="BackgroundImageFix" result="effect1_dropShadow_20_8511"/>
<feBlend mode="normal" in="SourceGraphic" in2="effect1_dropShadow_20_8511" result="shape"/>
</filter>
<filter id="filter2_d_20_8511" x="365.304" y="15.2891" width="28.3701" height="19.0558" filterUnits="userSpaceOnUse" color-interpolation-filters="sRGB">
<feFlood flood-opacity="0" result="BackgroundImageFix"/>
<feColorMatrix in="SourceAlpha" type="matrix" values="0 0 0 0 0 0 0 0 0 0 0 0 0 0 0 0 0 0 127 0" result="hardAlpha"/>
<feOffset dx="3.5578" dy="3.5578"/>
<feComposite in2="hardAlpha" operator="out"/>
<feColorMatrix type="matrix" values="0 0 0 0 0.964706 0 0 0 0 0.463059 0 0 0 0 0 0 0 0 1 0"/>
<feBlend mode="normal" in2="BackgroundImageFix" result="effect1_dropShadow_20_8511"/>
<feBlend mode="normal" in="SourceGraphic" in2="effect1_dropShadow_20_8511" result="shape"/>
</filter>
<linearGradient id="paint0_linear_20_8511" x1="68.6148" y1="0" x2="68.6148" y2="155.044" gradientUnits="userSpaceOnUse">
<stop stop-color="#FFD600"/>
<stop offset="1" stop-color="#F69400"/>
</linearGradient>
<linearGradient id="paint1_linear_20_8511" x1="299.245" y1="33.3862" x2="299.245" y2="139.042" gradientUnits="userSpaceOnUse">
<stop stop-color="#FFD600"/>
<stop offset="1" stop-color="#FFA800"/>
</linearGradient>
</defs>
</svg>
