<?xml version="1.0" ?><svg viewBox="0 0 32 32" xmlns="http://www.w3.org/2000/svg"><defs><style>.cls-1{fill:none;stroke:#000;stroke-linejoin:round;stroke-width:2px;}.cls-2{fill:none;stroke:#4c97ac;stroke-linejoin:round;stroke-width:2px;}</style></defs><title/><g data-name="490-Server" id="_490-Server"><rect class="cls-1" height="10" width="30" x="1" y="1"/><polyline class="cls-1" points="1 21 1 11 31 11 31 19"/><polyline class="cls-1" points="17 31 1 31 1 21 18 21"/><line class="cls-2" x1="10" x2="4" y1="6" y2="6"/><line class="cls-2" x1="5" x2="23" y1="16" y2="16"/><line class="cls-2" x1="25" x2="27" y1="16" y2="16"/><line class="cls-2" x1="5" x2="7" y1="26" y2="26"/><line class="cls-2" x1="9" x2="11" y1="26" y2="26"/><line class="cls-2" x1="13" x2="15" y1="26" y2="26"/><line class="cls-2" x1="12" x2="14" y1="6" y2="6"/><line class="cls-2" x1="16" x2="18" y1="6" y2="6"/><line class="cls-2" x1="20" x2="22" y1="6" y2="6"/><line class="cls-2" x1="24" x2="26" y1="6" y2="6"/><rect class="cls-2" height="6" width="8" x="21" y="25"/><polyline class="cls-2" points="23 25 23 21 27 21 27 22"/></g></svg>