<svg 
 xmlns="http://www.w3.org/2000/svg"
 xmlns:xlink="http://www.w3.org/1999/xlink"
 width="100%" height="100%" viewBox="0 0 734 552">
<path fill-rule="evenodd"  fill="rgb(76, 151, 172)"
 d="M263.000,484.000 L591.000,484.000 L553.000,551.000 L225.000,551.000 L263.000,484.000 Z"/>
<path fill-rule="evenodd"  fill="rgb(76, 151, 172)"
 d="M320.000,387.000 L734.000,387.000 L696.000,454.000 L282.000,454.000 L320.000,387.000 Z"/>
<path fill-rule="evenodd"  fill="rgb(38, 98, 126)"
 d="M530.740,359.994 L366.740,75.938 L443.764,75.347 L607.764,359.403 L530.740,359.994 Z"/>
<path fill-rule="evenodd"  fill="rgb(38, 98, 126)"
 d="M418.236,359.131 L211.236,0.597 L288.260,0.005 L495.260,358.540 L418.236,359.131 Z"/>
<path fill-rule="evenodd"  fill="rgb(133, 156, 170)"
 d="M190.764,551.131 L343.000,288.000 L305.000,222.000 L113.740,550.540 L190.764,551.131 Z"/>
<path fill-rule="evenodd"  fill="rgb(133, 156, 170)"
 d="M77.764,551.131 L287.000,191.000 L249.000,125.000 L0.740,550.540 L77.764,551.131 Z"/>
</svg>