<svg width="128" height="128" viewBox="0 0 128 128" fill="none" xmlns="http://www.w3.org/2000/svg">
<path d="M14 64C14 36.3858 36.3858 14 64 14C91.6142 14 114 36.3858 114 64C114 91.6142 91.6142 114 64 114C36.3858 114 14 91.6142 14 64Z" fill="#333333"/>
<path d="M54 93.9998C59.5229 93.9998 64 89.5227 64 83.9998V73.9998H54C48.4771 73.9998 44 78.477 44 83.9998C44 89.5227 48.4771 93.9998 54 93.9998Z" fill="#0ACF83"/>
<path d="M44 64C44 58.4771 48.4771 54 54 54H64V74H54C48.4771 74 44 69.5227 44 64Z" fill="#A259FF"/>
<path d="M44 44C44 38.4771 48.4771 34 54 34H64V54H54C48.4771 54 44 49.5227 44 44Z" fill="#F24E1E"/>
<path d="M64 34H74C79.5229 34 84 38.4771 84 44C84 49.5227 79.5229 54 74 54H64V34Z" fill="#FF7262"/>
<path d="M84 64C84 69.5227 79.5229 74 74 74C68.4771 74 64 69.5227 64 64C64 58.4771 68.4771 54 74 54C79.5229 54 84 58.4771 84 64Z" fill="#1ABCFE"/>
</svg>
