<?xml version="1.0" ?><!DOCTYPE svg  PUBLIC '-//W3C//DTD SVG 1.1//EN'  'http://www.w3.org/Graphics/SVG/1.1/DTD/svg11.dtd'><svg id="Lager_1" style="enable-background:new 0 0 128 128;" version="1.1" viewBox="0 0 128 128" xml:space="preserve" xmlns="http://www.w3.org/2000/svg" xmlns:xlink="http://www.w3.org/1999/xlink"><circle class="cls-1" cx="64" cy="64" r="50" style="fill:#f05133;"/><path class="cls-2" d="M92.5,61.48,67,36a3.77,3.77,0,0,0-5.31,0l-5.29,5.3L63.15,48A4.46,4.46,0,0,1,68.8,53.7l6.47,6.46a4.47,4.47,0,1,1-2.68,2.52l-6-6V72.52a4.47,4.47,0,1,1-3.67-.13v-16a4.46,4.46,0,0,1-2.44-5.82v0L53.84,43.9,36.38,61.36a3.75,3.75,0,0,0,0,5.31h0L61.85,92.14a3.75,3.75,0,0,0,5.31,0h0L92.5,66.79a3.75,3.75,0,0,0,0-5.31Z" style="fill:#fff;"/></svg>