<svg id="Lager_1" data-name="Lager 1" xmlns="http://www.w3.org/2000/svg" viewBox="0 0 100 100"><defs><style>.cls-1{fill:#f05133;}.cls-2{fill:#fff;}</style></defs><circle class="cls-1" cx="50" cy="50" r="50"/><path class="cls-2" d="M92.5,61.48,67,36a3.77,3.77,0,0,0-5.31,0l-5.29,5.3L63.15,48A4.46,4.46,0,0,1,68.8,53.7l6.47,6.46a4.47,4.47,0,1,1-2.68,2.52l-6-6V72.52a4.47,4.47,0,1,1-3.67-.13v-16a4.46,4.46,0,0,1-2.44-5.82v0L53.84,43.9,36.38,61.36a3.75,3.75,0,0,0,0,5.31h0L61.85,92.14a3.75,3.75,0,0,0,5.31,0h0L92.5,66.79a3.75,3.75,0,0,0,0-5.31Z" transform="translate(-14 -14)"/></svg>