<svg width="184" height="103" viewBox="0 0 184 103" fill="none" xmlns="http://www.w3.org/2000/svg">
<path d="M11.1709 76.1895C13.391 76.1895 14.501 76.7546 14.501 77.8848C14.501 78.7324 13.8854 79.7214 12.6543 80.8516C10.8177 82.5267 8.34538 83.8688 5.2373 84.8779C5.09603 84.8779 4.93457 84.7367 4.75293 84.4541C4.59147 84.1715 4.46029 83.9596 4.35938 83.8184C4.27865 83.6569 4.2181 83.556 4.17773 83.5156C6.4987 82.7487 8.40592 81.8203 9.89941 80.7305C10.9085 80.0039 11.4131 79.4085 11.4131 78.9443C11.4131 78.4801 10.8177 78.248 9.62695 78.248C8.4362 78.248 6.69043 78.5306 4.38965 79.0957C3.34017 79.0553 2.43197 78.682 1.66504 77.9756C0.999023 77.3499 0.666016 76.7243 0.666016 76.0986C0.666016 75.4528 0.847656 74.8675 1.21094 74.3428C1.57422 73.7979 2.05859 73.2933 2.66406 72.8291C3.26953 72.3649 3.97591 71.9411 4.7832 71.5576C6.76107 70.609 8.80957 70.1348 10.9287 70.1348C11.5544 70.1348 12.1598 70.1953 12.7451 70.3164C13.2295 70.3164 13.512 70.5283 13.5928 70.9521C13.6735 71.376 13.7139 72.0723 13.7139 73.041C12.5231 72.4961 11.181 72.2236 9.6875 72.2236C7.83073 72.2236 6.29688 72.597 5.08594 73.3438C3.83464 74.0703 3.1888 75.0189 3.14844 76.1895C3.14844 76.7546 3.56217 77.0371 4.38965 77.0371L6.59961 76.7949C8.49674 76.3913 10.0205 76.1895 11.1709 76.1895ZM19.375 78.4902L19.5264 81.124C19.5264 82.7386 19.1429 83.7174 18.376 84.0605C18.2145 84.1211 18.0228 84.1514 17.8008 84.1514C17.5788 84.1514 17.3164 84.1009 17.0137 84L17.0439 72.6777C17.0439 71.043 16.943 69.4082 16.7412 67.7734C16.5596 66.1185 16.4688 64.4736 16.4688 62.8389C16.4688 62.193 16.8118 61.8701 17.498 61.8701H17.7402C17.8815 61.8701 17.9723 61.8802 18.0127 61.9004C18.3154 63.1517 18.5173 64.6654 18.6182 66.4414C18.8402 70.377 19.042 73.0208 19.2236 74.373C19.5667 74.1914 20.3337 73.6768 21.5244 72.8291C22.7152 71.9814 23.6738 71.3053 24.4004 70.8008C25.127 70.276 25.8132 69.7917 26.459 69.3477C27.9727 68.3587 28.9212 67.8643 29.3047 67.8643C29.6276 67.8643 29.8799 68.056 30.0615 68.4395C29.0524 69.7109 27.4277 71.1237 25.1875 72.6777C24.2793 73.3034 23.3711 73.929 22.4629 74.5547C21.5749 75.1602 20.7575 75.7959 20.0107 76.4619C21.363 76.8252 22.6445 77.2087 23.8555 77.6123C25.0664 77.9958 26.237 78.349 27.3672 78.6719C29.9707 79.4388 32.2109 79.8727 34.0879 79.9736C34.0879 80.5186 34.0374 80.8717 33.9365 81.0332C33.7549 81.3158 33.3815 81.4772 32.8164 81.5176H32.5742C31.3431 81.1745 29.7083 80.791 27.6699 80.3672C23.6536 79.5397 20.8887 78.9141 19.375 78.4902ZM38.1445 69.7715C38.4069 73.5456 38.6289 77.915 38.8105 82.8799C38.6895 83.5055 38.2051 83.8184 37.3574 83.8184C37.1354 83.8184 36.9033 83.778 36.6611 83.6973C36.4391 83.5964 36.2979 83.4652 36.2373 83.3037V69.7715H38.1445ZM35.3291 65.6543C35.3291 64.9479 35.7428 64.5947 36.5703 64.5947C37.1152 64.5947 37.5592 64.7158 37.9023 64.958C37.9629 65.18 37.9932 65.402 37.9932 65.624C37.9932 65.8258 37.9124 66.0277 37.751 66.2295C37.5895 66.4313 37.3473 66.5322 37.0244 66.5322C36.7015 66.5322 36.3786 66.4616 36.0557 66.3203C35.7327 66.1589 35.4906 65.9368 35.3291 65.6543ZM40.6572 72.2539C40.6169 71.1641 40.5765 70.1953 40.5361 69.3477C40.4958 68.4798 40.4655 67.8441 40.4453 67.4404C40.4453 67.0166 40.2839 65.9974 39.9609 64.3828C40.1426 64.1406 40.3141 63.9085 40.4756 63.6865C40.6572 63.4645 40.9095 63.3535 41.2324 63.3535C41.9388 63.3535 42.4837 66.3304 42.8672 72.2842C43.069 75.7354 43.1699 79.1865 43.1699 82.6377C43.1699 83.5661 42.5241 84.0303 41.2324 84.0303L40.9902 84C40.9902 82.9505 40.96 81.6084 40.8994 79.9736C40.8389 78.3389 40.7884 76.916 40.748 75.7051C40.7279 74.4941 40.6976 73.3438 40.6572 72.2539ZM45.5312 72.2539C45.4909 71.1641 45.4505 70.1953 45.4102 69.3477C45.3698 68.4798 45.3395 67.8441 45.3193 67.4404C45.3193 67.0166 45.1579 65.9974 44.835 64.3828C45.0166 64.1406 45.1882 63.9085 45.3496 63.6865C45.5312 63.4645 45.7835 63.3535 46.1064 63.3535C46.8128 63.3535 47.3577 66.3304 47.7412 72.2842C47.943 75.7354 48.0439 79.1865 48.0439 82.6377C48.0439 83.5661 47.3981 84.0303 46.1064 84.0303L45.8643 84C45.8643 82.9505 45.834 81.6084 45.7734 79.9736C45.7129 78.3389 45.6624 76.916 45.6221 75.7051C45.6019 74.4941 45.5716 73.3438 45.5312 72.2539ZM72.626 76.1895C74.846 76.1895 75.9561 76.7546 75.9561 77.8848C75.9561 78.7324 75.3405 79.7214 74.1094 80.8516C72.2728 82.5267 69.8005 83.8688 66.6924 84.8779C66.5511 84.8779 66.3896 84.7367 66.208 84.4541C66.0465 84.1715 65.9154 83.9596 65.8145 83.8184C65.7337 83.6569 65.6732 83.556 65.6328 83.5156C67.9538 82.7487 69.861 81.8203 71.3545 80.7305C72.3636 80.0039 72.8682 79.4085 72.8682 78.9443C72.8682 78.4801 72.2728 78.248 71.082 78.248C69.8913 78.248 68.1455 78.5306 65.8447 79.0957C64.7952 79.0553 63.887 78.682 63.1201 77.9756C62.4541 77.3499 62.1211 76.7243 62.1211 76.0986C62.1211 75.4528 62.3027 74.8675 62.666 74.3428C63.0293 73.7979 63.5137 73.2933 64.1191 72.8291C64.7246 72.3649 65.431 71.9411 66.2383 71.5576C68.2161 70.609 70.2646 70.1348 72.3838 70.1348C73.0094 70.1348 73.6149 70.1953 74.2002 70.3164C74.6846 70.3164 74.9671 70.5283 75.0479 70.9521C75.1286 71.376 75.1689 72.0723 75.1689 73.041C73.9782 72.4961 72.6361 72.2236 71.1426 72.2236C69.2858 72.2236 67.752 72.597 66.541 73.3438C65.2897 74.0703 64.6439 75.0189 64.6035 76.1895C64.6035 76.7546 65.0173 77.0371 65.8447 77.0371L68.0547 76.7949C69.9518 76.3913 71.4756 76.1895 72.626 76.1895ZM84.0088 81.8809C85.7848 81.8809 88.459 81.0736 92.0312 79.459C92.2533 79.459 92.4349 79.5397 92.5762 79.7012C92.7174 79.8424 92.7881 80.014 92.7881 80.2158C91.9808 81.5882 90.4368 82.6579 88.1562 83.4248C85.8757 84.1917 83.7464 84.3229 81.7686 83.8184C79.5283 83.2331 78.166 81.9717 77.6816 80.0342C77.6413 79.6507 77.6211 79.1361 77.6211 78.4902C77.6211 77.8444 77.7826 76.9967 78.1055 75.9473C78.4486 74.8776 79.0238 73.8685 79.8311 72.9199C80.6383 71.9714 81.5869 71.2246 82.6768 70.6797C83.7666 70.1348 84.9271 69.8623 86.1582 69.8623C87.3288 69.8623 88.6406 70.266 90.0938 71.0732C90.7799 71.4567 91.3249 71.8906 91.7285 72.375C92.1322 72.8594 92.334 73.3538 92.334 73.8584C92.334 73.9997 92.3239 74.141 92.3037 74.2822C92.2633 75.5133 91.668 76.2904 90.5176 76.6133C90.013 76.7546 89.4277 76.8252 88.7617 76.8252L84.4023 76.6436C82.9492 76.6436 81.8392 76.9564 81.0723 77.582C80.6283 77.9251 80.3154 78.4398 80.1338 79.126C80.6383 80.9626 81.93 81.8809 84.0088 81.8809ZM89.3975 72.5264C88.9535 72.2035 88.4893 71.9714 88.0049 71.8301C87.5205 71.6888 87.1169 71.6182 86.7939 71.6182C86.471 71.6182 85.9463 71.7292 85.2197 71.9512C84.4932 72.153 83.8473 72.3851 83.2822 72.6475C81.8896 73.2933 81.1934 73.9694 81.1934 74.6758C82.8079 74.8171 84.0189 74.8877 84.8262 74.8877C87.0664 74.8877 88.5801 74.696 89.3672 74.3125C89.8516 74.1107 90.0938 73.8584 90.0938 73.5557C90.0938 73.1924 89.8617 72.8493 89.3975 72.5264ZM99.1758 81.0938L99.2363 76.25C99.2363 75.4831 99.1657 74.8271 99.0244 74.2822H94.332L94.2715 72.1934H98.8125V64.3828C98.873 64.2012 98.9941 64.0195 99.1758 63.8379C99.4583 63.5553 99.6904 63.4141 99.8721 63.4141C100.074 63.4141 100.245 63.4342 100.387 63.4746C100.528 63.515 100.679 63.6562 100.841 63.8984C101.164 65.2305 101.325 67.2386 101.325 69.9229C101.325 70.5889 101.355 71.2448 101.416 71.8906C102.062 71.8099 102.708 71.7695 103.354 71.7695C103.354 71.7695 103.878 71.7695 104.928 71.7695C105.311 71.7695 105.664 71.7493 105.987 71.709L105.896 73.8887L101.477 73.7676L101.628 84.2119C101.265 84.3734 100.952 84.4541 100.689 84.4541C99.6803 84.4541 99.1758 83.334 99.1758 81.0938Z" fill="#212529"/>
<path d="M179.649 54.2054C180.182 54.3484 180.73 54.0318 180.873 53.4983L183.203 44.805C183.346 44.2715 183.029 43.7232 182.496 43.5802C181.962 43.4373 181.414 43.7539 181.271 44.2873L179.2 52.0148L171.473 49.9442C170.939 49.8013 170.391 50.1178 170.248 50.6513C170.105 51.1848 170.422 51.7331 170.955 51.8761L179.649 54.2054ZM64.7378 52.76C65.4726 53.4383 65.4726 53.4383 65.4726 53.4384C65.4726 53.4384 65.4726 53.4384 65.4725 53.4384C65.4725 53.4384 65.4725 53.4385 65.4725 53.4385C65.4725 53.4385 65.4725 53.4385 65.4725 53.4385C65.4725 53.4384 65.4727 53.4382 65.473 53.4379C65.4736 53.4373 65.4746 53.4362 65.4761 53.4346C65.479 53.4315 65.4837 53.4264 65.4903 53.4194C65.5033 53.4054 65.5235 53.3838 65.5508 53.355C65.6054 53.2972 65.6884 53.2103 65.799 53.0961C66.0204 52.8678 66.3528 52.531 66.7915 52.1024L65.394 50.6717C64.9417 51.1135 64.5966 51.4632 64.3633 51.7038C64.2466 51.8241 64.1579 51.9171 64.0977 51.9808C64.0675 52.0127 64.0446 52.0372 64.0288 52.0541C64.0209 52.0625 64.0148 52.0691 64.0105 52.0737C64.0083 52.076 64.0066 52.0779 64.0054 52.0792C64.0048 52.0799 64.0043 52.0804 64.0039 52.0808C64.0037 52.0811 64.0035 52.0812 64.0034 52.0814C64.0033 52.0815 64.0032 52.0815 64.0032 52.0816C64.0032 52.0816 64.0031 52.0817 64.0031 52.0817C64.0031 52.0817 64.003 52.0817 64.7378 52.76ZM69.6106 49.4848C70.4688 48.7234 71.4531 47.8787 72.5571 46.9748L71.2902 45.4273C70.1645 46.3489 69.16 47.2108 68.2833 47.9887L69.6106 49.4848ZM75.5863 44.5879C76.5615 43.8482 77.6008 43.0867 78.7012 42.3137L77.5516 40.6771C76.4303 41.4648 75.3714 42.2407 74.3776 42.9944L75.5863 44.5879ZM81.8933 40.1575C82.9434 39.4761 84.0374 38.793 85.1736 38.1149L84.1487 36.3975C82.9901 37.0889 81.8748 37.7853 80.8045 38.4798L81.8933 40.1575ZM88.5187 36.2049C89.6277 35.5999 90.7703 35.0044 91.9451 34.4233L91.0585 32.6306C89.8588 33.2239 88.6925 33.8318 87.5609 34.4491L88.5187 36.2049ZM95.4284 32.7892C96.5869 32.2749 97.7725 31.7777 98.9841 31.3017L98.2526 29.4402C97.0133 29.9272 95.8011 30.4356 94.617 30.9612L95.4284 32.7892ZM102.6 29.9736C103.8 29.5636 105.022 29.1764 106.266 28.8156L105.709 26.8948C104.434 27.2646 103.182 27.6612 101.953 28.081L102.6 29.9736ZM109.985 27.8337C111.221 27.5396 112.476 27.2731 113.749 27.0373L113.385 25.0708C112.078 25.3128 110.79 25.5863 109.522 25.888L109.985 27.8337ZM117.545 26.4355C118.802 26.2698 120.075 26.1354 121.362 26.0351L121.207 24.0411C119.883 24.1443 118.575 24.2824 117.284 24.4527L117.545 26.4355ZM125.196 25.8407C125.835 25.8257 126.478 25.8194 127.123 25.8221L127.132 23.8221C126.467 23.8193 125.807 23.8258 125.149 23.8412L125.196 25.8407ZM127.123 25.8221C127.776 25.8248 128.422 25.8367 129.062 25.8573L129.126 23.8584C128.468 23.8371 127.803 23.8249 127.132 23.8221L127.123 25.8221ZM132.898 26.0912C134.197 26.2083 135.467 26.3619 136.707 26.5488L137.005 24.5711C135.726 24.3783 134.416 24.22 133.078 24.0993L132.898 26.0912ZM140.498 27.2393C141.775 27.5131 143.018 27.822 144.229 28.1621L144.77 26.2366C143.52 25.8854 142.235 25.5664 140.917 25.2837L140.498 27.2393ZM147.884 29.315C149.119 29.7483 150.316 30.2131 151.475 30.7045L152.256 28.8633C151.059 28.3556 149.822 27.8753 148.545 27.4277L147.884 29.315ZM154.956 32.3132C156.129 32.9011 157.257 33.5141 158.341 34.1457L159.348 32.4176C158.229 31.7655 157.063 31.1324 155.852 30.5252L154.956 32.3132ZM161.597 36.1805C162.693 36.9135 163.735 37.6608 164.725 38.4137L165.936 36.822C164.915 36.0455 163.84 35.2745 162.709 34.5181L161.597 36.1805ZM167.716 40.8359C168.733 41.7108 169.679 42.5803 170.556 43.4306L171.948 41.9952C171.045 41.1185 170.069 40.222 169.021 39.32L167.716 40.8359ZM173.228 46.1833C174.185 47.2306 175.021 48.2166 175.739 49.1092L177.298 47.8563C176.556 46.9329 175.692 45.9145 174.704 44.834L173.228 46.1833ZM178.032 52.1805C178.376 52.6813 178.632 53.076 178.799 53.3432C178.883 53.4767 178.945 53.5783 178.985 53.6453C179.006 53.6788 179.02 53.7036 179.03 53.7194C179.034 53.7273 179.038 53.733 179.039 53.7363C179.04 53.738 179.041 53.7391 179.041 53.7397C179.042 53.7399 179.042 53.74 179.042 53.74C179.042 53.74 179.042 53.74 179.042 53.7399C179.042 53.7398 179.041 53.7398 179.041 53.7397C179.041 53.7397 179.041 53.7396 179.041 53.7396C179.041 53.7396 179.041 53.7395 179.907 53.2395C180.773 52.7395 180.773 52.7394 180.773 52.7394C180.773 52.7394 180.773 52.7393 180.773 52.7392C180.773 52.7391 180.773 52.739 180.773 52.7389C180.773 52.7387 180.773 52.7384 180.773 52.7381C180.772 52.7375 180.772 52.7367 180.771 52.7358C180.77 52.734 180.769 52.7317 180.767 52.7287C180.764 52.7228 180.759 52.7145 180.753 52.704C180.74 52.683 180.722 52.653 180.699 52.6142C180.652 52.5367 180.584 52.4242 180.493 52.2796C180.311 51.9905 180.041 51.5727 179.681 51.048L178.032 52.1805Z" fill="#212529"/>
</svg>
