<svg id="Layer_1" data-name="Layer 1" xmlns="http://www.w3.org/2000/svg" xmlns:xlink="http://www.w3.org/1999/xlink" viewBox="0 0 3501.41 1004.87"><defs><style>.cls-1{fill:url(#linear-gradient);}.cls-2,.cls-3{fill:none;stroke:#fff;stroke-miterlimit:10;stroke-width:2px;opacity:0.15;}.cls-2{isolation:isolate;}.cls-4{fill:#fff;fill-rule:evenodd;opacity:0.2;}</style><linearGradient id="linear-gradient" x1="1750.71" y1="1000" x2="1750.71" y2="153.13" gradientTransform="matrix(1, 0, 0, -1, 0, 1000)" gradientUnits="userSpaceOnUse"><stop offset="0" stop-color="#24cb85"/><stop offset="1" stop-color="#1aab91"/></linearGradient></defs><path class="cls-1" d="M.71,1004.87h3500V0H.71Z"/><path class="cls-2" d="M2089.55,998.84,1546.62,455.91a92.3,92.3,0,0,1,0-130.54L1868.05,3.94M1516.68,7.43,1047.6,476.52a93,93,0,0,1-131.5,0L682,242.45a93,93,0,0,0-131.5,0L.82,792.18"/><path class="cls-3" d="M982.6,9.43,845.47,146.55a88.42,88.42,0,0,1-125.06,0L580.79,6.93m2136.71-.5L2580.38,143.56a88.45,88.45,0,0,1-125.07,0L2319.06,7.3M29.66,1.94l164,164a116.29,116.29,0,0,1,0,164.45L.71,523.34M236.08,1000,500.4,735.68,654,582.09a110.12,110.12,0,0,1,155.71,0L1227.61,1000m500.92-.44L1235.78,506.8a44.91,44.91,0,0,1,0-63.53L1266,413.05a44.91,44.91,0,0,1,63.53,0l587,586.94m410.61.22L1743.88,417a44.93,44.93,0,0,1,0-63.53l30.24-30.22a44.91,44.91,0,0,1,63.53,0l676.08,676.07M4.7,8.43"/><path class="cls-4" d="M2564,371l8.22,8.22-8.22,8.22-8.22-8.22ZM2883.64,126.3l8.22,8.22-8.22,8.22-8.22-8.22Zm285.68-66.93,8.22,8.22-8.22,8.23-8.22-8.22ZM1880.79,546.82,1889,555l-8.22,8.22-8.22-8.22ZM1382.36,644.7l8.22,8.23-8.22,8.22-8.22-8.22Zm-525.9-24.53,8.22,8.22-8.22,8.22-8.22-8.22ZM96.35,419.26l8.22,8.22-8.22,8.22-8.22-8.22Z"/><path class="cls-2" d="M2114.79,7.43l-142,142a49.94,49.94,0,0,0,0,70.62l154.11,154.12a50,50,0,0,0,70.64,0l145.61-145.62a49.94,49.94,0,0,1,70.64,0l775.62,775.63m291.76-2.42-697.3-697.3a49.93,49.93,0,0,1,0-70.63L3010.77,6.93M3228,4.44,3054.08,178.38a49.93,49.93,0,0,0,0,70.63l86.18,86.19a49.94,49.94,0,0,0,70.64,0L3337,209.06a49.94,49.94,0,0,1,70.64,0l93,93"/></svg>