<svg width="1607" height="652" viewBox="0 0 1607 652" fill="none" xmlns="http://www.w3.org/2000/svg">
<path d="M731.282 113.31V122.978C731.282 130.009 730.184 134.33 724.324 134.33C717.952 134.33 717.293 129.203 717.293 121.879V64.1641C717.293 56.6934 718.099 52.4453 724.251 52.4453C730.477 52.4453 731.282 56.9131 731.282 63.6514V72.3672H747.908V63.5049C747.908 47.8311 742.928 35.6729 724.324 35.6729C705.721 35.6729 700.74 47.2451 700.74 64.2373V122.025C700.74 138.798 705.574 150.077 724.251 150.077C742.781 150.077 747.908 139.018 747.908 123.124V113.31H731.282ZM800.862 148.612V131.84H775.887V100.346H796.541V83.5H775.887V54.0566H800.862V37.2109H759.407V148.612H800.862ZM829.207 148.612L828.621 81.083L845.76 148.612H864.437L864.29 37.2109H847.737L848.25 101.957L832.869 37.2109H812.654V148.612H829.207ZM918.636 54.0566V37.2109H871.468V54.0566H886.702V148.612H903.328V54.0566H918.636ZM942.879 148.612V105.546H946.907C950.643 105.326 954.598 108.915 955.403 120.048L956.355 135.575C956.722 141.361 958.919 147.147 959.505 148.612H976.644C975.179 145.17 973.348 141.142 973.055 135.062L972.029 119.682C971.224 107.89 969.393 104.447 964.559 100.346C970.052 96.0244 973.86 89.3594 973.86 80.0576V65.1162C973.86 44.6084 966.097 37.2109 950.13 37.2109H926.326V148.612H942.879ZM957.308 77.6406C957.308 83.7197 955.843 88.7002 950.716 88.7002H942.879V54.0566H949.764C954.744 54.0566 957.308 56.1807 957.308 65.6289V77.6406ZM979.72 148.612H996.419L998.689 128.91H1014.44L1016.71 148.612H1033.33L1017.59 37.1377H995.54L979.72 148.612ZM1006.53 60.7217L1012.61 113.017H1000.52L1006.53 60.7217ZM1081.01 148.612V131.986H1057.21V37.2109H1040.73V148.612H1081.01ZM1105.4 148.612V37.2109H1088.85V148.612H1105.4ZM1159.6 148.612V131.84H1134.19L1159.53 51.7861V37.2109H1117.05V54.0566H1140.71L1116.02 132.938V148.612H1159.6ZM1211.46 148.612V131.84H1186.48V100.346H1207.14V83.5H1186.48V54.0566H1211.46V37.2109H1170V148.612H1211.46ZM1223.25 37.2109V148.612H1246.47C1264.92 148.612 1269.98 137.187 1269.98 119.975V65.8486C1269.98 48.71 1265 37.2109 1246.61 37.2109H1223.25ZM1246.32 54.0566C1251.81 54.0566 1253.5 56.9131 1253.5 65.7021V119.755C1253.5 128.544 1251.96 131.62 1246.61 131.84H1239.73V54.0566H1246.32Z" fill="black" fill-opacity="0.8"/>
<path d="M731.282 113.31V122.978C731.282 130.009 730.184 134.33 724.324 134.33C717.952 134.33 717.293 129.203 717.293 121.879V64.1641C717.293 56.6934 718.099 52.4453 724.251 52.4453C730.477 52.4453 731.282 56.9131 731.282 63.6514V72.3672H747.908V63.5049C747.908 47.8311 742.928 35.6729 724.324 35.6729C705.721 35.6729 700.74 47.2451 700.74 64.2373V122.025C700.74 138.798 705.574 150.077 724.251 150.077C742.781 150.077 747.908 139.018 747.908 123.124V113.31H731.282ZM800.862 148.612V131.84H775.887V100.346H796.541V83.5H775.887V54.0566H800.862V37.2109H759.407V148.612H800.862ZM829.207 148.612L828.621 81.083L845.76 148.612H864.437L864.29 37.2109H847.737L848.25 101.957L832.869 37.2109H812.654V148.612H829.207ZM918.636 54.0566V37.2109H871.468V54.0566H886.702V148.612H903.328V54.0566H918.636ZM942.879 148.612V105.546H946.907C950.643 105.326 954.598 108.915 955.403 120.048L956.355 135.575C956.722 141.361 958.919 147.147 959.505 148.612H976.644C975.179 145.17 973.348 141.142 973.055 135.062L972.029 119.682C971.224 107.89 969.393 104.447 964.559 100.346C970.052 96.0244 973.86 89.3594 973.86 80.0576V65.1162C973.86 44.6084 966.097 37.2109 950.13 37.2109H926.326V148.612H942.879ZM957.308 77.6406C957.308 83.7197 955.843 88.7002 950.716 88.7002H942.879V54.0566H949.764C954.744 54.0566 957.308 56.1807 957.308 65.6289V77.6406ZM979.72 148.612H996.419L998.689 128.91H1014.44L1016.71 148.612H1033.33L1017.59 37.1377H995.54L979.72 148.612ZM1006.53 60.7217L1012.61 113.017H1000.52L1006.53 60.7217ZM1081.01 148.612V131.986H1057.21V37.2109H1040.73V148.612H1081.01ZM1105.4 148.612V37.2109H1088.85V148.612H1105.4ZM1159.6 148.612V131.84H1134.19L1159.53 51.7861V37.2109H1117.05V54.0566H1140.71L1116.02 132.938V148.612H1159.6ZM1211.46 148.612V131.84H1186.48V100.346H1207.14V83.5H1186.48V54.0566H1211.46V37.2109H1170V148.612H1211.46ZM1223.25 37.2109V148.612H1246.47C1264.92 148.612 1269.98 137.187 1269.98 119.975V65.8486C1269.98 48.71 1265 37.2109 1246.61 37.2109H1223.25ZM1246.32 54.0566C1251.81 54.0566 1253.5 56.9131 1253.5 65.7021V119.755C1253.5 128.544 1251.96 131.62 1246.61 131.84H1239.73V54.0566H1246.32Z" fill="white"/>
<path d="M731.282 265.311V274.979C731.282 282.01 730.184 286.331 724.324 286.331C717.952 286.331 717.293 281.204 717.293 273.88V216.165C717.293 208.694 718.099 204.446 724.251 204.446C730.477 204.446 731.282 208.914 731.282 215.652V224.368H747.908V215.506C747.908 199.832 742.928 187.674 724.324 187.674C705.721 187.674 700.74 199.246 700.74 216.238V274.026C700.74 290.799 705.574 302.078 724.251 302.078C742.781 302.078 747.908 291.019 747.908 275.125V265.311H731.282ZM799.764 300.613V283.987H775.96V189.212H759.48V300.613H799.764ZM805.403 273.44C805.403 290.213 810.311 302.078 829.061 302.078C847.737 302.078 852.718 290.433 852.718 273.44V216.312C852.718 199.539 847.811 187.674 829.061 187.674C810.384 187.674 805.403 199.319 805.403 216.312V273.44ZM829.061 204.446C835.433 204.446 836.092 209.134 836.092 216.385V273.367C836.092 280.911 835.286 285.306 829.061 285.306C822.615 285.306 821.956 280.618 821.956 273.367V216.385C821.956 208.841 822.835 204.446 829.061 204.446ZM894.173 189.212V273.514C894.173 280.472 893.514 285.306 887.142 285.306C880.916 285.306 880.11 280.472 880.11 273.514V189.212H863.631V273.807C863.631 291.019 868.611 302.078 887.142 302.078C905.672 302.078 910.652 291.019 910.652 273.807V189.212H894.173ZM923.689 189.212V300.613H946.907C965.364 300.613 970.418 289.188 970.418 271.976V217.85C970.418 200.711 965.438 189.212 947.054 189.212H923.689ZM946.761 206.058C952.254 206.058 953.938 208.914 953.938 217.703V271.756C953.938 280.545 952.4 283.621 947.054 283.841H940.169V206.058H946.761Z" fill="black" fill-opacity="0.8"/>
<path d="M731.282 265.311V274.979C731.282 282.01 730.184 286.331 724.324 286.331C717.952 286.331 717.293 281.204 717.293 273.88V216.165C717.293 208.694 718.099 204.446 724.251 204.446C730.477 204.446 731.282 208.914 731.282 215.652V224.368H747.908V215.506C747.908 199.832 742.928 187.674 724.324 187.674C705.721 187.674 700.74 199.246 700.74 216.238V274.026C700.74 290.799 705.574 302.078 724.251 302.078C742.781 302.078 747.908 291.019 747.908 275.125V265.311H731.282ZM799.764 300.613V283.987H775.96V189.212H759.48V300.613H799.764ZM805.403 273.44C805.403 290.213 810.311 302.078 829.061 302.078C847.737 302.078 852.718 290.433 852.718 273.44V216.312C852.718 199.539 847.811 187.674 829.061 187.674C810.384 187.674 805.403 199.319 805.403 216.312V273.44ZM829.061 204.446C835.433 204.446 836.092 209.134 836.092 216.385V273.367C836.092 280.911 835.286 285.306 829.061 285.306C822.615 285.306 821.956 280.618 821.956 273.367V216.385C821.956 208.841 822.835 204.446 829.061 204.446ZM894.173 189.212V273.514C894.173 280.472 893.514 285.306 887.142 285.306C880.916 285.306 880.11 280.472 880.11 273.514V189.212H863.631V273.807C863.631 291.019 868.611 302.078 887.142 302.078C905.672 302.078 910.652 291.019 910.652 273.807V189.212H894.173ZM923.689 189.212V300.613H946.907C965.364 300.613 970.418 289.188 970.418 271.976V217.85C970.418 200.711 965.438 189.212 947.054 189.212H923.689ZM946.761 206.058C952.254 206.058 953.938 208.914 953.938 217.703V271.756C953.938 280.545 952.4 283.621 947.054 283.841H940.169V206.058H946.761Z" fill="white"/>
<path d="M731.282 417.311V426.979C731.282 434.01 730.184 438.331 724.324 438.331C717.952 438.331 717.293 433.204 717.293 425.88V368.165C717.293 360.694 718.099 356.446 724.251 356.446C730.477 356.446 731.282 360.914 731.282 367.652V376.368H747.908V367.506C747.908 351.832 742.928 339.674 724.324 339.674C705.721 339.674 700.74 351.246 700.74 368.238V426.026C700.74 442.799 705.574 454.078 724.251 454.078C742.781 454.078 747.908 443.019 747.908 427.125V417.311H731.282ZM757.356 425.44C757.356 442.213 762.264 454.078 781.014 454.078C799.69 454.078 804.671 442.433 804.671 425.44V368.312C804.671 351.539 799.764 339.674 781.014 339.674C762.337 339.674 757.356 351.319 757.356 368.312V425.44ZM781.014 356.446C787.386 356.446 788.045 361.134 788.045 368.385V425.367C788.045 432.911 787.239 437.306 781.014 437.306C774.568 437.306 773.909 432.618 773.909 425.367V368.385C773.909 360.841 774.788 356.446 781.014 356.446ZM842.317 438.697H856.233L866.707 378.419L865.096 452.613H881.722V341.212H860.848L849.275 404.64L837.703 341.212H816.683V452.613H833.235L831.624 377.247L842.317 438.697ZM942.073 368.458C942.073 348.023 933.211 341.212 918.27 341.212H895.711V452.613H912.337V414.234H917.61C933.138 414.234 942.073 407.862 942.073 386.329V368.458ZM925.594 383.473C925.594 391.676 925.374 397.462 918.123 397.462H912.337V358.058H917.83C924.056 358.058 925.594 361.207 925.594 369.63V383.473ZM983.235 341.212V425.514C983.235 432.472 982.576 437.306 976.204 437.306C969.979 437.306 969.173 432.472 969.173 425.514V341.212H952.693V425.807C952.693 443.019 957.674 454.078 976.204 454.078C994.734 454.078 999.715 443.019 999.715 425.807V341.212H983.235ZM1053.55 358.058V341.212H1006.38V358.058H1021.61V452.613H1038.24V358.058H1053.55ZM1077.86 452.613V341.212H1061.31V452.613H1077.86ZM1108.55 452.613L1107.97 385.084L1125.11 452.613H1143.78L1143.64 341.212H1127.08L1127.6 405.958L1112.21 341.212H1092V452.613H1108.55ZM1178.35 409.4H1185.82V426.466C1185.82 433.424 1184.58 437.232 1178.79 437.232C1172.42 437.232 1171.76 432.838 1171.76 425.66V367.286C1171.76 360.255 1173.01 356.446 1178.79 356.446C1184.94 356.446 1185.82 360.841 1185.82 367.579V376.368H1202.45V367.359C1202.45 351.612 1197.47 339.674 1178.79 339.674C1160.19 339.674 1155.21 351.173 1155.21 368.165V425.733C1155.21 442.433 1160.12 454.078 1178.79 454.078C1197.25 454.078 1202.45 442.506 1202.45 426.612V392.774H1178.35V409.4Z" fill="black" fill-opacity="0.8"/>
<path d="M731.282 417.311V426.979C731.282 434.01 730.184 438.331 724.324 438.331C717.952 438.331 717.293 433.204 717.293 425.88V368.165C717.293 360.694 718.099 356.446 724.251 356.446C730.477 356.446 731.282 360.914 731.282 367.652V376.368H747.908V367.506C747.908 351.832 742.928 339.674 724.324 339.674C705.721 339.674 700.74 351.246 700.74 368.238V426.026C700.74 442.799 705.574 454.078 724.251 454.078C742.781 454.078 747.908 443.019 747.908 427.125V417.311H731.282ZM757.356 425.44C757.356 442.213 762.264 454.078 781.014 454.078C799.69 454.078 804.671 442.433 804.671 425.44V368.312C804.671 351.539 799.764 339.674 781.014 339.674C762.337 339.674 757.356 351.319 757.356 368.312V425.44ZM781.014 356.446C787.386 356.446 788.045 361.134 788.045 368.385V425.367C788.045 432.911 787.239 437.306 781.014 437.306C774.568 437.306 773.909 432.618 773.909 425.367V368.385C773.909 360.841 774.788 356.446 781.014 356.446ZM842.317 438.697H856.233L866.707 378.419L865.096 452.613H881.722V341.212H860.848L849.275 404.64L837.703 341.212H816.683V452.613H833.235L831.624 377.247L842.317 438.697ZM942.073 368.458C942.073 348.023 933.211 341.212 918.27 341.212H895.711V452.613H912.337V414.234H917.61C933.138 414.234 942.073 407.862 942.073 386.329V368.458ZM925.594 383.473C925.594 391.676 925.374 397.462 918.123 397.462H912.337V358.058H917.83C924.056 358.058 925.594 361.207 925.594 369.63V383.473ZM983.235 341.212V425.514C983.235 432.472 982.576 437.306 976.204 437.306C969.979 437.306 969.173 432.472 969.173 425.514V341.212H952.693V425.807C952.693 443.019 957.674 454.078 976.204 454.078C994.734 454.078 999.715 443.019 999.715 425.807V341.212H983.235ZM1053.55 358.058V341.212H1006.38V358.058H1021.61V452.613H1038.24V358.058H1053.55ZM1077.86 452.613V341.212H1061.31V452.613H1077.86ZM1108.55 452.613L1107.97 385.084L1125.11 452.613H1143.78L1143.64 341.212H1127.08L1127.6 405.958L1112.21 341.212H1092V452.613H1108.55ZM1178.35 409.4H1185.82V426.466C1185.82 433.424 1184.58 437.232 1178.79 437.232C1172.42 437.232 1171.76 432.838 1171.76 425.66V367.286C1171.76 360.255 1173.01 356.446 1178.79 356.446C1184.94 356.446 1185.82 360.841 1185.82 367.579V376.368H1202.45V367.359C1202.45 351.612 1197.47 339.674 1178.79 339.674C1160.19 339.674 1155.21 351.173 1155.21 368.165V425.733C1155.21 442.433 1160.12 454.078 1178.79 454.078C1197.25 454.078 1202.45 442.506 1202.45 426.612V392.774H1178.35V409.4Z" fill="white"/>
<path d="M719.271 612.613V501.212H702.718V612.613H719.271ZM749.959 612.613L749.373 545.084L766.512 612.613H785.188L785.042 501.212H768.489L769.002 565.958L753.621 501.212H733.406V612.613H749.959ZM839.388 518.058V501.212H792.22V518.058H807.454V612.613H824.08V518.058H839.388ZM888.46 612.613V595.841H863.484V564.347H884.139V547.501H863.484V518.058H888.46V501.212H847.005V612.613H888.46ZM916.805 612.613V569.547H920.833C924.568 569.327 928.523 572.916 929.329 584.049L930.281 599.576C930.647 605.362 932.845 611.148 933.431 612.613H950.569C949.104 609.171 947.273 605.143 946.98 599.063L945.955 583.683C945.149 571.891 943.318 568.448 938.484 564.347C943.978 560.025 947.786 553.36 947.786 544.059V529.117C947.786 508.609 940.022 501.212 924.056 501.212H900.252V612.613H916.805ZM931.233 541.642C931.233 547.721 929.769 552.701 924.642 552.701H916.805V518.058H923.689C928.67 518.058 931.233 520.182 931.233 529.63V541.642ZM976.717 612.613L976.131 545.084L993.27 612.613H1011.95L1011.8 501.212H995.247L995.76 565.958L980.379 501.212H960.164V612.613H976.717ZM1018.83 612.613H1035.53L1037.8 592.911H1053.55L1055.82 612.613H1072.44L1056.7 501.139H1034.65L1018.83 612.613ZM1045.64 524.723L1051.72 577.018H1039.63L1045.64 524.723ZM1115.22 518.058V501.212H1068.05V518.058H1083.28V612.613H1099.91V518.058H1115.22ZM1139.53 612.613V501.212H1122.98V612.613H1139.53ZM1151.55 585.44C1151.55 602.213 1156.45 614.078 1175.2 614.078C1193.88 614.078 1198.86 602.433 1198.86 585.44V528.312C1198.86 511.539 1193.95 499.674 1175.2 499.674C1156.53 499.674 1151.55 511.319 1151.55 528.312V585.44ZM1175.2 516.446C1181.58 516.446 1182.23 521.134 1182.23 528.385V585.367C1182.23 592.911 1181.43 597.306 1175.2 597.306C1168.76 597.306 1168.1 592.618 1168.1 585.367V528.385C1168.1 520.841 1168.98 516.446 1175.2 516.446ZM1227.35 612.613L1226.77 545.084L1243.9 612.613H1262.58L1262.43 501.212H1245.88L1246.39 565.958L1231.01 501.212H1210.8V612.613H1227.35ZM1269.47 612.613H1286.17L1288.44 592.911H1304.18L1306.45 612.613H1323.08L1307.33 501.139H1285.29L1269.47 612.613ZM1296.27 524.723L1302.35 577.018H1290.27L1296.27 524.723ZM1370.76 612.613V595.987H1346.96V501.212H1330.48V612.613H1370.76ZM1396.69 593.863V611.863L1378.09 628.813V593.863H1396.69ZM1449.06 612.613V501.212H1432.5V612.613H1449.06ZM1479.74 612.613L1479.16 545.084L1496.3 612.613H1514.97L1514.83 501.212H1498.27L1498.79 565.958L1483.41 501.212H1463.19V612.613H1479.74ZM1557.01 577.311V586.979C1557.01 594.01 1555.92 598.331 1550.06 598.331C1543.68 598.331 1543.03 593.204 1543.03 585.88V528.165C1543.03 520.694 1543.83 516.446 1549.98 516.446C1556.21 516.446 1557.01 520.914 1557.01 527.652V536.368H1573.64V527.506C1573.64 511.832 1568.66 499.674 1550.06 499.674C1531.45 499.674 1526.47 511.246 1526.47 528.238V586.026C1526.47 602.799 1531.31 614.078 1549.98 614.078C1568.51 614.078 1573.64 603.019 1573.64 587.125V577.311H1557.01ZM1582.65 604.63C1582.65 611.075 1585.65 614.078 1592.1 614.078C1598.91 614.078 1601.91 611.075 1601.91 604.63C1601.91 597.965 1598.91 595.035 1592.1 595.035C1585.65 595.035 1582.65 597.965 1582.65 604.63Z" fill="black" fill-opacity="0.8"/>
<path d="M719.271 612.613V501.212H702.718V612.613H719.271ZM749.959 612.613L749.373 545.084L766.512 612.613H785.188L785.042 501.212H768.489L769.002 565.958L753.621 501.212H733.406V612.613H749.959ZM839.388 518.058V501.212H792.22V518.058H807.454V612.613H824.08V518.058H839.388ZM888.46 612.613V595.841H863.484V564.347H884.139V547.501H863.484V518.058H888.46V501.212H847.005V612.613H888.46ZM916.805 612.613V569.547H920.833C924.568 569.327 928.523 572.916 929.329 584.049L930.281 599.576C930.647 605.362 932.845 611.148 933.431 612.613H950.569C949.104 609.171 947.273 605.143 946.98 599.063L945.955 583.683C945.149 571.891 943.318 568.448 938.484 564.347C943.978 560.025 947.786 553.36 947.786 544.059V529.117C947.786 508.609 940.022 501.212 924.056 501.212H900.252V612.613H916.805ZM931.233 541.642C931.233 547.721 929.769 552.701 924.642 552.701H916.805V518.058H923.689C928.67 518.058 931.233 520.182 931.233 529.63V541.642ZM976.717 612.613L976.131 545.084L993.27 612.613H1011.95L1011.8 501.212H995.247L995.76 565.958L980.379 501.212H960.164V612.613H976.717ZM1018.83 612.613H1035.53L1037.8 592.911H1053.55L1055.82 612.613H1072.44L1056.7 501.139H1034.65L1018.83 612.613ZM1045.64 524.723L1051.72 577.018H1039.63L1045.64 524.723ZM1115.22 518.058V501.212H1068.05V518.058H1083.28V612.613H1099.91V518.058H1115.22ZM1139.53 612.613V501.212H1122.98V612.613H1139.53ZM1151.55 585.44C1151.55 602.213 1156.45 614.078 1175.2 614.078C1193.88 614.078 1198.86 602.433 1198.86 585.44V528.312C1198.86 511.539 1193.95 499.674 1175.2 499.674C1156.53 499.674 1151.55 511.319 1151.55 528.312V585.44ZM1175.2 516.446C1181.58 516.446 1182.23 521.134 1182.23 528.385V585.367C1182.23 592.911 1181.43 597.306 1175.2 597.306C1168.76 597.306 1168.1 592.618 1168.1 585.367V528.385C1168.1 520.841 1168.98 516.446 1175.2 516.446ZM1227.35 612.613L1226.77 545.084L1243.9 612.613H1262.58L1262.43 501.212H1245.88L1246.39 565.958L1231.01 501.212H1210.8V612.613H1227.35ZM1269.47 612.613H1286.17L1288.44 592.911H1304.18L1306.45 612.613H1323.08L1307.33 501.139H1285.29L1269.47 612.613ZM1296.27 524.723L1302.35 577.018H1290.27L1296.27 524.723ZM1370.76 612.613V595.987H1346.96V501.212H1330.48V612.613H1370.76ZM1396.69 593.863V611.863L1378.09 628.813V593.863H1396.69ZM1449.06 612.613V501.212H1432.5V612.613H1449.06ZM1479.74 612.613L1479.16 545.084L1496.3 612.613H1514.97L1514.83 501.212H1498.27L1498.79 565.958L1483.41 501.212H1463.19V612.613H1479.74ZM1557.01 577.311V586.979C1557.01 594.01 1555.92 598.331 1550.06 598.331C1543.68 598.331 1543.03 593.204 1543.03 585.88V528.165C1543.03 520.694 1543.83 516.446 1549.98 516.446C1556.21 516.446 1557.01 520.914 1557.01 527.652V536.368H1573.64V527.506C1573.64 511.832 1568.66 499.674 1550.06 499.674C1531.45 499.674 1526.47 511.246 1526.47 528.238V586.026C1526.47 602.799 1531.31 614.078 1549.98 614.078C1568.51 614.078 1573.64 603.019 1573.64 587.125V577.311H1557.01ZM1582.65 604.63C1582.65 611.075 1585.65 614.078 1592.1 614.078C1598.91 614.078 1601.91 611.075 1601.91 604.63C1601.91 597.965 1598.91 595.035 1592.1 595.035C1585.65 595.035 1582.65 597.965 1582.65 604.63Z" fill="white"/>
<path d="M98.9976 613C35.6105 549.613 4.18664e-06 463.642 0 373.999C-4.18664e-06 284.356 35.6105 198.385 98.9975 134.998C162.385 71.6105 248.356 36 337.999 36C427.642 36 513.613 71.6105 577 134.998L481.4 230.598C443.367 192.566 391.784 171.2 337.999 171.2C284.213 171.2 232.63 192.566 194.598 230.598C156.566 268.63 135.2 320.213 135.2 373.999C135.2 427.784 156.566 479.367 194.598 517.4L98.9976 613Z" fill="url(#paint0_linear_108_2)"/>
<path d="M194.598 517.4C232.63 555.432 284.213 576.798 337.999 576.798C391.784 576.798 443.367 555.432 481.399 517.4C519.432 479.367 540.798 427.785 540.798 373.999C540.798 320.213 519.432 268.63 481.4 230.598L424.039 287.959C446.858 310.778 459.678 341.728 459.678 373.999C459.678 406.27 446.858 437.22 424.039 460.039C401.22 482.859 370.27 495.679 337.999 495.679C305.727 495.679 274.777 482.859 251.958 460.039L194.598 517.4Z" fill="url(#paint1_linear_108_2)"/>
<path d="M251.958 460.039C229.139 437.22 216.319 406.27 216.319 373.999C216.319 341.728 229.139 310.778 251.958 287.959C274.777 265.139 305.727 252.319 337.999 252.319C370.27 252.319 401.22 265.139 424.039 287.959L389.623 322.375C375.931 308.683 357.361 300.991 337.999 300.991C318.636 300.991 300.066 308.683 286.374 322.375C272.683 336.066 264.991 354.636 264.991 373.999C264.991 393.362 272.683 411.932 286.374 425.623L251.958 460.039Z" fill="url(#paint2_linear_108_2)"/>
<path d="M306.132 405.866C323.731 423.465 352.266 423.465 369.865 405.866C387.465 388.266 387.465 359.732 369.865 342.132C352.266 324.533 323.731 324.533 306.132 342.132C288.532 359.732 288.532 388.266 306.132 405.866Z" fill="url(#paint3_linear_108_2)"/>
<defs>
<linearGradient id="paint0_linear_108_2" x1="481.931" y1="131.263" x2="110.271" y2="502.924" gradientUnits="userSpaceOnUse">
<stop stop-color="#4285F4"/>
<stop offset="1" stop-color="#4254F4"/>
</linearGradient>
<linearGradient id="paint1_linear_108_2" x1="481.931" y1="131.263" x2="110.271" y2="502.924" gradientUnits="userSpaceOnUse">
<stop stop-color="#4285F4"/>
<stop offset="1" stop-color="#4254F4"/>
</linearGradient>
<linearGradient id="paint2_linear_108_2" x1="481.931" y1="131.263" x2="110.271" y2="502.924" gradientUnits="userSpaceOnUse">
<stop stop-color="#4285F4"/>
<stop offset="1" stop-color="#4254F4"/>
</linearGradient>
<linearGradient id="paint3_linear_108_2" x1="481.931" y1="131.263" x2="110.271" y2="502.924" gradientUnits="userSpaceOnUse">
<stop stop-color="#4285F4"/>
<stop offset="1" stop-color="#4254F4"/>
</linearGradient>
</defs>
</svg>
