<svg width="1646" height="655" viewBox="0 0 1646 655" fill="none" xmlns="http://www.w3.org/2000/svg">
<path d="M770.282 116.31V125.978C770.282 133.009 769.184 137.33 763.324 137.33C756.952 137.33 756.293 132.203 756.293 124.879V67.1641C756.293 59.6934 757.099 55.4453 763.251 55.4453C769.477 55.4453 770.282 59.9131 770.282 66.6514V75.3672H786.908V66.5049C786.908 50.8311 781.928 38.6729 763.324 38.6729C744.721 38.6729 739.74 50.2451 739.74 67.2373V125.025C739.74 141.798 744.574 153.077 763.251 153.077C781.781 153.077 786.908 142.018 786.908 126.124V116.31H770.282ZM839.862 151.612V134.84H814.887V103.346H835.541V86.5H814.887V57.0566H839.862V40.2109H798.407V151.612H839.862ZM868.207 151.612L867.621 84.083L884.76 151.612H903.437L903.29 40.2109H886.737L887.25 104.957L871.869 40.2109H851.654V151.612H868.207ZM957.636 57.0566V40.2109H910.468V57.0566H925.702V151.612H942.328V57.0566H957.636ZM981.879 151.612V108.546H985.907C989.643 108.326 993.598 111.915 994.403 123.048L995.355 138.575C995.722 144.361 997.919 150.147 998.505 151.612H1015.64C1014.18 148.17 1012.35 144.142 1012.05 138.062L1011.03 122.682C1010.22 110.89 1008.39 107.447 1003.56 103.346C1009.05 99.0244 1012.86 92.3594 1012.86 83.0576V68.1162C1012.86 47.6084 1005.1 40.2109 989.13 40.2109H965.326V151.612H981.879ZM996.308 80.6406C996.308 86.7197 994.843 91.7002 989.716 91.7002H981.879V57.0566H988.764C993.744 57.0566 996.308 59.1807 996.308 68.6289V80.6406ZM1018.72 151.612H1035.42L1037.69 131.91H1053.44L1055.71 151.612H1072.33L1056.59 40.1377H1034.54L1018.72 151.612ZM1045.53 63.7217L1051.61 116.017H1039.52L1045.53 63.7217ZM1120.01 151.612V134.986H1096.21V40.2109H1079.73V151.612H1120.01ZM1144.4 151.612V40.2109H1127.85V151.612H1144.4ZM1198.6 151.612V134.84H1173.19L1198.53 54.7861V40.2109H1156.05V57.0566H1179.71L1155.02 135.938V151.612H1198.6ZM1250.46 151.612V134.84H1225.48V103.346H1246.14V86.5H1225.48V57.0566H1250.46V40.2109H1209V151.612H1250.46ZM1262.25 40.2109V151.612H1285.47C1303.92 151.612 1308.98 140.187 1308.98 122.975V68.8486C1308.98 51.71 1304 40.2109 1285.61 40.2109H1262.25ZM1285.32 57.0566C1290.81 57.0566 1292.5 59.9131 1292.5 68.7021V122.755C1292.5 131.544 1290.96 134.62 1285.61 134.84H1278.73V57.0566H1285.32Z" fill="black" fill-opacity="0.8"/>
<path d="M770.282 268.31V277.978C770.282 285.009 769.184 289.33 763.324 289.33C756.952 289.33 756.293 284.203 756.293 276.879V219.164C756.293 211.693 757.099 207.445 763.251 207.445C769.477 207.445 770.282 211.913 770.282 218.651V227.367H786.908V218.505C786.908 202.831 781.928 190.673 763.324 190.673C744.721 190.673 739.74 202.245 739.74 219.237V277.025C739.74 293.798 744.574 305.077 763.251 305.077C781.781 305.077 786.908 294.018 786.908 278.124V268.31H770.282ZM838.764 303.612V286.986H814.96V192.211H798.48V303.612H838.764ZM844.403 276.439C844.403 293.212 849.311 305.077 868.061 305.077C886.737 305.077 891.718 293.432 891.718 276.439V219.311C891.718 202.538 886.811 190.673 868.061 190.673C849.384 190.673 844.403 202.318 844.403 219.311V276.439ZM868.061 207.445C874.433 207.445 875.092 212.133 875.092 219.384V276.366C875.092 283.91 874.286 288.305 868.061 288.305C861.615 288.305 860.956 283.617 860.956 276.366V219.384C860.956 211.84 861.835 207.445 868.061 207.445ZM933.173 192.211V276.513C933.173 283.471 932.514 288.305 926.142 288.305C919.916 288.305 919.11 283.471 919.11 276.513V192.211H902.631V276.806C902.631 294.018 907.611 305.077 926.142 305.077C944.672 305.077 949.652 294.018 949.652 276.806V192.211H933.173ZM962.689 192.211V303.612H985.907C1004.36 303.612 1009.42 292.187 1009.42 274.975V220.849C1009.42 203.71 1004.44 192.211 986.054 192.211H962.689ZM985.761 209.057C991.254 209.057 992.938 211.913 992.938 220.702V274.755C992.938 283.544 991.4 286.62 986.054 286.84H979.169V209.057H985.761Z" fill="black" fill-opacity="0.8"/>
<path d="M770.282 420.31V429.978C770.282 437.009 769.184 441.33 763.324 441.33C756.952 441.33 756.293 436.203 756.293 428.879V371.164C756.293 363.693 757.099 359.445 763.251 359.445C769.477 359.445 770.282 363.913 770.282 370.651V379.367H786.908V370.505C786.908 354.831 781.928 342.673 763.324 342.673C744.721 342.673 739.74 354.245 739.74 371.237V429.025C739.74 445.798 744.574 457.077 763.251 457.077C781.781 457.077 786.908 446.018 786.908 430.124V420.31H770.282ZM796.356 428.439C796.356 445.212 801.264 457.077 820.014 457.077C838.69 457.077 843.671 445.432 843.671 428.439V371.311C843.671 354.538 838.764 342.673 820.014 342.673C801.337 342.673 796.356 354.318 796.356 371.311V428.439ZM820.014 359.445C826.386 359.445 827.045 364.133 827.045 371.384V428.366C827.045 435.91 826.239 440.305 820.014 440.305C813.568 440.305 812.909 435.617 812.909 428.366V371.384C812.909 363.84 813.788 359.445 820.014 359.445ZM881.317 441.696H895.233L905.707 381.418L904.096 455.612H920.722V344.211H899.848L888.275 407.639L876.703 344.211H855.683V455.612H872.235L870.624 380.246L881.317 441.696ZM981.073 371.457C981.073 351.022 972.211 344.211 957.27 344.211H934.711V455.612H951.337V417.233H956.61C972.138 417.233 981.073 410.861 981.073 389.328V371.457ZM964.594 386.472C964.594 394.675 964.374 400.461 957.123 400.461H951.337V361.057H956.83C963.056 361.057 964.594 364.206 964.594 372.629V386.472ZM1022.24 344.211V428.513C1022.24 435.471 1021.58 440.305 1015.2 440.305C1008.98 440.305 1008.17 435.471 1008.17 428.513V344.211H991.693V428.806C991.693 446.018 996.674 457.077 1015.2 457.077C1033.73 457.077 1038.71 446.018 1038.71 428.806V344.211H1022.24ZM1092.55 361.057V344.211H1045.38V361.057H1060.61V455.612H1077.24V361.057H1092.55ZM1116.86 455.612V344.211H1100.31V455.612H1116.86ZM1147.55 455.612L1146.97 388.083L1164.11 455.612H1182.78L1182.64 344.211H1166.08L1166.6 408.957L1151.21 344.211H1131V455.612H1147.55ZM1217.35 412.399H1224.82V429.465C1224.82 436.423 1223.58 440.231 1217.79 440.231C1211.42 440.231 1210.76 435.837 1210.76 428.659V370.285C1210.76 363.254 1212.01 359.445 1217.79 359.445C1223.94 359.445 1224.82 363.84 1224.82 370.578V379.367H1241.45V370.358C1241.45 354.611 1236.47 342.673 1217.79 342.673C1199.19 342.673 1194.21 354.172 1194.21 371.164V428.732C1194.21 445.432 1199.12 457.077 1217.79 457.077C1236.25 457.077 1241.45 445.505 1241.45 429.611V395.773H1217.35V412.399Z" fill="black" fill-opacity="0.8"/>
<path d="M758.271 615.612V504.211H741.718V615.612H758.271ZM788.959 615.612L788.373 548.083L805.512 615.612H824.188L824.042 504.211H807.489L808.002 568.957L792.621 504.211H772.406V615.612H788.959ZM878.388 521.057V504.211H831.22V521.057H846.454V615.612H863.08V521.057H878.388ZM927.46 615.612V598.84H902.484V567.346H923.139V550.5H902.484V521.057H927.46V504.211H886.005V615.612H927.46ZM955.805 615.612V572.546H959.833C963.568 572.326 967.523 575.915 968.329 587.048L969.281 602.575C969.647 608.361 971.845 614.147 972.431 615.612H989.569C988.104 612.17 986.273 608.142 985.98 602.062L984.955 586.682C984.149 574.89 982.318 571.447 977.484 567.346C982.978 563.024 986.786 556.359 986.786 547.058V532.116C986.786 511.608 979.022 504.211 963.056 504.211H939.252V615.612H955.805ZM970.233 544.641C970.233 550.72 968.769 555.7 963.642 555.7H955.805V521.057H962.689C967.67 521.057 970.233 523.181 970.233 532.629V544.641ZM1015.72 615.612L1015.13 548.083L1032.27 615.612H1050.95L1050.8 504.211H1034.25L1034.76 568.957L1019.38 504.211H999.164V615.612H1015.72ZM1057.83 615.612H1074.53L1076.8 595.91H1092.55L1094.82 615.612H1111.44L1095.7 504.138H1073.65L1057.83 615.612ZM1084.64 527.722L1090.72 580.017H1078.63L1084.64 527.722ZM1154.22 521.057V504.211H1107.05V521.057H1122.28V615.612H1138.91V521.057H1154.22ZM1178.53 615.612V504.211H1161.98V615.612H1178.53ZM1190.55 588.439C1190.55 605.212 1195.45 617.077 1214.2 617.077C1232.88 617.077 1237.86 605.432 1237.86 588.439V531.311C1237.86 514.538 1232.95 502.673 1214.2 502.673C1195.53 502.673 1190.55 514.318 1190.55 531.311V588.439ZM1214.2 519.445C1220.58 519.445 1221.23 524.133 1221.23 531.384V588.366C1221.23 595.91 1220.43 600.305 1214.2 600.305C1207.76 600.305 1207.1 595.617 1207.1 588.366V531.384C1207.1 523.84 1207.98 519.445 1214.2 519.445ZM1266.35 615.612L1265.77 548.083L1282.9 615.612H1301.58L1301.43 504.211H1284.88L1285.39 568.957L1270.01 504.211H1249.8V615.612H1266.35ZM1308.47 615.612H1325.17L1327.44 595.91H1343.18L1345.45 615.612H1362.08L1346.33 504.138H1324.29L1308.47 615.612ZM1335.27 527.722L1341.35 580.017H1329.27L1335.27 527.722ZM1409.76 615.612V598.986H1385.96V504.211H1369.48V615.612H1409.76ZM1435.69 596.862V614.862L1417.09 631.812V596.862H1435.69ZM1488.06 615.612V504.211H1471.5V615.612H1488.06ZM1518.74 615.612L1518.16 548.083L1535.3 615.612H1553.97L1553.83 504.211H1537.27L1537.79 568.957L1522.41 504.211H1502.19V615.612H1518.74ZM1596.01 580.31V589.978C1596.01 597.009 1594.92 601.33 1589.06 601.33C1582.68 601.33 1582.03 596.203 1582.03 588.879V531.164C1582.03 523.693 1582.83 519.445 1588.98 519.445C1595.21 519.445 1596.01 523.913 1596.01 530.651V539.367H1612.64V530.505C1612.64 514.831 1607.66 502.673 1589.06 502.673C1570.45 502.673 1565.47 514.245 1565.47 531.237V589.025C1565.47 605.798 1570.31 617.077 1588.98 617.077C1607.51 617.077 1612.64 606.018 1612.64 590.124V580.31H1596.01ZM1621.65 607.629C1621.65 614.074 1624.65 617.077 1631.1 617.077C1637.91 617.077 1640.91 614.074 1640.91 607.629C1640.91 600.964 1637.91 598.034 1631.1 598.034C1624.65 598.034 1621.65 600.964 1621.65 607.629Z" fill="black" fill-opacity="0.8"/>
<path d="M112.73 654.189C40.9278 582.387 0.589848 485.003 0.589844 383.46C0.589839 281.916 40.9278 184.532 112.73 112.73C184.532 40.9278 281.916 0.589846 383.46 0.589844C485.003 0.589842 582.387 40.9278 654.189 112.73L545.897 221.022C502.816 177.94 444.386 153.738 383.46 153.738C322.534 153.738 264.103 177.941 221.022 221.022C177.941 264.103 153.738 322.534 153.738 383.46C153.738 444.386 177.941 502.816 221.022 545.897L112.73 654.189Z" fill="url(#paint0_linear_91_2)"/>
<path d="M221.022 545.897C264.103 588.979 322.533 613.182 383.459 613.182C444.385 613.182 502.816 588.979 545.897 545.898C588.978 502.816 613.181 444.386 613.181 383.46C613.181 322.534 588.979 264.103 545.897 221.022L480.922 285.997C506.771 311.846 521.292 346.904 521.292 383.46C521.292 420.015 506.771 455.074 480.922 480.923C455.073 506.771 420.015 521.293 383.459 521.293C346.904 521.293 311.845 506.771 285.997 480.923L221.022 545.897Z" fill="url(#paint1_linear_91_2)"/>
<path d="M285.997 480.923C260.148 455.074 245.626 420.015 245.626 383.46C245.626 346.904 260.148 311.846 285.997 285.997C311.845 260.148 346.904 245.627 383.459 245.627C420.015 245.627 455.073 260.148 480.922 285.997L441.937 324.982C426.428 309.473 405.393 300.76 383.459 300.76C361.526 300.76 340.491 309.473 324.982 324.982C309.472 340.491 300.759 361.526 300.759 383.46C300.759 405.393 309.473 426.428 324.982 441.937L285.997 480.923Z" fill="url(#paint2_linear_91_2)"/>
<path d="M347.362 419.557C367.298 439.493 399.621 439.493 419.557 419.557C439.493 399.621 439.493 367.299 419.557 347.363C399.621 327.427 367.298 327.427 347.362 347.363C327.426 367.299 327.426 399.621 347.362 419.557Z" fill="url(#paint3_linear_91_2)"/>
<defs>
<linearGradient id="paint0_linear_91_2" x1="546.5" y1="108.5" x2="125.5" y2="529.5" gradientUnits="userSpaceOnUse">
<stop stop-color="#4285F4"/>
<stop offset="1" stop-color="#4254F4"/>
</linearGradient>
<linearGradient id="paint1_linear_91_2" x1="546.5" y1="108.5" x2="125.5" y2="529.5" gradientUnits="userSpaceOnUse">
<stop stop-color="#4285F4"/>
<stop offset="1" stop-color="#4254F4"/>
</linearGradient>
<linearGradient id="paint2_linear_91_2" x1="546.5" y1="108.5" x2="125.5" y2="529.5" gradientUnits="userSpaceOnUse">
<stop stop-color="#4285F4"/>
<stop offset="1" stop-color="#4254F4"/>
</linearGradient>
<linearGradient id="paint3_linear_91_2" x1="546.5" y1="108.5" x2="125.5" y2="529.5" gradientUnits="userSpaceOnUse">
<stop stop-color="#4285F4"/>
<stop offset="1" stop-color="#4254F4"/>
</linearGradient>
</defs>
</svg>
