<svg width="655" height="654" viewBox="0 0 655 654" fill="none" xmlns="http://www.w3.org/2000/svg">
<path d="M112.73 653.6C40.9278 581.798 0.589848 484.413 0.589844 382.87C0.589839 281.326 40.9278 183.942 112.73 112.14C184.532 40.3379 281.916 2.14257e-06 383.46 0C485.003 -2.14257e-06 582.387 40.3379 654.189 112.14L545.897 220.432C502.816 177.351 444.386 153.148 383.46 153.148C322.534 153.148 264.103 177.351 221.022 220.432C177.941 263.513 153.738 321.944 153.738 382.87C153.738 443.796 177.941 502.226 221.022 545.308L112.73 653.6Z" fill="url(#paint0_linear_56_16)"/>
<path d="M221.022 545.308C264.103 588.389 322.533 612.592 383.459 612.592C444.385 612.592 502.816 588.389 545.897 545.308C588.978 502.227 613.181 443.796 613.181 382.87C613.181 321.944 588.979 263.513 545.897 220.432L480.922 285.407C506.771 311.256 521.292 346.314 521.292 382.87C521.292 419.426 506.771 454.484 480.922 480.333C455.073 506.181 420.015 520.703 383.459 520.703C346.904 520.703 311.845 506.181 285.997 480.333L221.022 545.308Z" fill="url(#paint1_linear_56_16)"/>
<path d="M285.997 480.333C260.148 454.484 245.626 419.426 245.626 382.87C245.626 346.314 260.148 311.256 285.997 285.407C311.845 259.559 346.904 245.037 383.459 245.037C420.015 245.037 455.073 259.559 480.922 285.407L441.937 324.392C426.428 308.883 405.393 300.17 383.459 300.17C361.526 300.17 340.491 308.883 324.982 324.392C309.472 339.902 300.759 360.937 300.759 382.87C300.759 404.803 309.473 425.838 324.982 441.348L285.997 480.333Z" fill="url(#paint2_linear_56_16)"/>
<path d="M347.362 418.967C367.298 438.903 399.621 438.903 419.557 418.967C439.493 399.031 439.493 366.709 419.557 346.773C399.621 326.837 367.298 326.837 347.362 346.773C327.426 366.709 327.426 399.031 347.362 418.967Z" fill="url(#paint3_linear_56_16)"/>
<defs>
<linearGradient id="paint0_linear_56_16" x1="327.39" y1="0" x2="327.39" y2="653.6" gradientUnits="userSpaceOnUse">
<stop stop-color="#4285F4"/>
<stop offset="1" stop-color="#4254F4"/>
</linearGradient>
<linearGradient id="paint1_linear_56_16" x1="327.39" y1="0" x2="327.39" y2="653.6" gradientUnits="userSpaceOnUse">
<stop stop-color="#4285F4"/>
<stop offset="1" stop-color="#4254F4"/>
</linearGradient>
<linearGradient id="paint2_linear_56_16" x1="327.39" y1="0" x2="327.39" y2="653.6" gradientUnits="userSpaceOnUse">
<stop stop-color="#4285F4"/>
<stop offset="1" stop-color="#4254F4"/>
</linearGradient>
<linearGradient id="paint3_linear_56_16" x1="327.39" y1="0" x2="327.39" y2="653.6" gradientUnits="userSpaceOnUse">
<stop stop-color="#4285F4"/>
<stop offset="1" stop-color="#4254F4"/>
</linearGradient>
</defs>
</svg>
