<svg width="398" height="151" viewBox="0 0 398 151" fill="none" xmlns="http://www.w3.org/2000/svg">
<path d="M75.2972 151C65.5859 151 56.0797 149.219 46.7786 145.659C37.6144 141.961 29.3392 136.414 21.9531 129.018C14.8406 121.759 9.36941 113.61 5.53958 104.57C1.84653 95.3937 0 85.7379 0 75.6027C0 65.3306 1.84653 55.6748 5.53958 46.6354C9.36941 37.459 14.8406 29.3098 21.9531 22.1878C29.3392 14.7918 37.6828 9.2449 46.9838 5.54694C56.2848 1.84898 65.7226 0 75.2972 0C85.0086 0 94.4464 1.84898 103.611 5.54694C112.912 9.2449 121.255 14.7918 128.641 22.1878L104.226 46.6354C100.26 42.6635 95.7458 39.7188 90.6849 37.8014C85.6241 35.7469 80.4948 34.7197 75.2972 34.7197C70.0996 34.7197 64.9703 35.7469 59.9095 37.8014C54.9854 39.7188 50.5401 42.6635 46.5735 46.6354C42.7437 50.6073 39.8029 55.0585 37.7512 59.9891C35.6995 64.9197 34.6736 70.1243 34.6736 75.6027C34.6736 81.0812 35.6995 86.2857 37.7512 91.2163C39.8029 96.01 42.7437 100.393 46.5735 104.365C50.5401 108.337 54.9854 111.35 59.9095 113.404C64.9703 115.322 70.0996 116.28 75.2972 116.28C80.4948 116.28 85.6241 115.322 90.6849 113.404C95.7458 111.35 100.26 108.337 104.226 104.365L128.641 129.018C121.255 136.414 112.98 141.961 103.816 145.659C94.6515 149.219 85.1453 151 75.2972 151Z" fill="white"/>
<path d="M187.515 151C177.804 151 168.298 149.219 158.997 145.659C149.833 141.961 141.557 136.414 134.171 129.018C127.059 121.759 121.588 113.61 117.758 104.57C114.065 95.3937 112.218 85.7379 112.218 75.6027C112.218 65.3306 114.065 55.6748 117.758 46.6354C121.588 37.459 127.059 29.3098 134.171 22.1878C141.557 14.7918 149.901 9.2449 159.202 5.54694C168.503 1.84898 177.941 0 187.515 0C197.227 0 206.664 1.84898 215.829 5.54694C225.13 9.2449 233.473 14.7918 240.859 22.1878L216.444 46.6354C212.478 42.6635 207.964 39.7188 202.903 37.8014C197.842 35.7469 192.713 34.7197 187.515 34.7197C182.318 34.7197 177.188 35.7469 172.128 37.8014C167.204 39.7188 162.758 42.6635 158.792 46.6354C154.962 50.6073 152.021 55.0585 149.969 59.9891C147.918 64.9197 146.892 70.1243 146.892 75.6027C146.892 81.0812 147.918 86.2857 149.969 91.2163C152.021 96.01 154.962 100.393 158.792 104.365C162.758 108.337 167.204 111.35 172.128 113.404C177.188 115.322 182.318 116.28 187.515 116.28C192.713 116.28 197.842 115.322 202.903 113.404C207.964 111.35 212.478 108.337 216.444 104.365L240.859 129.018C233.473 136.414 225.198 141.961 216.034 145.659C206.87 149.219 197.363 151 187.515 151Z" fill="white"/>
<path d="M299.733 151C290.022 151 280.516 149.219 271.215 145.659C262.051 141.961 253.775 136.414 246.389 129.018C239.277 121.759 233.806 113.61 229.976 104.57C226.283 95.3937 224.436 85.7379 224.436 75.6027C224.436 65.3306 226.283 55.6748 229.976 46.6354C233.806 37.459 239.277 29.3098 246.389 22.1878C253.775 14.7918 262.119 9.2449 271.42 5.54694C280.721 1.84898 290.159 0 299.733 0C309.445 0 318.883 1.84898 328.047 5.54694C337.348 9.2449 345.691 14.7918 353.077 22.1878L328.662 46.6354C324.696 42.6635 320.182 39.7188 315.121 37.8014C310.06 35.7469 304.931 34.7197 299.733 34.7197C294.536 34.7197 289.407 35.7469 284.346 37.8014C279.422 39.7188 274.976 42.6635 271.01 46.6354C267.18 50.6073 264.239 55.0585 262.187 59.9891C260.136 64.9197 259.11 70.1243 259.11 75.6027C259.11 81.0812 260.136 86.2857 262.187 91.2163C264.239 96.01 267.18 100.393 271.01 104.365C274.976 108.337 279.422 111.35 284.346 113.404C289.407 115.322 294.536 116.28 299.733 116.28C304.931 116.28 310.06 115.322 315.121 113.404C320.182 111.35 324.696 108.337 328.662 104.365L353.077 129.018C345.691 136.414 337.416 141.961 328.252 145.659C319.088 149.219 309.582 151 299.733 151Z" fill="white"/>
<path d="M398 146.925H363.326V4.4855H398V146.925Z" fill="white"/>
</svg>
