<svg width="654" height="654" viewBox="0 0 654 654" fill="none" xmlns="http://www.w3.org/2000/svg">
<path d="M112.14 653.6C40.338 581.798 4.74244e-06 484.413 0 382.87C-4.74244e-06 281.326 40.3379 183.942 112.14 112.14C183.942 40.3379 281.326 2.14257e-06 382.87 0C484.413 -2.14257e-06 581.797 40.3379 653.599 112.14L545.308 220.432C502.226 177.351 443.796 153.148 382.87 153.148C321.944 153.148 263.513 177.351 220.432 220.432C177.351 263.513 153.148 321.944 153.148 382.87C153.148 443.796 177.351 502.226 220.432 545.308L112.14 653.6Z" fill="#F9FAFB"/>
<path d="M220.432 545.308C263.513 588.389 321.943 612.592 382.869 612.592C443.795 612.592 502.226 588.389 545.307 545.308C588.389 502.227 612.591 443.796 612.591 382.87C612.591 321.944 588.389 263.513 545.308 220.432L480.332 285.407C506.181 311.256 520.703 346.314 520.703 382.87C520.703 419.426 506.181 454.484 480.332 480.333C454.483 506.181 419.425 520.703 382.87 520.703C346.314 520.703 311.255 506.181 285.407 480.333L220.432 545.308Z" fill="#F9FAFB"/>
<path d="M285.407 480.333C259.558 454.484 245.036 419.426 245.036 382.87C245.036 346.314 259.558 311.256 285.407 285.407C311.256 259.559 346.314 245.037 382.87 245.037C419.425 245.037 454.484 259.559 480.332 285.407L441.347 324.392C425.838 308.883 404.803 300.17 382.87 300.17C360.936 300.17 339.901 308.883 324.392 324.392C308.883 339.902 300.17 360.937 300.17 382.87C300.17 404.803 308.883 425.838 324.392 441.348L285.407 480.333Z" fill="#F9FAFB"/>
<path d="M346.772 418.967C366.708 438.903 399.031 438.903 418.967 418.967C438.903 399.031 438.903 366.709 418.967 346.773C399.031 326.837 366.708 326.837 346.772 346.773C326.836 366.709 326.836 399.031 346.772 418.967Z" fill="#F9FAFB"/>
</svg>
