<svg width="36" height="36" viewBox="0 0 36 36" fill="none" xmlns="http://www.w3.org/2000/svg">
<path d="M32.6698 7.02422L28.3908 2.74922C27.8685 2.2269 27.1694 1.93359 26.4301 1.93359C25.6908 1.93359 24.9917 2.22288 24.4694 2.74922L19.8609 7.34967C19.3386 7.87199 19.0453 8.57511 19.0453 9.3144C19.0453 10.0577 19.3346 10.7528 19.8609 11.2791L23.4609 14.8831C22.6408 16.794 21.4624 18.5301 19.9895 19.9979C18.5149 21.4805 16.7913 22.6497 14.8788 23.4773L11.2788 19.8733C10.7564 19.351 10.0573 19.0577 9.31804 19.0577C8.95339 19.0564 8.59214 19.1278 8.25546 19.2679C7.91878 19.4079 7.61343 19.6138 7.35733 19.8733L2.74482 24.4738C2.2225 24.9961 1.9292 25.6992 1.9292 26.4385C1.9292 27.1818 2.21849 27.8769 2.74482 28.4032L7.01982 32.6782C7.91179 33.5702 9.14125 34.0805 10.4029 34.0805C10.664 34.0805 10.9171 34.0604 11.1743 34.0162C16.4939 33.1403 21.7734 30.3077 26.0363 26.0488C30.2953 21.7818 33.1238 16.5023 34.0078 11.1787C34.2609 9.66797 33.7546 8.11306 32.6698 7.02422ZM31.1591 10.7006C30.3756 15.4376 27.8283 20.1626 23.9913 23.9997C20.1542 27.8367 15.4332 30.384 10.6962 31.1675C10.1015 31.268 9.49081 31.0671 9.05688 30.6372L4.85822 26.4385L9.31 21.9827L14.1234 26.8041L14.1596 26.8403L15.0274 26.5189C17.6588 25.5514 20.0484 24.0233 22.0305 22.0405C24.0126 20.0577 25.5399 17.6676 26.5064 15.0358L26.8279 14.168L21.9743 9.31842L26.4261 4.86261L30.6247 9.06127C31.0587 9.4952 31.2596 10.1059 31.1591 10.7006Z" fill="#fff" fill-opacity="1"/>
</svg>
