<svg width="19" height="19" viewBox="0 0 19 19" fill="none" xmlns="http://www.w3.org/2000/svg">
<path d="M11.8684 9.62305L18.1532 3.33821C18.4515 3.04046 18.6193 2.63641 18.6197 2.21495C18.62 1.7935 18.453 1.38916 18.1552 1.09088C17.8575 0.792602 17.4534 0.624823 17.032 0.624451C16.6105 0.624078 16.2062 0.791144 15.9079 1.08889L9.62305 7.37374L3.33821 1.08889C3.03993 0.790617 2.63538 0.623047 2.21355 0.623047C1.79172 0.623047 1.38717 0.790617 1.08889 1.08889C0.790617 1.38717 0.623047 1.79172 0.623047 2.21355C0.623047 2.63538 0.790617 3.03993 1.08889 3.33821L7.37374 9.62305L1.08889 15.9079C0.790617 16.2062 0.623047 16.6107 0.623047 17.0325C0.623047 17.4544 0.790617 17.8589 1.08889 18.1572C1.38717 18.4555 1.79172 18.623 2.21355 18.623C2.63538 18.623 3.03993 18.4555 3.33821 18.1572L9.62305 11.8724L15.9079 18.1572C16.2062 18.4555 16.6107 18.623 17.0325 18.623C17.4544 18.623 17.8589 18.4555 18.1572 18.1572C18.4555 17.8589 18.623 17.4544 18.623 17.0325C18.623 16.6107 18.4555 16.2062 18.1572 15.9079L11.8684 9.62305Z" fill="white"/>
</svg>
