<svg width="40" height="26" viewBox="0 0 40 26" fill="none" xmlns="http://www.w3.org/2000/svg">
<path fill-rule="evenodd" clip-rule="evenodd" d="M40 12.6572C40 12.2843 39.8519 11.9266 39.5882 11.6629C39.3244 11.3992 38.9668 11.251 38.5938 11.251H5.4282L14.2786 2.40349C14.5426 2.13946 14.6909 1.78134 14.6909 1.40793C14.6909 1.03453 14.5426 0.676413 14.2786 0.412374C14.0145 0.148335 13.6564 8.79778e-09 13.283 0C12.9096 -8.79778e-09 12.5515 0.148335 12.2874 0.412374L1.0382 11.6616C0.9072 11.7923 0.803299 11.9474 0.732399 12.1183C0.661599 12.2891 0.625099 12.4722 0.625099 12.6572C0.625099 12.8422 0.661599 13.0253 0.732399 13.1961C0.803299 13.367 0.9072 13.5221 1.0382 13.6528L12.2874 24.902C12.5515 25.1661 12.9096 25.3144 13.283 25.3144C13.6564 25.3144 14.0145 25.1661 14.2786 24.902C14.5426 24.638 14.6909 24.2799 14.6909 23.9065C14.6909 23.5331 14.5426 23.1749 14.2786 22.9109L5.4282 14.0634H38.5938C38.9668 14.0634 39.3244 13.9152 39.5882 13.6515C39.8519 13.3878 40 13.0301 40 12.6572Z" fill="white"/>
</svg>
