<svg width="36" height="36" viewBox="0 0 36 36" fill="none" xmlns="http://www.w3.org/2000/svg">
<path d="M19.2055 3.53711H16.7948C16.5805 3.53711 16.4734 3.64425 16.4734 3.85854V16.4746H4.50112C4.28683 16.4746 4.17969 16.5818 4.17969 16.796V19.2068C4.17969 19.421 4.28683 19.5282 4.50112 19.5282H16.4734V32.1443C16.4734 32.3585 16.5805 32.4657 16.7948 32.4657H19.2055C19.4198 32.4657 19.527 32.3585 19.527 32.1443V19.5282H31.5011C31.7154 19.5282 31.8225 19.421 31.8225 19.2068V16.796C31.8225 16.5818 31.7154 16.4746 31.5011 16.4746H19.527V3.85854C19.527 3.64425 19.4198 3.53711 19.2055 3.53711Z" fill="#1756C0" fill-opacity="0.85"/>
</svg>
