<svg width="21" height="21" viewBox="0 0 21 21" fill="none" xmlns="http://www.w3.org/2000/svg">
<path d="M11.7099 1.28994C11.617 1.19621 11.5064 1.12182 11.3845 1.07105C11.2627 1.02028 11.132 0.994141 10.9999 0.994141C10.8679 0.994141 10.7372 1.02028 10.6154 1.07105C10.4935 1.12182 10.3829 1.19621 10.2899 1.28994L1.28994 10.2899C1.19621 10.3829 1.12182 10.4935 1.07105 10.6154C1.02028 10.7372 0.994141 10.8679 0.994141 10.9999C0.994141 11.132 1.02028 11.2627 1.07105 11.3845C1.12182 11.5064 1.19621 11.617 1.28994 11.7099C1.38338 11.8026 1.49419 11.8759 1.61603 11.9257C1.73787 11.9755 1.86833 12.0007 1.99994 11.9999H2.99994V18.9999C2.99994 19.5304 3.21065 20.0391 3.58573 20.4142C3.9608 20.7892 4.46951 20.9999 4.99994 20.9999H16.9999C17.5304 20.9999 18.0391 20.7892 18.4142 20.4142C18.7892 20.0391 18.9999 19.5304 18.9999 18.9999V11.9999H19.9999C20.2652 11.9999 20.5195 11.8946 20.707 11.707C20.8946 11.5195 20.9999 11.2652 20.9999 10.9999C21.0007 10.8683 20.9755 10.7379 20.9257 10.616C20.8759 10.4942 20.8026 10.3834 20.7099 10.2899L11.7099 1.28994ZM4.99994 18.9999V9.40994L10.9999 3.40994L16.9999 9.40994V18.9999H4.99994Z" fill="white"/>
</svg>
