<svg width="36" height="36" viewBox="0 0 36 36" fill="none" xmlns="http://www.w3.org/2000/svg">
<path d="M31.7658 9.04671C31.0094 7.30248 29.9188 5.72322 28.5555 4.39805C27.1878 3.0609 25.5754 1.99962 23.8064 1.27215C21.9663 0.508761 20.0136 0.123047 18.0006 0.123047C15.9877 0.123047 14.035 0.508761 12.1948 1.26814C10.4149 2.0034 8.81982 3.05608 7.44572 4.39403C6.08335 5.71994 4.99288 7.29902 4.23545 9.04269C3.45197 10.8507 3.0542 12.7713 3.0542 14.748C3.0542 17.5847 3.73322 20.4092 5.06715 23.1333C6.13991 25.323 7.63857 27.4565 9.52697 29.4855C12.7533 32.9489 16.1363 35.0663 17.0966 35.6329C17.3692 35.7938 17.6801 35.8785 17.9966 35.878C18.31 35.878 18.6194 35.7976 18.8966 35.6329C19.8569 35.0663 23.2399 32.9489 26.4663 29.4855C28.3546 27.4605 29.8533 25.323 30.9261 23.1333C32.268 20.4132 32.9471 17.5927 32.9471 14.7521C32.9471 12.7753 32.5493 10.8547 31.7658 9.04671ZM18.0006 32.7963C15.3529 31.1128 5.94706 24.4472 5.94706 14.7521C5.94706 11.6222 7.19661 8.68108 9.4667 6.46323C11.7448 4.24135 14.7743 3.0159 18.0006 3.0159C21.227 3.0159 24.2564 4.24135 26.5346 6.46724C28.8046 8.68108 30.0542 11.6222 30.0542 14.7521C30.0542 24.4472 20.6484 31.1128 18.0006 32.7963ZM18.0006 7.99805C14.0953 7.99805 10.9292 11.1641 10.9292 15.0695C10.9292 18.9748 14.0953 22.1409 18.0006 22.1409C21.906 22.1409 25.0721 18.9748 25.0721 15.0695C25.0721 11.1641 21.906 7.99805 18.0006 7.99805ZM21.1828 18.2516C20.7654 18.6702 20.2694 19.0021 19.7233 19.2283C19.1772 19.4544 18.5917 19.5704 18.0006 19.5695C16.7993 19.5695 15.6703 19.0994 14.8185 18.2516C14.3999 17.8343 14.068 17.3382 13.8418 16.7921C13.6157 16.246 13.4997 15.6606 13.5006 15.0695C13.5006 13.8681 13.9707 12.7391 14.8185 11.8873C15.6703 11.0355 16.7993 10.5695 18.0006 10.5695C19.202 10.5695 20.331 11.0355 21.1828 11.8873C22.0346 12.7391 22.5006 13.8681 22.5006 15.0695C22.5006 16.2708 22.0346 17.3998 21.1828 18.2516Z" fill="#fff" fill-opacity="1"/>
</svg>
