<svg width="37" height="36" viewBox="0 0 37 36" fill="none" xmlns="http://www.w3.org/2000/svg">
<g clip-path="url(#clip0_27_54)">
<path d="M27.9877 -0.0876465H9.34487C7.92656 -0.0876465 6.77344 1.06548 6.77344 2.48378V33.3409C6.77344 34.7592 7.92656 35.9124 9.34487 35.9124H27.9877C29.406 35.9124 30.5592 34.7592 30.5592 33.3409V2.48378C30.5592 1.06548 29.406 -0.0876465 27.9877 -0.0876465ZM27.6663 33.0195H9.66629V2.80521H27.6663V33.0195ZM17.0592 28.9213C17.0592 29.3475 17.2285 29.7563 17.5299 30.0577C17.8313 30.3591 18.2401 30.5284 18.6663 30.5284C19.0925 30.5284 19.5013 30.3591 19.8027 30.0577C20.1041 29.7563 20.2734 29.3475 20.2734 28.9213C20.2734 28.495 20.1041 28.0863 19.8027 27.7849C19.5013 27.4835 19.0925 27.3141 18.6663 27.3141C18.2401 27.3141 17.8313 27.4835 17.5299 27.7849C17.2285 28.0863 17.0592 28.495 17.0592 28.9213Z" fill="white"/>
</g>
<defs>
<clipPath id="clip0_27_54">
<rect width="36" height="36" fill="white" transform="translate(0.666992)"/>
</clipPath>
</defs>
</svg>
