<svg width="37" height="36" viewBox="0 0 37 36" fill="none" xmlns="http://www.w3.org/2000/svg">
<g clip-path="url(#clip0_27_43)">
<path d="M35.0478 3.84985H1.61921C0.90805 3.84985 0.333496 4.42441 0.333496 5.13557V30.8499C0.333496 31.561 0.90805 32.1356 1.61921 32.1356H35.0478C35.7589 32.1356 36.3335 31.561 36.3335 30.8499V5.13557C36.3335 4.42441 35.7589 3.84985 35.0478 3.84985ZM33.4406 8.30164V29.2427H3.22635V8.30164L2.11742 7.4378L3.69644 5.40878L5.41609 6.74673H31.2549L32.9746 5.40878L34.5536 7.4378L33.4406 8.30164ZM31.2549 6.74271L18.3335 16.7874L5.41207 6.74271L3.69242 5.40476L2.11341 7.43378L3.22234 8.29762L16.9473 18.9691C17.342 19.2757 17.8276 19.4422 18.3275 19.4422C18.8273 19.4422 19.3129 19.2757 19.7076 18.9691L33.4406 8.30164L34.5496 7.4378L32.9706 5.40878L31.2549 6.74271Z" fill="white" fill-opacity="0.85"/>
</g>
<defs>
<clipPath id="clip0_27_43">
<rect width="36" height="36" fill="white" transform="translate(0.333496)"/>
</clipPath>
</defs>
</svg>
