<svg width="34" height="33" viewBox="0 0 34 33" fill="none" xmlns="http://www.w3.org/2000/svg">
<circle cx="17" cy="16.5" r="15" fill="#49A55D" stroke="#FBFCFF" stroke-width="3"/>
<g clip-path="url(#clip0_1_159)">
<path d="M24.5 16C24.5 19.3827 21.3658 22.125 17.5 22.125C16.8067 22.1259 16.1163 22.0359 15.4464 21.8573C14.9354 22.1163 13.762 22.6133 11.788 22.937C11.613 22.965 11.48 22.783 11.5491 22.6202C11.8589 21.8888 12.1389 20.914 12.2229 20.025C11.151 18.9488 10.5 17.54 10.5 16C10.5 12.6172 13.6342 9.875 17.5 9.875C21.3658 9.875 24.5 12.6172 24.5 16ZM14.875 16C14.875 15.7679 14.7828 15.5454 14.6187 15.3813C14.4546 15.2172 14.2321 15.125 14 15.125C13.7679 15.125 13.5454 15.2172 13.3813 15.3813C13.2172 15.5454 13.125 15.7679 13.125 16C13.125 16.2321 13.2172 16.4546 13.3813 16.6187C13.5454 16.7828 13.7679 16.875 14 16.875C14.2321 16.875 14.4546 16.7828 14.6187 16.6187C14.7828 16.4546 14.875 16.2321 14.875 16ZM18.375 16C18.375 15.7679 18.2828 15.5454 18.1187 15.3813C17.9546 15.2172 17.7321 15.125 17.5 15.125C17.2679 15.125 17.0454 15.2172 16.8813 15.3813C16.7172 15.5454 16.625 15.7679 16.625 16C16.625 16.2321 16.7172 16.4546 16.8813 16.6187C17.0454 16.7828 17.2679 16.875 17.5 16.875C17.7321 16.875 17.9546 16.7828 18.1187 16.6187C18.2828 16.4546 18.375 16.2321 18.375 16ZM21 16.875C21.2321 16.875 21.4546 16.7828 21.6187 16.6187C21.7828 16.4546 21.875 16.2321 21.875 16C21.875 15.7679 21.7828 15.5454 21.6187 15.3813C21.4546 15.2172 21.2321 15.125 21 15.125C20.7679 15.125 20.5454 15.2172 20.3813 15.3813C20.2172 15.5454 20.125 15.7679 20.125 16C20.125 16.2321 20.2172 16.4546 20.3813 16.6187C20.5454 16.7828 20.7679 16.875 21 16.875Z" fill="white"/>
</g>
<defs>
<clipPath id="clip0_1_159">
<rect x="10.5" y="9" width="14" height="14" fill="white"/>
</clipPath>
</defs>
</svg>
