<svg width="124" height="29" viewBox="0 0 124 29" fill="none" xmlns="http://www.w3.org/2000/svg">
<path d="M25.4951 28.3911H18.6811L7.28458 11.1369V28.3911H0.470575V0.417827H7.28458L18.6811 17.7517V0.417827H25.4951V28.3911ZM60.4731 0.417827V28.3911H53.6591V16.875H43.0596V28.3911H36.2456V0.417827H43.0596V11.376H53.6591V0.417827H60.4731ZM88.1387 14.0458C89.7592 14.3912 91.0609 15.2014 92.0438 16.4766C93.0268 17.7251 93.5182 19.1597 93.5182 20.7801C93.5182 23.1179 92.6947 24.9775 91.0476 26.3589C89.4272 27.7137 87.1558 28.3911 84.2336 28.3911H71.2033V0.417827H83.7953C86.6378 0.417827 88.856 1.06868 90.4499 2.37038C92.0704 3.67208 92.8806 5.43867 92.8806 7.67016C92.8806 9.31721 92.4423 10.6853 91.5657 11.7745C90.7156 12.8637 89.5733 13.6208 88.1387 14.0458ZM78.0173 11.7347H82.4803C83.5961 11.7347 84.4462 11.4956 85.0306 11.0174C85.6416 10.5127 85.9471 9.7821 85.9471 8.82575C85.9471 7.8694 85.6416 7.13885 85.0306 6.63411C84.4462 6.12937 83.5961 5.877 82.4803 5.877H78.0173V11.7347ZM83.0382 22.8921C84.1805 22.8921 85.0572 22.6397 85.6682 22.135C86.3057 21.6037 86.6245 20.8466 86.6245 19.8636C86.6245 18.8807 86.2924 18.1103 85.6283 17.5525C84.9907 16.9946 84.1008 16.7157 82.9585 16.7157H78.0173V22.8921H83.0382Z" fill="black"/>
<path d="M123.484 17.5126H116.551V24.6056H110.095V17.5126H103.162V11.4159H110.095V4.28308H116.551V11.4159H123.484V17.5126Z" fill="#FFC700"/>
</svg>
