<svg width="270" height="38" viewBox="0 0 270 38" fill="none" xmlns="http://www.w3.org/2000/svg">
<rect x="1.37891" y="33.5879" width="115" height="4" fill="#FFC700"/>
<path d="M15.0331 23.0967H11.4314L5.40756 13.9766V23.0967H1.80588V8.3108H5.40756L11.4314 17.473V8.3108H15.0331V23.0967ZM27.7083 23.2441C26.3181 23.2441 25.0403 22.9212 23.8749 22.2752C22.7235 21.6293 21.8037 20.7307 21.1157 19.5792C20.4417 18.4138 20.1047 17.1079 20.1047 15.6616C20.1047 14.2153 20.4417 12.9165 21.1157 11.7651C21.8037 10.6136 22.7235 9.71497 23.8749 9.06905C25.0403 8.42313 26.3181 8.10018 27.7083 8.10018C29.0984 8.10018 30.3692 8.42313 31.5206 9.06905C32.686 9.71497 33.5987 10.6136 34.2587 11.7651C34.9327 12.9165 35.2697 14.2153 35.2697 15.6616C35.2697 17.1079 34.9327 18.4138 34.2587 19.5792C33.5847 20.7307 32.672 21.6293 31.5206 22.2752C30.3692 22.9212 29.0984 23.2441 27.7083 23.2441ZM27.7083 19.9584C28.8878 19.9584 29.8286 19.5652 30.5306 18.7789C31.2468 17.9925 31.6048 16.9534 31.6048 15.6616C31.6048 14.3557 31.2468 13.3167 30.5306 12.5444C29.8286 11.758 28.8878 11.3649 27.7083 11.3649C26.5147 11.3649 25.5599 11.751 24.8438 12.5233C24.1417 13.2956 23.7906 14.3417 23.7906 15.6616C23.7906 16.9675 24.1417 18.0136 24.8438 18.7999C25.5599 19.5722 26.5147 19.9584 27.7083 19.9584ZM50.9816 8.3108V11.1964H47.064V23.0967H43.4623V11.1964H39.5447V8.3108H50.9816ZM68.6668 8.3108V23.0967H65.0651V17.0096H59.4625V23.0967H55.8608V8.3108H59.4625V14.103H65.0651V8.3108H68.6668ZM77.9402 8.3108V23.0967H74.3385V8.3108H77.9402ZM96.8492 23.0967H93.2475L87.2236 13.9766V23.0967H83.6219V8.3108H87.2236L93.2475 17.473V8.3108H96.8492V23.0967ZM112.347 12.9867C112.08 12.4952 111.694 12.1231 111.188 11.8704C110.697 11.6036 110.114 11.4702 109.44 11.4702C108.275 11.4702 107.341 11.8563 106.639 12.6286C105.937 13.3869 105.586 14.4049 105.586 15.6827C105.586 17.0447 105.951 18.1119 106.681 18.8842C107.425 19.6424 108.443 20.0216 109.735 20.0216C110.62 20.0216 111.364 19.7969 111.968 19.3476C112.585 18.8982 113.035 18.2523 113.316 17.4098H108.745V14.7559H116.58V18.1049C116.313 19.0035 115.857 19.839 115.211 20.6113C114.579 21.3836 113.772 22.0085 112.789 22.4859C111.806 22.9633 110.697 23.202 109.461 23.202C108.001 23.202 106.695 22.8861 105.543 22.2542C104.406 21.6083 103.514 20.7166 102.869 19.5792C102.237 18.4419 101.921 17.143 101.921 15.6827C101.921 14.2223 102.237 12.9235 102.869 11.7861C103.514 10.6347 104.406 9.74305 105.543 9.11118C106.681 8.46526 107.98 8.1423 109.44 8.1423C111.209 8.1423 112.698 8.57057 113.905 9.42711C115.127 10.2837 115.934 11.4702 116.327 12.9867H112.347ZM141.988 8.3108V23.0967H138.386V17.0096H132.784V23.0967H129.182V8.3108H132.784V14.103H138.386V8.3108H141.988ZM151.261 11.1964V14.1872H156.085V16.9675H151.261V20.2111H156.716V23.0967H147.66V8.3108H156.716V11.1964H151.261ZM165.728 20.3164H170.446V23.0967H162.126V8.3108H165.728V20.3164ZM180.775 8.3108C182.334 8.3108 183.696 8.61972 184.861 9.23755C186.027 9.85538 186.925 10.726 187.557 11.8493C188.203 12.9586 188.526 14.2434 188.526 15.7037C188.526 17.15 188.203 18.4348 187.557 19.5582C186.925 20.6815 186.02 21.5521 184.84 22.1699C183.675 22.7878 182.32 23.0967 180.775 23.0967H175.236V8.3108H180.775ZM180.543 19.9794C181.905 19.9794 182.966 19.6073 183.724 18.8631C184.482 18.1189 184.861 17.0658 184.861 15.7037C184.861 14.3417 184.482 13.2816 183.724 12.5233C182.966 11.7651 181.905 11.3859 180.543 11.3859H178.837V19.9794H180.543ZM210.097 15.5142C210.954 15.6967 211.642 16.125 212.161 16.799C212.681 17.4589 212.94 18.2172 212.94 19.0737C212.94 20.3094 212.505 21.2923 211.635 22.0225C210.778 22.7386 209.578 23.0967 208.033 23.0967H201.145V8.3108H207.801C209.304 8.3108 210.476 8.65482 211.319 9.34286C212.175 10.0309 212.603 10.9647 212.603 12.1442C212.603 13.0148 212.372 13.7379 211.908 14.3136C211.459 14.8893 210.855 15.2895 210.097 15.5142ZM204.747 14.2926H207.106C207.696 14.2926 208.145 14.1662 208.454 13.9134C208.777 13.6466 208.939 13.2605 208.939 12.755C208.939 12.2495 208.777 11.8633 208.454 11.5966C208.145 11.3298 207.696 11.1964 207.106 11.1964H204.747V14.2926ZM207.401 20.1901C208.005 20.1901 208.468 20.0567 208.791 19.7899C209.128 19.509 209.297 19.1088 209.297 18.5893C209.297 18.0698 209.121 17.6626 208.77 17.3677C208.433 17.0728 207.963 16.9254 207.359 16.9254H204.747V20.1901H207.401ZM227.305 20.4849H221.787L220.902 23.0967H217.132L222.482 8.3108H226.652L232.002 23.0967H228.19L227.305 20.4849ZM226.379 17.7047L224.546 12.2916L222.735 17.7047H226.379ZM236.091 15.6827C236.091 14.2223 236.407 12.9235 237.039 11.7861C237.671 10.6347 238.549 9.74305 239.672 9.11118C240.809 8.46526 242.094 8.1423 243.526 8.1423C245.282 8.1423 246.784 8.60567 248.034 9.53242C249.284 10.4592 250.119 11.7229 250.54 13.3237H246.58C246.286 12.7058 245.864 12.2354 245.317 11.9125C244.783 11.5895 244.172 11.4281 243.484 11.4281C242.375 11.4281 241.476 11.8142 240.788 12.5865C240.1 13.3588 239.756 14.3908 239.756 15.6827C239.756 16.9745 240.1 18.0066 240.788 18.7789C241.476 19.5512 242.375 19.9373 243.484 19.9373C244.172 19.9373 244.783 19.7758 245.317 19.4529C245.864 19.1299 246.286 18.6595 246.58 18.0417H250.54C250.119 19.6424 249.284 20.9062 248.034 21.8329C246.784 22.7456 245.282 23.202 243.526 23.202C242.094 23.202 240.809 22.8861 239.672 22.2542C238.549 21.6083 237.671 20.7166 237.039 19.5792C236.407 18.4419 236.091 17.143 236.091 15.6827ZM264.39 23.0967L259.419 16.5673V23.0967H255.818V8.3108H259.419V14.7981L264.348 8.3108H268.581L262.852 15.5563L268.792 23.0967H264.39Z" fill="black"/>
</svg>
