<svg width="278" height="32" viewBox="0 0 278 32" fill="none" xmlns="http://www.w3.org/2000/svg">
<rect x="5.61914" y="28.6418" width="114.904" height="2" fill="#FFC700"/>
<path d="M17.0391 22.6418H13.9611L8.81314 14.8478V22.6418H5.73514V10.0058H8.81314L13.9611 17.8358V10.0058H17.0391V22.6418ZM28.3179 22.7678C27.1299 22.7678 26.0379 22.4918 25.0419 21.9398C24.0579 21.3878 23.2719 20.6198 22.6839 19.6358C22.1079 18.6398 21.8199 17.5238 21.8199 16.2878C21.8199 15.0518 22.1079 13.9418 22.6839 12.9578C23.2719 11.9738 24.0579 11.2058 25.0419 10.6538C26.0379 10.1018 27.1299 9.82585 28.3179 9.82585C29.5059 9.82585 30.5919 10.1018 31.5759 10.6538C32.5719 11.2058 33.3519 11.9738 33.9159 12.9578C34.4919 13.9418 34.7799 15.0518 34.7799 16.2878C34.7799 17.5238 34.4919 18.6398 33.9159 19.6358C33.3399 20.6198 32.5599 21.3878 31.5759 21.9398C30.5919 22.4918 29.5059 22.7678 28.3179 22.7678ZM28.3179 19.9598C29.3259 19.9598 30.1299 19.6238 30.7299 18.9518C31.3419 18.2798 31.6479 17.3918 31.6479 16.2878C31.6479 15.1718 31.3419 14.2838 30.7299 13.6238C30.1299 12.9518 29.3259 12.6158 28.3179 12.6158C27.2979 12.6158 26.4819 12.9458 25.8699 13.6058C25.2699 14.2658 24.9699 15.1598 24.9699 16.2878C24.9699 17.4038 25.2699 18.2978 25.8699 18.9698C26.4819 19.6298 27.2979 19.9598 28.3179 19.9598ZM48.6539 10.0058V12.4718H45.3059V22.6418H42.2279V12.4718H38.8799V10.0058H48.6539ZM64.2143 10.0058V22.6418H61.1363V17.4398H56.3483V22.6418H53.2703V10.0058H56.3483V14.9558H61.1363V10.0058H64.2143ZM72.5859 10.0058V22.6418H69.5079V10.0058H72.5859ZM89.1921 22.6418H86.1141L80.9661 14.8478V22.6418H77.8881V10.0058H80.9661L86.1141 17.8358V10.0058H89.1921V22.6418ZM102.883 14.0018C102.655 13.5818 102.325 13.2638 101.893 13.0478C101.473 12.8198 100.975 12.7058 100.399 12.7058C99.4029 12.7058 98.6049 13.0358 98.0049 13.6958C97.4049 14.3438 97.1049 15.2138 97.1049 16.3058C97.1049 17.4698 97.4169 18.3818 98.0409 19.0418C98.6769 19.6898 99.5469 20.0138 100.651 20.0138C101.407 20.0138 102.043 19.8218 102.559 19.4378C103.087 19.0538 103.471 18.5018 103.711 17.7818H99.8049V15.5138H106.501V18.3758C106.273 19.1438 105.883 19.8578 105.331 20.5178C104.791 21.1778 104.101 21.7118 103.261 22.1198C102.421 22.5278 101.473 22.7318 100.417 22.7318C99.1689 22.7318 98.0529 22.4618 97.0689 21.9218C96.0969 21.3698 95.3349 20.6078 94.7829 19.6358C94.2429 18.6638 93.9729 17.5538 93.9729 16.3058C93.9729 15.0578 94.2429 13.9478 94.7829 12.9758C95.3349 11.9918 96.0969 11.2298 97.0689 10.6898C98.0409 10.1378 99.1509 9.86185 100.399 9.86185C101.911 9.86185 103.183 10.2278 104.215 10.9598C105.259 11.6918 105.949 12.7058 106.285 14.0018H102.883ZM129.108 10.0058V22.6418H126.03V17.4398H121.242V22.6418H118.164V10.0058H121.242V14.9558H126.03V10.0058H129.108ZM137.479 12.4718V15.0278H141.601V17.4038H137.479V20.1758H142.141V22.6418H134.401V10.0058H142.141V12.4718H137.479ZM150.289 20.2658H154.321V22.6418H147.211V10.0058H150.289V20.2658ZM163.595 10.0058C164.927 10.0058 166.091 10.2698 167.087 10.7978C168.083 11.3258 168.851 12.0698 169.391 13.0298C169.943 13.9778 170.219 15.0758 170.219 16.3238C170.219 17.5598 169.943 18.6578 169.391 19.6178C168.851 20.5778 168.077 21.3218 167.069 21.8498C166.073 22.3778 164.915 22.6418 163.595 22.6418H158.861V10.0058H163.595ZM163.397 19.9778C164.561 19.9778 165.467 19.6598 166.115 19.0238C166.763 18.3878 167.087 17.4878 167.087 16.3238C167.087 15.1598 166.763 14.2538 166.115 13.6058C165.467 12.9578 164.561 12.6338 163.397 12.6338H161.939V19.9778H163.397ZM189.547 16.1618C190.279 16.3178 190.867 16.6838 191.311 17.2598C191.755 17.8238 191.977 18.4718 191.977 19.2038C191.977 20.2598 191.605 21.0998 190.861 21.7238C190.129 22.3358 189.103 22.6418 187.783 22.6418H181.897V10.0058H187.585C188.869 10.0058 189.871 10.2998 190.591 10.8878C191.323 11.4758 191.689 12.2738 191.689 13.2818C191.689 14.0258 191.491 14.6438 191.095 15.1358C190.711 15.6278 190.195 15.9698 189.547 16.1618ZM184.975 15.1178H186.991C187.495 15.1178 187.879 15.0098 188.143 14.7938C188.419 14.5658 188.557 14.2358 188.557 13.8038C188.557 13.3718 188.419 13.0418 188.143 12.8138C187.879 12.5858 187.495 12.4718 186.991 12.4718H184.975V15.1178ZM187.243 20.1578C187.759 20.1578 188.155 20.0438 188.431 19.8158C188.719 19.5758 188.863 19.2338 188.863 18.7898C188.863 18.3458 188.713 17.9978 188.413 17.7458C188.125 17.4938 187.723 17.3678 187.207 17.3678H184.975V20.1578H187.243ZM204.699 20.4098H199.983L199.227 22.6418H196.005L200.577 10.0058H204.141L208.713 22.6418H205.455L204.699 20.4098ZM203.907 18.0338L202.341 13.4078L200.793 18.0338H203.907ZM212.655 16.3058C212.655 15.0578 212.925 13.9478 213.465 12.9758C214.005 11.9918 214.755 11.2298 215.715 10.6898C216.687 10.1378 217.785 9.86185 219.009 9.86185C220.509 9.86185 221.793 10.2578 222.861 11.0498C223.929 11.8418 224.643 12.9218 225.003 14.2898H221.619C221.367 13.7618 221.007 13.3598 220.539 13.0838C220.083 12.8078 219.561 12.6698 218.973 12.6698C218.025 12.6698 217.257 12.9998 216.669 13.6598C216.081 14.3198 215.787 15.2018 215.787 16.3058C215.787 17.4098 216.081 18.2918 216.669 18.9518C217.257 19.6118 218.025 19.9418 218.973 19.9418C219.561 19.9418 220.083 19.8038 220.539 19.5278C221.007 19.2518 221.367 18.8498 221.619 18.3218H225.003C224.643 19.6898 223.929 20.7698 222.861 21.5618C221.793 22.3418 220.509 22.7318 219.009 22.7318C217.785 22.7318 216.687 22.4618 215.715 21.9218C214.755 21.3698 214.005 20.6078 213.465 19.6358C212.925 18.6638 212.655 17.5538 212.655 16.3058ZM237.285 22.6418L233.037 17.0618V22.6418H229.959V10.0058H233.037V15.5498L237.249 10.0058H240.867L235.971 16.1978L241.047 22.6418H237.285Z" fill="black"/>
<path d="M255.861 16.7278H252.729V19.9318H249.813V16.7278H246.681V13.9738H249.813V10.7518H252.729V13.9738H255.861V16.7278Z" fill="#F4AF32"/>
</svg>
