<svg width="1641" height="655" viewBox="0 0 1641 655" fill="none" xmlns="http://www.w3.org/2000/svg">
<path d="M770.282 116.31V125.978C770.282 133.009 769.184 137.33 763.324 137.33C756.952 137.33 756.293 132.203 756.293 124.879V67.1641C756.293 59.6934 757.099 55.4453 763.251 55.4453C769.477 55.4453 770.282 59.9131 770.282 66.6514V75.3672H786.908V66.5049C786.908 50.8311 781.928 38.6729 763.324 38.6729C744.721 38.6729 739.74 50.2451 739.74 67.2373V125.025C739.74 141.798 744.574 153.077 763.251 153.077C781.781 153.077 786.908 142.018 786.908 126.124V116.31H770.282ZM839.862 151.612V134.84H814.887V103.346H835.541V86.5H814.887V57.0566H839.862V40.2109H798.407V151.612H839.862ZM868.207 151.612L867.621 84.083L884.76 151.612H903.437L903.29 40.2109H886.737L887.25 104.957L871.869 40.2109H851.654V151.612H868.207ZM957.636 57.0566V40.2109H910.468V57.0566H925.702V151.612H942.328V57.0566H957.636ZM981.879 151.612V108.546H985.907C989.643 108.326 993.598 111.915 994.403 123.048L995.355 138.575C995.722 144.361 997.919 150.147 998.505 151.612H1015.64C1014.18 148.17 1012.35 144.142 1012.05 138.062L1011.03 122.682C1010.22 110.89 1008.39 107.447 1003.56 103.346C1009.05 99.0244 1012.86 92.3594 1012.86 83.0576V68.1162C1012.86 47.6084 1005.1 40.2109 989.13 40.2109H965.326V151.612H981.879ZM996.308 80.6406C996.308 86.7197 994.843 91.7002 989.716 91.7002H981.879V57.0566H988.764C993.744 57.0566 996.308 59.1807 996.308 68.6289V80.6406ZM1018.72 151.612H1035.42L1037.69 131.91H1053.44L1055.71 151.612H1072.33L1056.59 40.1377H1034.54L1018.72 151.612ZM1045.53 63.7217L1051.61 116.017H1039.52L1045.53 63.7217ZM1120.01 151.612V134.986H1096.21V40.2109H1079.73V151.612H1120.01ZM1144.4 151.612V40.2109H1127.85V151.612H1144.4ZM1198.6 151.612V134.84H1173.19L1198.53 54.7861V40.2109H1156.05V57.0566H1179.71L1155.02 135.938V151.612H1198.6ZM1250.46 151.612V134.84H1225.48V103.346H1246.14V86.5H1225.48V57.0566H1250.46V40.2109H1209V151.612H1250.46ZM1262.25 40.2109V151.612H1285.47C1303.92 151.612 1308.98 140.187 1308.98 122.975V68.8486C1308.98 51.71 1304 40.2109 1285.61 40.2109H1262.25ZM1285.32 57.0566C1290.81 57.0566 1292.5 59.9131 1292.5 68.7021V122.755C1292.5 131.544 1290.96 134.62 1285.61 134.84H1278.73V57.0566H1285.32Z" fill="black" fill-opacity="0.8"/>
<path d="M770.282 116.31V125.978C770.282 133.009 769.184 137.33 763.324 137.33C756.952 137.33 756.293 132.203 756.293 124.879V67.1641C756.293 59.6934 757.099 55.4453 763.251 55.4453C769.477 55.4453 770.282 59.9131 770.282 66.6514V75.3672H786.908V66.5049C786.908 50.8311 781.928 38.6729 763.324 38.6729C744.721 38.6729 739.74 50.2451 739.74 67.2373V125.025C739.74 141.798 744.574 153.077 763.251 153.077C781.781 153.077 786.908 142.018 786.908 126.124V116.31H770.282ZM839.862 151.612V134.84H814.887V103.346H835.541V86.5H814.887V57.0566H839.862V40.2109H798.407V151.612H839.862ZM868.207 151.612L867.621 84.083L884.76 151.612H903.437L903.29 40.2109H886.737L887.25 104.957L871.869 40.2109H851.654V151.612H868.207ZM957.636 57.0566V40.2109H910.468V57.0566H925.702V151.612H942.328V57.0566H957.636ZM981.879 151.612V108.546H985.907C989.643 108.326 993.598 111.915 994.403 123.048L995.355 138.575C995.722 144.361 997.919 150.147 998.505 151.612H1015.64C1014.18 148.17 1012.35 144.142 1012.05 138.062L1011.03 122.682C1010.22 110.89 1008.39 107.447 1003.56 103.346C1009.05 99.0244 1012.86 92.3594 1012.86 83.0576V68.1162C1012.86 47.6084 1005.1 40.2109 989.13 40.2109H965.326V151.612H981.879ZM996.308 80.6406C996.308 86.7197 994.843 91.7002 989.716 91.7002H981.879V57.0566H988.764C993.744 57.0566 996.308 59.1807 996.308 68.6289V80.6406ZM1018.72 151.612H1035.42L1037.69 131.91H1053.44L1055.71 151.612H1072.33L1056.59 40.1377H1034.54L1018.72 151.612ZM1045.53 63.7217L1051.61 116.017H1039.52L1045.53 63.7217ZM1120.01 151.612V134.986H1096.21V40.2109H1079.73V151.612H1120.01ZM1144.4 151.612V40.2109H1127.85V151.612H1144.4ZM1198.6 151.612V134.84H1173.19L1198.53 54.7861V40.2109H1156.05V57.0566H1179.71L1155.02 135.938V151.612H1198.6ZM1250.46 151.612V134.84H1225.48V103.346H1246.14V86.5H1225.48V57.0566H1250.46V40.2109H1209V151.612H1250.46ZM1262.25 40.2109V151.612H1285.47C1303.92 151.612 1308.98 140.187 1308.98 122.975V68.8486C1308.98 51.71 1304 40.2109 1285.61 40.2109H1262.25ZM1285.32 57.0566C1290.81 57.0566 1292.5 59.9131 1292.5 68.7021V122.755C1292.5 131.544 1290.96 134.62 1285.61 134.84H1278.73V57.0566H1285.32Z" fill="white"/>
<path d="M770.282 268.311V277.979C770.282 285.01 769.184 289.331 763.324 289.331C756.952 289.331 756.293 284.204 756.293 276.88V219.165C756.293 211.694 757.099 207.446 763.251 207.446C769.477 207.446 770.282 211.914 770.282 218.652V227.368H786.908V218.506C786.908 202.832 781.928 190.674 763.324 190.674C744.721 190.674 739.74 202.246 739.74 219.238V277.026C739.74 293.799 744.574 305.078 763.251 305.078C781.781 305.078 786.908 294.019 786.908 278.125V268.311H770.282ZM838.764 303.613V286.987H814.96V192.212H798.48V303.613H838.764ZM844.403 276.44C844.403 293.213 849.311 305.078 868.061 305.078C886.737 305.078 891.718 293.433 891.718 276.44V219.312C891.718 202.539 886.811 190.674 868.061 190.674C849.384 190.674 844.403 202.319 844.403 219.312V276.44ZM868.061 207.446C874.433 207.446 875.092 212.134 875.092 219.385V276.367C875.092 283.911 874.286 288.306 868.061 288.306C861.615 288.306 860.956 283.618 860.956 276.367V219.385C860.956 211.841 861.835 207.446 868.061 207.446ZM933.173 192.212V276.514C933.173 283.472 932.514 288.306 926.142 288.306C919.916 288.306 919.11 283.472 919.11 276.514V192.212H902.631V276.807C902.631 294.019 907.611 305.078 926.142 305.078C944.672 305.078 949.652 294.019 949.652 276.807V192.212H933.173ZM962.689 192.212V303.613H985.907C1004.36 303.613 1009.42 292.188 1009.42 274.976V220.85C1009.42 203.711 1004.44 192.212 986.054 192.212H962.689ZM985.761 209.058C991.254 209.058 992.938 211.914 992.938 220.703V274.756C992.938 283.545 991.4 286.621 986.054 286.841H979.169V209.058H985.761Z" fill="black" fill-opacity="0.8"/>
<path d="M770.282 268.311V277.979C770.282 285.01 769.184 289.331 763.324 289.331C756.952 289.331 756.293 284.204 756.293 276.88V219.165C756.293 211.694 757.099 207.446 763.251 207.446C769.477 207.446 770.282 211.914 770.282 218.652V227.368H786.908V218.506C786.908 202.832 781.928 190.674 763.324 190.674C744.721 190.674 739.74 202.246 739.74 219.238V277.026C739.74 293.799 744.574 305.078 763.251 305.078C781.781 305.078 786.908 294.019 786.908 278.125V268.311H770.282ZM838.764 303.613V286.987H814.96V192.212H798.48V303.613H838.764ZM844.403 276.44C844.403 293.213 849.311 305.078 868.061 305.078C886.737 305.078 891.718 293.433 891.718 276.44V219.312C891.718 202.539 886.811 190.674 868.061 190.674C849.384 190.674 844.403 202.319 844.403 219.312V276.44ZM868.061 207.446C874.433 207.446 875.092 212.134 875.092 219.385V276.367C875.092 283.911 874.286 288.306 868.061 288.306C861.615 288.306 860.956 283.618 860.956 276.367V219.385C860.956 211.841 861.835 207.446 868.061 207.446ZM933.173 192.212V276.514C933.173 283.472 932.514 288.306 926.142 288.306C919.916 288.306 919.11 283.472 919.11 276.514V192.212H902.631V276.807C902.631 294.019 907.611 305.078 926.142 305.078C944.672 305.078 949.652 294.019 949.652 276.807V192.212H933.173ZM962.689 192.212V303.613H985.907C1004.36 303.613 1009.42 292.188 1009.42 274.976V220.85C1009.42 203.711 1004.44 192.212 986.054 192.212H962.689ZM985.761 209.058C991.254 209.058 992.938 211.914 992.938 220.703V274.756C992.938 283.545 991.4 286.621 986.054 286.841H979.169V209.058H985.761Z" fill="white"/>
<path d="M770.282 420.311V429.979C770.282 437.01 769.184 441.331 763.324 441.331C756.952 441.331 756.293 436.204 756.293 428.88V371.165C756.293 363.694 757.099 359.446 763.251 359.446C769.477 359.446 770.282 363.914 770.282 370.652V379.368H786.908V370.506C786.908 354.832 781.928 342.674 763.324 342.674C744.721 342.674 739.74 354.246 739.74 371.238V429.026C739.74 445.799 744.574 457.078 763.251 457.078C781.781 457.078 786.908 446.019 786.908 430.125V420.311H770.282ZM796.356 428.44C796.356 445.213 801.264 457.078 820.014 457.078C838.69 457.078 843.671 445.433 843.671 428.44V371.312C843.671 354.539 838.764 342.674 820.014 342.674C801.337 342.674 796.356 354.319 796.356 371.312V428.44ZM820.014 359.446C826.386 359.446 827.045 364.134 827.045 371.385V428.367C827.045 435.911 826.239 440.306 820.014 440.306C813.568 440.306 812.909 435.618 812.909 428.367V371.385C812.909 363.841 813.788 359.446 820.014 359.446ZM881.317 441.697H895.233L905.707 381.419L904.096 455.613H920.722V344.212H899.848L888.275 407.64L876.703 344.212H855.683V455.613H872.235L870.624 380.247L881.317 441.697ZM981.073 371.458C981.073 351.023 972.211 344.212 957.27 344.212H934.711V455.613H951.337V417.234H956.61C972.138 417.234 981.073 410.862 981.073 389.329V371.458ZM964.594 386.473C964.594 394.676 964.374 400.462 957.123 400.462H951.337V361.058H956.83C963.056 361.058 964.594 364.207 964.594 372.63V386.473ZM1022.24 344.212V428.514C1022.24 435.472 1021.58 440.306 1015.2 440.306C1008.98 440.306 1008.17 435.472 1008.17 428.514V344.212H991.693V428.807C991.693 446.019 996.674 457.078 1015.2 457.078C1033.73 457.078 1038.71 446.019 1038.71 428.807V344.212H1022.24ZM1092.55 361.058V344.212H1045.38V361.058H1060.61V455.613H1077.24V361.058H1092.55ZM1116.86 455.613V344.212H1100.31V455.613H1116.86ZM1147.55 455.613L1146.97 388.084L1164.11 455.613H1182.78L1182.64 344.212H1166.08L1166.6 408.958L1151.21 344.212H1131V455.613H1147.55ZM1217.35 412.4H1224.82V429.466C1224.82 436.424 1223.58 440.232 1217.79 440.232C1211.42 440.232 1210.76 435.838 1210.76 428.66V370.286C1210.76 363.255 1212.01 359.446 1217.79 359.446C1223.94 359.446 1224.82 363.841 1224.82 370.579V379.368H1241.45V370.359C1241.45 354.612 1236.47 342.674 1217.79 342.674C1199.19 342.674 1194.21 354.173 1194.21 371.165V428.733C1194.21 445.433 1199.12 457.078 1217.79 457.078C1236.25 457.078 1241.45 445.506 1241.45 429.612V395.774H1217.35V412.4Z" fill="black" fill-opacity="0.8"/>
<path d="M770.282 420.311V429.979C770.282 437.01 769.184 441.331 763.324 441.331C756.952 441.331 756.293 436.204 756.293 428.88V371.165C756.293 363.694 757.099 359.446 763.251 359.446C769.477 359.446 770.282 363.914 770.282 370.652V379.368H786.908V370.506C786.908 354.832 781.928 342.674 763.324 342.674C744.721 342.674 739.74 354.246 739.74 371.238V429.026C739.74 445.799 744.574 457.078 763.251 457.078C781.781 457.078 786.908 446.019 786.908 430.125V420.311H770.282ZM796.356 428.44C796.356 445.213 801.264 457.078 820.014 457.078C838.69 457.078 843.671 445.433 843.671 428.44V371.312C843.671 354.539 838.764 342.674 820.014 342.674C801.337 342.674 796.356 354.319 796.356 371.312V428.44ZM820.014 359.446C826.386 359.446 827.045 364.134 827.045 371.385V428.367C827.045 435.911 826.239 440.306 820.014 440.306C813.568 440.306 812.909 435.618 812.909 428.367V371.385C812.909 363.841 813.788 359.446 820.014 359.446ZM881.317 441.697H895.233L905.707 381.419L904.096 455.613H920.722V344.212H899.848L888.275 407.64L876.703 344.212H855.683V455.613H872.235L870.624 380.247L881.317 441.697ZM981.073 371.458C981.073 351.023 972.211 344.212 957.27 344.212H934.711V455.613H951.337V417.234H956.61C972.138 417.234 981.073 410.862 981.073 389.329V371.458ZM964.594 386.473C964.594 394.676 964.374 400.462 957.123 400.462H951.337V361.058H956.83C963.056 361.058 964.594 364.207 964.594 372.63V386.473ZM1022.24 344.212V428.514C1022.24 435.472 1021.58 440.306 1015.2 440.306C1008.98 440.306 1008.17 435.472 1008.17 428.514V344.212H991.693V428.807C991.693 446.019 996.674 457.078 1015.2 457.078C1033.73 457.078 1038.71 446.019 1038.71 428.807V344.212H1022.24ZM1092.55 361.058V344.212H1045.38V361.058H1060.61V455.613H1077.24V361.058H1092.55ZM1116.86 455.613V344.212H1100.31V455.613H1116.86ZM1147.55 455.613L1146.97 388.084L1164.11 455.613H1182.78L1182.64 344.212H1166.08L1166.6 408.958L1151.21 344.212H1131V455.613H1147.55ZM1217.35 412.4H1224.82V429.466C1224.82 436.424 1223.58 440.232 1217.79 440.232C1211.42 440.232 1210.76 435.838 1210.76 428.66V370.286C1210.76 363.255 1212.01 359.446 1217.79 359.446C1223.94 359.446 1224.82 363.841 1224.82 370.579V379.368H1241.45V370.359C1241.45 354.612 1236.47 342.674 1217.79 342.674C1199.19 342.674 1194.21 354.173 1194.21 371.165V428.733C1194.21 445.433 1199.12 457.078 1217.79 457.078C1236.25 457.078 1241.45 445.506 1241.45 429.612V395.774H1217.35V412.4Z" fill="white"/>
<path d="M758.271 615.613V504.212H741.718V615.613H758.271ZM788.959 615.613L788.373 548.084L805.512 615.613H824.188L824.042 504.212H807.489L808.002 568.958L792.621 504.212H772.406V615.613H788.959ZM878.388 521.058V504.212H831.22V521.058H846.454V615.613H863.08V521.058H878.388ZM927.46 615.613V598.841H902.484V567.347H923.139V550.501H902.484V521.058H927.46V504.212H886.005V615.613H927.46ZM955.805 615.613V572.547H959.833C963.568 572.327 967.523 575.916 968.329 587.049L969.281 602.576C969.647 608.362 971.845 614.148 972.431 615.613H989.569C988.104 612.171 986.273 608.143 985.98 602.063L984.955 586.683C984.149 574.891 982.318 571.448 977.484 567.347C982.978 563.025 986.786 556.36 986.786 547.059V532.117C986.786 511.609 979.022 504.212 963.056 504.212H939.252V615.613H955.805ZM970.233 544.642C970.233 550.721 968.769 555.701 963.642 555.701H955.805V521.058H962.689C967.67 521.058 970.233 523.182 970.233 532.63V544.642ZM1015.72 615.613L1015.13 548.084L1032.27 615.613H1050.95L1050.8 504.212H1034.25L1034.76 568.958L1019.38 504.212H999.164V615.613H1015.72ZM1057.83 615.613H1074.53L1076.8 595.911H1092.55L1094.82 615.613H1111.44L1095.7 504.139H1073.65L1057.83 615.613ZM1084.64 527.723L1090.72 580.018H1078.63L1084.64 527.723ZM1154.22 521.058V504.212H1107.05V521.058H1122.28V615.613H1138.91V521.058H1154.22ZM1178.53 615.613V504.212H1161.98V615.613H1178.53ZM1190.55 588.44C1190.55 605.213 1195.45 617.078 1214.2 617.078C1232.88 617.078 1237.86 605.433 1237.86 588.44V531.312C1237.86 514.539 1232.95 502.674 1214.2 502.674C1195.53 502.674 1190.55 514.319 1190.55 531.312V588.44ZM1214.2 519.446C1220.58 519.446 1221.23 524.134 1221.23 531.385V588.367C1221.23 595.911 1220.43 600.306 1214.2 600.306C1207.76 600.306 1207.1 595.618 1207.1 588.367V531.385C1207.1 523.841 1207.98 519.446 1214.2 519.446ZM1266.35 615.613L1265.77 548.084L1282.9 615.613H1301.58L1301.43 504.212H1284.88L1285.39 568.958L1270.01 504.212H1249.8V615.613H1266.35ZM1308.47 615.613H1325.17L1327.44 595.911H1343.18L1345.45 615.613H1362.08L1346.33 504.139H1324.29L1308.47 615.613ZM1335.27 527.723L1341.35 580.018H1329.27L1335.27 527.723ZM1409.76 615.613V598.987H1385.96V504.212H1369.48V615.613H1409.76ZM1435.69 596.863V614.863L1417.09 631.813V596.863H1435.69ZM1488.06 615.613V504.212H1471.5V615.613H1488.06ZM1518.74 615.613L1518.16 548.084L1535.3 615.613H1553.97L1553.83 504.212H1537.27L1537.79 568.958L1522.41 504.212H1502.19V615.613H1518.74ZM1596.01 580.311V589.979C1596.01 597.01 1594.92 601.331 1589.06 601.331C1582.68 601.331 1582.03 596.204 1582.03 588.88V531.165C1582.03 523.694 1582.83 519.446 1588.98 519.446C1595.21 519.446 1596.01 523.914 1596.01 530.652V539.368H1612.64V530.506C1612.64 514.832 1607.66 502.674 1589.06 502.674C1570.45 502.674 1565.47 514.246 1565.47 531.238V589.026C1565.47 605.799 1570.31 617.078 1588.98 617.078C1607.51 617.078 1612.64 606.019 1612.64 590.125V580.311H1596.01ZM1621.65 607.63C1621.65 614.075 1624.65 617.078 1631.1 617.078C1637.91 617.078 1640.91 614.075 1640.91 607.63C1640.91 600.965 1637.91 598.035 1631.1 598.035C1624.65 598.035 1621.65 600.965 1621.65 607.63Z" fill="black" fill-opacity="0.8"/>
<path d="M758.271 615.613V504.212H741.718V615.613H758.271ZM788.959 615.613L788.373 548.084L805.512 615.613H824.188L824.042 504.212H807.489L808.002 568.958L792.621 504.212H772.406V615.613H788.959ZM878.388 521.058V504.212H831.22V521.058H846.454V615.613H863.08V521.058H878.388ZM927.46 615.613V598.841H902.484V567.347H923.139V550.501H902.484V521.058H927.46V504.212H886.005V615.613H927.46ZM955.805 615.613V572.547H959.833C963.568 572.327 967.523 575.916 968.329 587.049L969.281 602.576C969.647 608.362 971.845 614.148 972.431 615.613H989.569C988.104 612.171 986.273 608.143 985.98 602.063L984.955 586.683C984.149 574.891 982.318 571.448 977.484 567.347C982.978 563.025 986.786 556.36 986.786 547.059V532.117C986.786 511.609 979.022 504.212 963.056 504.212H939.252V615.613H955.805ZM970.233 544.642C970.233 550.721 968.769 555.701 963.642 555.701H955.805V521.058H962.689C967.67 521.058 970.233 523.182 970.233 532.63V544.642ZM1015.72 615.613L1015.13 548.084L1032.27 615.613H1050.95L1050.8 504.212H1034.25L1034.76 568.958L1019.38 504.212H999.164V615.613H1015.72ZM1057.83 615.613H1074.53L1076.8 595.911H1092.55L1094.82 615.613H1111.44L1095.7 504.139H1073.65L1057.83 615.613ZM1084.64 527.723L1090.72 580.018H1078.63L1084.64 527.723ZM1154.22 521.058V504.212H1107.05V521.058H1122.28V615.613H1138.91V521.058H1154.22ZM1178.53 615.613V504.212H1161.98V615.613H1178.53ZM1190.55 588.44C1190.55 605.213 1195.45 617.078 1214.2 617.078C1232.88 617.078 1237.86 605.433 1237.86 588.44V531.312C1237.86 514.539 1232.95 502.674 1214.2 502.674C1195.53 502.674 1190.55 514.319 1190.55 531.312V588.44ZM1214.2 519.446C1220.58 519.446 1221.23 524.134 1221.23 531.385V588.367C1221.23 595.911 1220.43 600.306 1214.2 600.306C1207.76 600.306 1207.1 595.618 1207.1 588.367V531.385C1207.1 523.841 1207.98 519.446 1214.2 519.446ZM1266.35 615.613L1265.77 548.084L1282.9 615.613H1301.58L1301.43 504.212H1284.88L1285.39 568.958L1270.01 504.212H1249.8V615.613H1266.35ZM1308.47 615.613H1325.17L1327.44 595.911H1343.18L1345.45 615.613H1362.08L1346.33 504.139H1324.29L1308.47 615.613ZM1335.27 527.723L1341.35 580.018H1329.27L1335.27 527.723ZM1409.76 615.613V598.987H1385.96V504.212H1369.48V615.613H1409.76ZM1435.69 596.863V614.863L1417.09 631.813V596.863H1435.69ZM1488.06 615.613V504.212H1471.5V615.613H1488.06ZM1518.74 615.613L1518.16 548.084L1535.3 615.613H1553.97L1553.83 504.212H1537.27L1537.79 568.958L1522.41 504.212H1502.19V615.613H1518.74ZM1596.01 580.311V589.979C1596.01 597.01 1594.92 601.331 1589.06 601.331C1582.68 601.331 1582.03 596.204 1582.03 588.88V531.165C1582.03 523.694 1582.83 519.446 1588.98 519.446C1595.21 519.446 1596.01 523.914 1596.01 530.652V539.368H1612.64V530.506C1612.64 514.832 1607.66 502.674 1589.06 502.674C1570.45 502.674 1565.47 514.246 1565.47 531.238V589.026C1565.47 605.799 1570.31 617.078 1588.98 617.078C1607.51 617.078 1612.64 606.019 1612.64 590.125V580.311H1596.01ZM1621.65 607.63C1621.65 614.075 1624.65 617.078 1631.1 617.078C1637.91 617.078 1640.91 614.075 1640.91 607.63C1640.91 600.965 1637.91 598.035 1631.1 598.035C1624.65 598.035 1621.65 600.965 1621.65 607.63Z" fill="white"/>
<path d="M137.998 616C74.6105 552.613 39 466.642 39 376.999C39 287.356 74.6105 201.385 137.998 137.998C201.385 74.6105 287.356 39 376.999 39C466.642 39 552.613 74.6105 616 137.998L520.4 233.598C482.367 195.566 430.784 174.2 376.999 174.2C323.213 174.2 271.63 195.566 233.598 233.598C195.566 271.63 174.2 323.213 174.2 376.999C174.2 430.784 195.566 482.367 233.598 520.4L137.998 616Z" fill="url(#paint0_linear_108_2)"/>
<path d="M233.598 520.4C271.63 558.432 323.213 579.798 376.999 579.798C430.784 579.798 482.367 558.432 520.399 520.4C558.432 482.367 579.798 430.785 579.798 376.999C579.798 323.213 558.432 271.63 520.4 233.598L463.039 290.959C485.858 313.778 498.678 344.728 498.678 376.999C498.678 409.27 485.858 440.22 463.039 463.039C440.22 485.859 409.27 498.679 376.999 498.679C344.727 498.679 313.777 485.859 290.958 463.039L233.598 520.4Z" fill="url(#paint1_linear_108_2)"/>
<path d="M290.958 463.039C268.139 440.22 255.319 409.27 255.319 376.999C255.319 344.728 268.139 313.778 290.958 290.959C313.777 268.139 344.727 255.319 376.999 255.319C409.27 255.319 440.22 268.139 463.039 290.959L428.623 325.375C414.931 311.683 396.361 303.991 376.999 303.991C357.636 303.991 339.066 311.683 325.374 325.375C311.683 339.066 303.991 357.636 303.991 376.999C303.991 396.362 311.683 414.932 325.374 428.623L290.958 463.039Z" fill="url(#paint2_linear_108_2)"/>
<path d="M345.132 408.866C362.731 426.465 391.266 426.465 408.865 408.866C426.465 391.266 426.465 362.732 408.865 345.132C391.266 327.533 362.731 327.533 345.132 345.132C327.532 362.732 327.532 391.266 345.132 408.866Z" fill="url(#paint3_linear_108_2)"/>
<defs>
<linearGradient id="paint0_linear_108_2" x1="520.931" y1="134.263" x2="149.271" y2="505.924" gradientUnits="userSpaceOnUse">
<stop stop-color="#4285F4"/>
<stop offset="1" stop-color="#4254F4"/>
</linearGradient>
<linearGradient id="paint1_linear_108_2" x1="520.931" y1="134.263" x2="149.271" y2="505.924" gradientUnits="userSpaceOnUse">
<stop stop-color="#4285F4"/>
<stop offset="1" stop-color="#4254F4"/>
</linearGradient>
<linearGradient id="paint2_linear_108_2" x1="520.931" y1="134.263" x2="149.271" y2="505.924" gradientUnits="userSpaceOnUse">
<stop stop-color="#4285F4"/>
<stop offset="1" stop-color="#4254F4"/>
</linearGradient>
<linearGradient id="paint3_linear_108_2" x1="520.931" y1="134.263" x2="149.271" y2="505.924" gradientUnits="userSpaceOnUse">
<stop stop-color="#4285F4"/>
<stop offset="1" stop-color="#4254F4"/>
</linearGradient>
</defs>
</svg>
